<?xml version="1.0" encoding="utf-8"?>
<svg width="40" height="24" viewBox="0 0 40 24" preserveAspectRatio="xMinYMin meet" xmlns="http://www.w3.org/2000/svg">
  <path d="M38.333 24H1.667C.75 24 0 23.28 0 22.4V1.6C0 .72.75 0 1.667 0h36.666C39.25 0 40 .72 40 1.6v20.8c0 .88-.75 1.6-1.667 1.6z" style="fill: rgb(20, 119, 190);"/>
  <path d="M6.26 12.32h2.313L7.415 9.66M27.353 9.977h-3.738v1.23h3.666v1.384h-3.675v1.385h3.821v1.005c.623-.77 1.33-1.466 2.025-2.235l.707-.77c-.934-1.004-1.87-2.08-2.804-3.075v1.077z" style="fill: rgb(255, 255, 255);"/>
  <path d="M38.25 7h-5.605l-1.328 1.4L30.072 7H16.984l-1.017 2.416L14.877 7h-9.58L1.25 16.5h4.826l.623-1.556h1.4l.623 1.556H29.99l1.327-1.483 1.328 1.483h5.605l-4.36-4.667L38.25 7zm-17.685 8.1h-1.557V9.883L16.673 15.1h-1.33L13.01 9.883l-.084 5.217H9.73l-.623-1.556h-3.27L5.132 15.1H3.42l2.884-6.772h2.42l2.645 6.233V8.33h2.646l2.107 4.51 1.868-4.51h2.575V15.1zm14.727 0h-2.024l-2.024-2.26-2.023 2.26H22.06V8.328H29.53l1.795 2.177 2.024-2.177h2.025L32.26 11.75l3.032 3.35z" style="fill: rgb(255, 255, 255);"/>
</svg>