<svg width="100" height="32" viewBox="0 0 95 32" preserveAspectRatio="xMinYMin meet" xmlns="http://www.w3.org/2000/svg">
  <path fill="#ffffff" d="M 52.732 6.347 C 52.83 5.963 53.122 5.675 53.512 5.675 L 60.626 5.675 C 66.571 5.675 70.664 10.187 69.69 15.851 C 68.813 21.515 63.16 25.931 57.313 25.931 L 50.004 25.931 C 49.711 25.931 49.516 25.739 49.614 25.451 L 52.732 6.347 Z M 55.753 21.515 L 57.02 21.515 C 60.236 21.515 63.355 19.787 64.037 15.851 C 64.622 12.203 62.478 10.187 58.97 10.187 L 57.995 10.187 C 57.8 10.187 57.605 10.283 57.605 10.475 L 55.753 21.515 Z"/>
  <path fill="#ffffff" d="M 43.571 10.763 L 43.084 13.547 L 48.737 13.547 C 49.029 13.547 49.224 13.739 49.224 14.027 L 48.639 17.387 C 48.542 17.771 48.249 17.963 47.859 17.963 L 42.987 17.963 C 42.597 17.963 42.304 18.251 42.207 18.635 L 41.72 21.515 L 47.762 21.515 C 48.054 21.515 48.249 21.707 48.152 21.995 L 47.665 25.355 C 47.567 25.643 47.275 25.931 46.885 25.931 L 36.067 25.931 C 35.775 25.931 35.58 25.643 35.58 25.451 L 38.699 6.347 C 38.796 5.963 39.186 5.675 39.478 5.675 L 50.393 5.675 C 50.588 5.675 50.881 5.963 50.783 6.155 L 50.296 9.515 C 50.198 9.899 49.906 10.091 49.516 10.091 L 44.254 10.091 C 43.864 10.187 43.571 10.379 43.571 10.763 Z"/>
  <path fill="#ffffff" d="M 74.563 25.931 L 70.274 25.931 C 69.982 25.931 69.787 25.739 69.787 25.451 L 73.003 6.347 C 73.003 5.963 73.393 5.675 73.685 5.675 L 78.071 5.675 C 78.266 5.675 78.558 5.963 78.461 6.251 L 75.342 25.355 C 75.245 25.643 74.952 25.931 74.563 25.931 Z"/>
  <path fill="#ffffff" d="M 34.118 25.931 L 28.466 25.931 C 28.173 25.931 27.978 25.835 27.881 25.643 L 24.178 18.155 L 24.08 18.155 L 22.911 25.451 C 22.813 25.739 22.618 25.931 22.326 25.931 L 17.843 25.931 C 17.551 25.931 17.356 25.739 17.453 25.451 L 20.572 6.251 C 20.669 5.963 20.864 5.675 21.156 5.675 L 28.855 5.675 C 33.046 5.675 35.97 7.595 35.288 11.915 C 34.8 14.699 32.754 17.195 29.635 17.675 L 34.508 25.355 C 34.703 25.547 34.411 25.931 34.118 25.931 Z M 24.665 14.795 L 25.152 14.795 C 27.004 14.795 29.05 14.411 29.44 12.203 C 29.83 10.091 28.661 9.707 26.711 9.707 L 25.932 9.707 C 25.639 9.707 25.445 9.899 25.445 10.091 L 24.665 14.795 Z"/>
  <path fill="#ffffff" d="M 86.16 25.931 L 81.872 25.931 C 81.579 25.931 81.384 25.739 81.482 25.451 L 83.918 10.187 L 79.923 10.187 C 79.63 10.187 79.435 9.899 79.533 9.611 L 80.02 6.347 C 80.118 5.963 80.41 5.675 80.8 5.675 L 94.249 5.675 C 94.444 5.675 94.736 5.963 94.639 6.251 L 94.054 9.515 C 94.054 9.899 93.761 10.187 93.372 10.187 L 89.473 10.187 L 86.939 25.355 C 86.939 25.643 86.647 25.931 86.16 25.931 Z"/>
  <path fill="#ffffff" d="M 17.648 11.435 C 17.648 11.819 17.161 12.011 16.868 11.723 C 15.894 10.763 14.529 10.283 13.068 10.283 C 9.657 10.283 7.025 12.779 6.441 15.851 C 5.953 19.019 7.902 21.323 11.313 21.323 C 12.678 21.323 14.237 20.843 15.407 19.979 C 15.796 19.787 16.284 20.075 16.186 20.459 L 15.407 25.067 C 15.309 25.355 15.114 25.547 14.822 25.643 C 13.165 26.123 11.898 26.507 10.339 26.507 C 1.178 26.507 -0.284 19.019 0.203 15.851 C 1.47 6.923 9.072 4.907 13.652 5.195 C 15.114 5.195 16.479 5.387 17.745 5.867 C 18.233 6.059 18.428 6.443 18.33 6.923 L 17.648 11.435 Z"/>
</svg>
