<svg width="100" height="32" viewBox="0 0 100 32" xmlns="http://www.w3.org/2000/svg" preserveAspectRatio="xMinYMin meet">
    <path fill="#ffffff" d="M55.6 6.5C55.7 6.1 56 5.8 56.4 5.8L63.7 5.8C69.8 5.8 74 10.5 73 16.4 72.1 22.3 66.3 26.9 60.3 26.9L52.8 26.9C52.5 26.9 52.3 26.7 52.4 26.4L55.6 6.5ZM58.7 22.3L60 22.3C63.3 22.3 66.5 20.5 67.2 16.4 67.8 12.6 65.6 10.5 62 10.5L61 10.5C60.8 10.5 60.6 10.6 60.6 10.8L58.7 22.3Z"></path>
    <path fill="#ffffff" d="M46.2 11.1L45.7 14 51.5 14C51.8 14 52 14.2 52 14.5L51.4 18C51.3 18.4 51 18.6 50.6 18.6L45.6 18.6C45.2 18.6 44.9 18.9 44.8 19.3L44.3 22.3 50.5 22.3C50.8 22.3 51 22.5 50.9 22.8L50.4 26.3C50.3 26.6 50 26.9 49.6 26.9L38.5 26.9C38.2 26.9 38 26.6 38 26.4L41.2 6.5C41.3 6.1 41.7 5.8 42 5.8L53.2 5.8C53.4 5.8 53.7 6.1 53.6 6.3L53.1 9.8C53 10.2 52.7 10.4 52.3 10.4L46.9 10.4C46.5 10.5 46.2 10.7 46.2 11.1Z"></path>
    <path fill="#ffffff" d="M78 26.9L73.6 26.9C73.3 26.9 73.1 26.7 73.1 26.4L76.4 6.5C76.4 6.1 76.8 5.8 77.1 5.8L81.6 5.8C81.8 5.8 82.1 6.1 82 6.4L78.8 26.3C78.7 26.6 78.4 26.9 78 26.9Z"></path>
    <path fill="#ffffff" d="M36.5 26.9L30.7 26.9C30.4 26.9 30.2 26.8 30.1 26.6L26.3 18.8 26.2 18.8 25 26.4C24.9 26.7 24.7 26.9 24.4 26.9L19.8 26.9C19.5 26.9 19.3 26.7 19.4 26.4L22.6 6.4C22.7 6.1 22.9 5.8 23.2 5.8L31.1 5.8C35.4 5.8 38.4 7.8 37.7 12.3 37.2 15.2 35.1 17.8 31.9 18.3L36.9 26.3C37.1 26.5 36.8 26.9 36.5 26.9ZM26.8 15.3L27.3 15.3C29.2 15.3 31.3 14.9 31.7 12.6 32.1 10.4 30.9 10 28.9 10L28.1 10C27.8 10 27.6 10.2 27.6 10.4L26.8 15.3Z"></path>
    <path fill="#ffffff" d="M89.9 26.9L85.5 26.9C85.2 26.9 85 26.7 85.1 26.4L87.6 10.5 83.5 10.5C83.2 10.5 83 10.2 83.1 9.9L83.6 6.5C83.7 6.1 84 5.8 84.4 5.8L98.2 5.8C98.4 5.8 98.7 6.1 98.6 6.4L98 9.8C98 10.2 97.7 10.5 97.3 10.5L93.3 10.5 90.7 26.3C90.7 26.6 90.4 26.9 89.9 26.9Z"></path>
    <path fill="#ffffff" d="M19.6 11.8C19.6 12.2 19.1 12.4 18.8 12.1 17.8 11.1 16.4 10.6 14.9 10.6 11.4 10.6 8.7 13.2 8.1 16.4 7.6 19.7 9.6 22.1 13.1 22.1 14.5 22.1 16.1 21.6 17.3 20.7 17.7 20.5 18.2 20.8 18.1 21.2L17.3 26C17.2 26.3 17 26.5 16.7 26.6 15 27.1 13.7 27.5 12.1 27.5 2.7 27.5 1.2 19.7 1.7 16.4 3 7.1 10.8 5 15.5 5.3 17 5.3 18.4 5.5 19.7 6 20.2 6.2 20.4 6.6 20.3 7.1L19.6 11.8Z"></path>
</svg>
