<svg width="38" height="32" viewBox="0 0 38 32" preserveAspectRatio="xMinYMin meet" xmlns="http://www.w3.org/2000/svg">
  <mask id="mask-2" fill="white">
    <polygon id="" points="0 35.8930957 31.9150829 35.8930957 31.9150829 0 0 0" transform="matrix(1, 0, 0, 1, 0, 0)"/>
  </mask>
  <g transform="matrix(1, 0, 0, 1, 2.025162, 0.682172)">
    <path d="M 4.557 0.468 L 29.28 0.468 C 30.98 0.468 32.371 1.578 32.371 2.934 L 32.371 27.771 C 32.371 29.127 30.98 30.237 29.28 30.237 L 4.557 30.237 C 2.857 30.237 1.466 29.127 1.466 27.771 L 1.466 2.934 C 1.466 1.578 2.857 0.468 4.557 0.468 Z" id="Fill-1" fill="#FEFEFE"/>
    <path d="M 4.565 0.468 L 29.35 0.468 C 31.054 0.468 32.449 1.573 32.449 2.925 L 32.449 27.664 C 32.449 29.015 31.054 30.12 29.35 30.12 L 4.565 30.12 C 2.861 30.12 1.466 29.015 1.466 27.664 L 1.466 2.925 C 1.466 1.573 2.861 0.468 4.565 0.468 Z" id="Stroke-3" stroke-width="0.935373913" style="stroke: rgb(0, 112, 187); fill: rgb(255, 255, 255);"/>
    <path d="M 29.189 26.783 L 16.549 26.783 C 15.513 26.783 14.811 25.744 14.811 25.005 C 14.811 24.318 14.828 6.133 14.811 5.429 C 14.793 4.725 16.022 3.634 16.847 3.634 C 17.672 3.651 29.171 3.634 29.171 3.634 L 29.171 12.805 L 22.465 12.805 L 22.465 8.457 C 22.465 8.457 22.026 8.44 21.464 8.457 C 21.183 8.475 20.709 8.756 20.709 9.214 C 20.692 10.165 20.709 21.15 20.709 21.431 C 20.709 21.695 20.885 22.047 21.464 22.065 C 22.044 22.1 22.483 22.065 22.483 22.065 L 22.483 17.365 L 29.189 17.365 L 29.189 26.783 Z" id="Fill-21" fill="#EE4123" mask="url(#mask-2)"/>
    <path d="M 12.651 8.422 C 12.651 8.422 12.142 8.387 11.686 8.405 C 11.212 8.422 10.808 8.88 10.808 9.161 L 10.808 12.805 L 12.651 12.805 L 12.651 8.422 Z M 6.963 3.634 C 8.35 3.651 18.462 3.634 18.462 3.634 L 18.462 17.365 L 10.808 17.347 L 10.808 21.378 C 10.808 21.449 11.001 22.047 11.686 22.083 L 12.634 22.083 L 12.634 18.685 L 18.48 18.685 L 18.462 26.783 L 6.91 26.783 C 6.91 26.783 5.172 26.501 5.014 24.811 C 5.032 24.177 5.014 5.711 5.014 5.394 C 5.014 5.095 5.681 3.634 6.963 3.634 L 6.963 3.634 Z" id="Fill-22" fill="#0071BB" mask="url(#mask-2)"/>
    <path d="M 18.48 18.685 L 14.811 18.685 L 14.811 25.005 C 14.811 25.727 15.513 26.765 16.531 26.783 L 18.462 26.783 L 18.48 18.685 Z" id="Fill-23" fill="#231F20" mask="url(#mask-2)"/>
    <path d="M 18.462 17.365 L 18.462 3.634 L 16.847 3.634 C 16.022 3.634 14.793 4.725 14.811 5.43 L 14.811 17.365 L 18.462 17.365 Z" id="Fill-24" fill="#231F20" mask="url(#mask-2)"/>
  </g>
</svg>
