<?xml version="1.0" encoding="utf-8"?>
<svg id="Ebene_1" style="enable-background:new -35 188.9 525 465;" x="0px" y="0px" viewBox="-35 188.9 38 32" xmlns="http://www.w3.org/2000/svg">
  <style type="text/css">
	.st0{fill:#2188F7;}
	.st1{fill:#F72323;}
	.st2{fill:none;stroke:#2188F7;stroke-width:14;stroke-miterlimit:10;}
</style>
  <g transform="matrix(0.070296, 0, 0, 0.064658, -31.944773, 177.601852)">
    <g>
      <path class="st0" d="M135,436.6H67.2v95.1h81.2v44.7H21.9V264.9h125.7v42.7H67.2v86.6H135V436.6z"/>
      <path d="M179.2,264.9h47.3v265.2h73.9v46.3H179.2L179.2,264.9L179.2,264.9z"/>
      <path class="st1" d="M343.8,576.4L287,264.9h46.9l19.5,134.5c3.9,33.3,12.4,71.6,15.3,108.2h0.6c2.9-37,10.5-74.4,14.3-109.5&#10;&#9;&#9;l18.9-133.1h46.5l-57.8,311.5H343.8z"/>
    </g>
    <path class="st2" d="M 483 634.9 C 483 641.5 477.6 646.9 471 646.9 L -16 646.9 C -22.6 646.9 -28 641.5 -28 634.9 L -28 207.9 C -28 201.3 -22.6 195.9 -16 195.9 L 471 195.9 C 477.6 195.9 483 201.3 483 207.9 L 483 634.9 Z"/>
  </g>
</svg>