<?xml version="1.0" encoding="utf-8"?>
<svg width="40" height="24" viewBox="0 0 40 24" preserveAspectRatio="xMinYMin meet" xmlns="http://www.w3.org/2000/svg">
  <path d="M0 1.927C0 .863.892 0 1.992 0h36.016C39.108 0 40 .863 40 1.927v20.146C40 23.137 39.108 24 38.008 24H1.992C.892 24 0 23.137 0 22.073V1.927z" style="fill: rgb(62, 57, 57);"/>
  <path style="fill: rgb(255, 95, 0);" d="M 22.205 3.901 L 15.688 3.901 L 15.688 15.589 L 22.205 15.589"/>
  <path d="M 16.1 9.747 C 16.1 7.371 17.218 5.265 18.935 3.901 C 17.67 2.912 16.078 2.312 14.342 2.312 C 10.223 2.312 6.892 5.636 6.892 9.746 C 6.892 13.853 10.223 17.178 14.342 17.178 C 16.078 17.178 17.67 16.58 18.935 15.588 C 17.216 14.246 16.099 12.119 16.099 9.745 Z" style="fill: rgb(235, 0, 27);"/>
  <path d="M 30.996 9.747 C 30.996 13.854 27.663 17.179 23.547 17.179 C 21.81 17.179 20.216 16.581 18.954 15.589 C 20.691 14.227 21.788 12.12 21.788 9.746 C 21.788 7.37 20.671 5.264 18.954 3.9 C 20.216 2.911 21.81 2.311 23.547 2.311 C 27.663 2.311 30.996 5.657 30.996 9.745 Z" style="fill: rgb(247, 158, 27);"/>
  <path d="M 7.167 22.481 L 7.167 20.43 C 7.167 19.641 6.685 19.127 5.857 19.127 C 5.443 19.127 4.993 19.262 4.683 19.71 C 4.44 19.332 4.096 19.127 3.579 19.127 C 3.233 19.127 2.888 19.23 2.612 19.607 L 2.612 19.197 L 1.886 19.197 L 1.886 22.481 L 2.612 22.481 L 2.612 20.668 C 2.612 20.086 2.921 19.812 3.406 19.812 C 3.888 19.812 4.131 20.121 4.131 20.669 L 4.131 22.481 L 4.856 22.481 L 4.856 20.668 C 4.856 20.086 5.204 19.812 5.651 19.812 C 6.137 19.812 6.377 20.121 6.377 20.669 L 6.377 22.481 L 7.171 22.481 Z M 17.909 19.197 L 16.734 19.197 L 16.734 18.204 L 16.007 18.204 L 16.007 19.197 L 15.352 19.197 L 15.352 19.845 L 16.007 19.845 L 16.007 21.351 C 16.007 22.106 16.319 22.551 17.146 22.551 C 17.459 22.551 17.804 22.449 18.044 22.309 L 17.839 21.695 C 17.632 21.831 17.389 21.867 17.216 21.867 C 16.872 21.867 16.734 21.66 16.734 21.319 L 16.734 19.847 L 17.909 19.847 L 17.909 19.198 Z M 24.053 19.127 C 23.639 19.127 23.364 19.332 23.191 19.607 L 23.191 19.197 L 22.465 19.197 L 22.465 22.481 L 23.191 22.481 L 23.191 20.633 C 23.191 20.086 23.434 19.777 23.882 19.777 C 24.018 19.777 24.192 19.812 24.33 19.847 L 24.538 19.162 C 24.401 19.127 24.192 19.127 24.052 19.127 Z M 14.765 19.469 C 14.42 19.229 13.937 19.127 13.418 19.127 C 12.588 19.127 12.036 19.538 12.036 20.188 C 12.036 20.736 12.453 21.044 13.175 21.146 L 13.524 21.181 C 13.903 21.249 14.108 21.351 14.108 21.523 C 14.108 21.765 13.832 21.934 13.35 21.934 C 12.864 21.934 12.484 21.764 12.244 21.592 L 11.898 22.139 C 12.278 22.411 12.794 22.549 13.313 22.549 C 14.28 22.549 14.831 22.105 14.831 21.488 C 14.831 20.908 14.383 20.599 13.692 20.496 L 13.348 20.462 C 13.037 20.428 12.795 20.36 12.795 20.155 C 12.795 19.914 13.038 19.777 13.418 19.777 C 13.83 19.777 14.245 19.949 14.453 20.052 L 14.764 19.469 Z M 34.033 19.127 C 33.618 19.127 33.342 19.332 33.171 19.607 L 33.171 19.197 L 32.445 19.197 L 32.445 22.481 L 33.171 22.481 L 33.171 20.633 C 33.171 20.086 33.414 19.777 33.862 19.777 C 33.998 19.777 34.17 19.812 34.307 19.847 L 34.515 19.162 C 34.38 19.127 34.172 19.127 34.033 19.127 Z M 24.779 20.838 C 24.779 21.834 25.47 22.551 26.54 22.551 C 27.025 22.551 27.369 22.449 27.715 22.173 L 27.369 21.593 C 27.092 21.798 26.816 21.901 26.504 21.901 C 25.919 21.901 25.505 21.49 25.505 20.84 C 25.505 20.226 25.919 19.813 26.507 19.78 C 26.816 19.78 27.092 19.883 27.369 20.089 L 27.715 19.507 C 27.369 19.233 27.024 19.13 26.54 19.13 C 25.47 19.13 24.779 19.85 24.779 20.841 Z M 31.478 20.838 L 31.478 19.198 L 30.75 19.198 L 30.75 19.608 C 30.51 19.3 30.165 19.128 29.717 19.128 C 28.784 19.128 28.058 19.848 28.058 20.84 C 28.058 21.835 28.784 22.552 29.716 22.552 C 30.197 22.552 30.543 22.382 30.748 22.074 L 30.748 22.484 L 31.477 22.484 L 31.477 20.84 Z M 28.818 20.838 C 28.818 20.259 29.196 19.779 29.819 19.779 C 30.406 19.779 30.821 20.224 30.821 20.84 C 30.821 21.424 30.406 21.902 29.819 21.902 C 29.196 21.869 28.818 21.424 28.818 20.841 Z M 20.148 19.128 C 19.183 19.128 18.494 19.813 18.494 20.84 C 18.494 21.869 19.183 22.552 20.185 22.552 C 20.671 22.552 21.154 22.417 21.533 22.108 L 21.188 21.595 C 20.914 21.799 20.565 21.937 20.222 21.937 C 19.772 21.937 19.323 21.732 19.219 21.149 L 21.671 21.149 L 21.671 20.878 C 21.705 19.815 21.083 19.13 20.15 19.13 Z M 20.148 19.748 C 20.6 19.748 20.911 20.019 20.98 20.532 L 19.253 20.532 C 19.321 20.087 19.633 19.748 20.148 19.748 Z M 38.141 20.84 L 38.141 17.898 L 37.412 17.898 L 37.412 19.61 C 37.173 19.302 36.828 19.13 36.38 19.13 C 35.446 19.13 34.721 19.85 34.721 20.841 C 34.721 21.837 35.446 22.554 36.379 22.554 C 36.861 22.554 37.206 22.383 37.41 22.076 L 37.41 22.486 L 38.14 22.486 L 38.14 20.841 Z M 35.481 20.84 C 35.481 20.261 35.861 19.78 36.484 19.78 C 37.069 19.78 37.486 20.226 37.486 20.841 C 37.486 21.426 37.069 21.904 36.484 21.904 C 35.861 21.87 35.481 21.426 35.481 20.843 Z M 11.237 20.84 L 11.237 19.2 L 10.515 19.2 L 10.515 19.61 C 10.272 19.302 9.928 19.13 9.478 19.13 C 8.545 19.13 7.82 19.85 7.82 20.841 C 7.82 21.837 8.545 22.554 9.477 22.554 C 9.96 22.554 10.304 22.383 10.512 22.076 L 10.512 22.486 L 11.236 22.486 L 11.236 20.841 Z M 8.546 20.84 C 8.546 20.261 8.926 19.78 9.548 19.78 C 10.134 19.78 10.55 20.226 10.55 20.841 C 10.55 21.426 10.134 21.904 9.548 21.904 C 8.926 21.87 8.546 21.426 8.546 20.843 Z" style="fill: rgb(255, 255, 255);"/>
</svg>