<svg width="24" height="32" viewBox="0 0 24 32" xmlns="http://www.w3.org/2000/svg" preserveAspectRatio="xMinYMin meet">
    <path fill="#ffffff" d="M 20.905 11.5 C 21.185 9.4 20.905 8 19.782 6.6 C 18.564 5.2 16.411 4.6 13.697 4.6 L 5.739 4.6 C 5.271 4.6 4.71 5 4.615 5.6 L 1.339 27.8 C 1.339 28.2 1.62 28.6 2.088 28.6 L 6.956 28.6 L 6.675 30.9 C 6.581 31.2 6.862 31.6 7.236 31.6 L 11.356 31.6 C 11.825 31.6 12.292 31.2 12.386 30.7 L 12.386 30.5 L 13.228 25.3 L 13.228 25 C 13.322 24.5 13.79 24.1 14.258 24.1 L 14.821 24.1 C 18.845 24.1 21.935 22.4 22.871 17.5 C 23.339 15.4 23.153 13.7 22.029 12.4 C 21.748 12 21.279 11.7 20.905 11.5 L 20.905 11.5"></path>
    <path fill="#ffffff" d="M 20.905 11.5 C 21.185 9.4 20.905 8 19.782 6.6 C 18.564 5.2 16.411 4.6 13.697 4.6 L 5.739 4.6 C 5.271 4.6 4.71 5 4.615 5.6 L 1.339 27.8 C 1.339 28.2 1.62 28.6 2.088 28.6 L 6.956 28.6 L 8.267 20.4 L 8.173 20.6 C 8.267 20 8.735 19.6 9.296 19.6 L 11.636 19.6 C 16.224 19.6 19.782 17.7 20.905 12 C 20.812 11.8 20.905 11.6 20.905 11.5"></path>
    <path fill="#ffffff" d="M 9.485 11.5 C 9.577 11.1 9.765 10.8 10.046 10.7 C 10.232 10.6 10.326 10.6 10.513 10.6 L 16.692 10.6 C 17.442 10.6 18.189 10.6 18.753 10.7 C 18.939 10.8 19.127 10.8 19.314 10.8 C 19.501 10.9 19.688 10.9 19.782 11 C 19.875 11 19.968 11.1 20.063 11.1 C 20.343 11.2 20.624 11.3 20.905 11.4 C 21.185 9.3 20.905 7.9 19.782 6.6 C 18.658 5.2 16.506 4.5 13.79 4.5 L 5.739 4.5 C 5.271 4.5 4.71 5 4.615 5.5 L 1.339 27.8 C 1.339 28.2 1.62 28.6 2.088 28.6 L 6.956 28.6 L 8.267 20.4 L 9.485 11.5 Z"></path>
    <path fill="#009cde" d="M 20.905 9.5 C 21.185 7.4 20.905 6 19.782 4.7 C 18.564 3.3 16.411 2.6 13.697 2.6 L 5.739 2.6 C 5.271 2.6 4.71 3.1 4.615 3.6 L 1.339 25.8 C 1.339 26.2 1.62 26.7 2.088 26.7 L 6.956 26.7 L 6.675 28.9 C 6.581 29.3 6.862 29.6 7.236 29.6 L 11.356 29.6 C 11.825 29.6 12.292 29.3 12.386 28.8 L 12.386 28.5 L 13.228 23.3 L 13.228 23.1 C 13.322 22.6 13.79 22.2 14.258 22.2 L 14.821 22.2 C 18.845 22.2 21.935 20.5 22.871 15.5 C 23.339 13.4 23.153 11.7 22.029 10.5 C 21.748 10.1 21.279 9.8 20.905 9.5 L 20.905 9.5"></path>
    <path fill="#012169" d="M 20.905 9.5 C 21.185 7.4 20.905 6 19.782 4.7 C 18.564 3.3 16.411 2.6 13.697 2.6 L 5.739 2.6 C 5.271 2.6 4.71 3.1 4.615 3.6 L 1.339 25.8 C 1.339 26.2 1.62 26.7 2.088 26.7 L 6.956 26.7 L 8.267 18.4 L 8.173 18.7 C 8.267 18.1 8.735 17.7 9.296 17.7 L 11.636 17.7 C 16.224 17.7 19.782 15.7 20.905 10.1 C 20.812 9.8 20.905 9.7 20.905 9.5"></path>
    <path fill="#003087" d="M 9.485 9.5 C 9.577 9.2 9.765 8.9 10.046 8.7 C 10.232 8.7 10.326 8.6 10.513 8.6 L 16.692 8.6 C 17.442 8.6 18.189 8.7 18.753 8.8 C 18.939 8.8 19.127 8.8 19.314 8.9 C 19.501 9 19.688 9 19.782 9.1 C 19.875 9.1 19.968 9.1 20.063 9.1 C 20.343 9.2 20.624 9.4 20.905 9.5 C 21.185 7.4 20.905 6 19.782 4.6 C 18.658 3.2 16.506 2.6 13.79 2.6 L 5.739 2.6 C 5.271 2.6 4.71 3 4.615 3.6 L 1.339 25.8 C 1.339 26.2 1.62 26.7 2.088 26.7 L 6.956 26.7 L 8.267 18.4 L 9.485 9.5 Z"></path>
</svg>
