<?xml version="1.0" encoding="UTF-8"?>
<svg width="57px" height="11px" viewBox="0 0 57 11" version="1.1" xmlns="http://www.w3.org/2000/svg" xmlns:xlink="http://www.w3.org/1999/xlink">
    <!-- Generator: Sketch 44.1 (41455) - http://www.bohemiancoding.com/sketch -->
    <title>Venmo logo</title>
    <desc>Created with Sketch.</desc>
    <defs></defs>
    <g id="cobranded-button-v6" stroke="none" stroke-width="1" fill="none" fill-rule="evenodd">
        <g transform="translate(-231.000000, -348.000000)" id="Pill-Button-Silver-Silver-v1" fill="#FFFFFF">
            <g transform="translate(90.000000, 335.000000)">
                <g id="Venmo-logo" transform="translate(141.000000, 13.000000)">
                    <path d="M9.53584642,0.0434464239 C9.91642205,0.672930309 10.0879986,1.32129969 10.0879986,2.14032349 C10.0879986,4.75258865 7.86131361,8.14610663 6.0540923,10.529006 L1.92628783,10.529006 L0.27080823,0.615393153 L3.88515314,0.271735854 L4.76042825,7.3259086 C5.57825061,5.99159455 6.58748444,3.89471749 6.58748444,2.4650953 C6.58748444,1.6825704 6.45362344,1.14956889 6.24442897,0.710701299 L9.53584642,0.0434464239 L9.53584642,0.0434464239 Z" id="Shape"></path>
                    <path d="M14.2202,4.4088335 C14.8853036,4.4088335 16.5597387,4.10412142 16.5597387,3.15103996 C16.5597387,2.69338473 16.2366158,2.4650953 15.8558447,2.4650953 C15.1896664,2.4650953 14.3154661,3.26513575 14.2202,4.4088335 L14.2202,4.4088335 Z M14.1439872,6.29640449 C14.1439872,7.46016196 14.7901352,7.91674082 15.646748,7.91674082 C16.5795735,7.91674082 17.4727294,7.68845139 18.6336072,7.09761917 L18.1963605,10.071155 C17.3784404,10.471371 16.1037319,10.7384099 14.8664458,10.7384099 C11.7279425,10.7384099 10.6046826,8.832247 10.6046826,6.44924979 C10.6046826,3.3606396 12.4318365,0.0811195618 16.1988025,0.0811195618 C18.2727687,0.0811195618 19.4324741,1.24477919 19.4324741,2.86511552 C19.4326695,5.47728283 16.0849718,6.27751899 14.1439872,6.29640449 L14.1439872,6.29640449 Z" id="Shape"></path>
                    <path d="M29.8629824,2.36978715 C29.8629824,2.75101973 29.8052365,3.30398312 29.7477837,3.66535168 L28.6632165,10.5289081 L25.1438445,10.5289081 L26.1331457,4.23720056 C26.1519058,4.06654614 26.209554,3.72298669 26.209554,3.5323704 C26.209554,3.07471516 25.924049,2.96052152 25.5807981,2.96052152 C25.124889,2.96052152 24.6679051,3.17002331 24.3635423,3.32296646 L23.2414548,10.529006 L19.702248,10.529006 L21.3191326,0.253046064 L24.3823024,0.253046064 L24.4210927,1.07324409 C25.1437468,0.596703363 26.0953324,0.0813152664 27.4454721,0.0813152664 C29.2342265,0.0811195618 29.8629824,0.996527885 29.8629824,2.36978715 L29.8629824,2.36978715 Z" id="Shape"></path>
                    <path d="M40.3109806,1.20602967 C41.3189442,0.482314017 42.2707253,0.0811195618 43.5830517,0.0811195618 C45.3901753,0.0811195618 46.0187358,0.996527885 46.0187358,2.36978715 C46.0187358,2.75101973 45.9611853,3.30398312 45.9037326,3.66535168 L44.8204355,10.5289081 L41.3000864,10.5289081 L42.3082454,4.10421927 C42.3268101,3.93248848 42.3657959,3.72298669 42.3657959,3.59010326 C42.3657959,3.07481301 42.0801932,2.96052152 41.73704,2.96052152 C41.299891,2.96052152 40.8629374,3.15113781 40.5385443,3.32296646 L39.4166523,10.529006 L35.8971826,10.529006 L36.9053416,4.10431713 C36.9239063,3.93258633 36.9617195,3.72308454 36.9617195,3.59020111 C36.9617195,3.07491087 36.6760191,2.96061937 36.3340384,2.96061937 C35.8771523,2.96061937 35.4211455,3.17012116 35.1167827,3.32306432 L33.9938158,10.5291038 L30.4557815,10.5291038 L32.0724707,0.253143916 L35.098218,0.253143916 L35.1932886,1.11101508 C35.8971826,0.596899067 36.8479865,0.081510971 38.1225974,0.081510971 C39.2262179,0.0811195618 39.9487742,0.557758145 40.3109806,1.20602967 L40.3109806,1.20602967 Z" id="Shape"></path>
                    <path d="M53.0228909,4.19952742 C53.0228909,3.3606396 52.8134033,2.78869287 52.186113,2.78869287 C50.7971829,2.78869287 50.511971,5.24781918 50.511971,6.50580842 C50.511971,7.46016196 50.7786182,8.05079848 51.4057131,8.05079848 C52.7185281,8.05079848 53.0228909,5.45741882 53.0228909,4.19952742 L53.0228909,4.19952742 Z M46.9353417,6.35394164 C46.9353417,3.11336682 48.6471992,0.0811195618 52.5858396,0.0811195618 C55.5536456,0.0811195618 56.638506,1.83551356 56.638506,4.25706458 C56.638506,7.46006411 54.9451154,10.7770616 50.9115022,10.7770616 C47.9245452,10.7770616 46.9353417,8.8131658 46.9353417,6.35394164 L46.9353417,6.35394164 Z" id="Shape"></path>
                </g>
            </g>
        </g>
    </g>
</svg>