<svg width="101" height="32" viewBox="0 0 101 32" xmlns="http://www.w3.org/2000/svg" preserveAspectRatio="xMinYMin meet">
    <g id="Page-1" stroke="none" stroke-width="1" fill="none" fill-rule="evenodd">
        <g id="Blue" fill="#3D93CE">
            <g id="Logo" transform="translate(0.000000, 6.000000)">
                <path d="M16.6660484,0.18 C17.3466626,1.3390991 17.6535069,2.53297297 17.6535069,4.04108108 C17.6535069,8.85117117 13.671346,15.0998198 10.439346,19.4875676 L3.05725952,19.4875676 L0.0966314879,1.23315315 L6.56045675,0.60036036 L8.12578201,13.5895495 C9.58835986,11.1326126 11.3932543,7.27153153 11.3932543,4.6390991 C11.3932543,3.1981982 11.1538599,2.21675676 10.7797405,1.40864865 L16.6660484,0.18 Z M24.9071592,11.6938739 C24.9071592,13.8367568 26.062718,14.6774775 27.5946678,14.6774775 C29.2629152,14.6774775 30.860218,14.2571171 32.9363097,13.1691892 L32.154346,18.6445045 C30.6915934,19.3814414 28.4119291,19.8731532 26.1991903,19.8731532 C20.5863512,19.8731532 18.5775346,16.3632432 18.5775346,11.9753153 C18.5775346,6.28810811 21.8451817,0.249369369 28.5819516,0.249369369 C32.2909931,0.249369369 34.3649879,2.39207207 34.3649879,5.37567568 C34.3653374,10.1855856 28.3783789,11.6590991 24.9071592,11.6938739 Z M25.0434567,8.2181982 C26.2329152,8.2181982 29.2274429,7.65711712 29.2274429,5.90216216 C29.2274429,5.05945946 28.6495761,4.6390991 27.9686125,4.6390991 C26.7772318,4.6390991 25.2138287,6.11225225 25.0434567,8.2181982 Z M53.0187093,4.4636036 C53.0187093,5.16558559 52.9154377,6.18378378 52.8126903,6.84918919 L50.8730709,19.4873874 L44.5790934,19.4873874 L46.3483408,7.90216216 C46.381891,7.58792793 46.4849879,6.95531532 46.4849879,6.60432432 C46.4849879,5.76162162 45.9743962,5.55135135 45.3605329,5.55135135 C44.5451938,5.55135135 43.7279325,5.93711712 43.1836159,6.21873874 L41.1768962,19.4875676 L34.8474464,19.4875676 L37.7390519,0.565945946 L43.2171661,0.565945946 L43.2865381,2.07621622 C44.5789187,1.19873874 46.2807163,0.24972973 48.6952803,0.24972973 C51.8942543,0.249369369 53.0187093,1.93495495 53.0187093,4.4636036 Z M71.7037093,2.32072072 C73.5063322,0.988108108 75.2084792,0.249369369 77.5554187,0.249369369 C80.7872439,0.249369369 81.9113495,1.93495495 81.9113495,4.4636036 C81.9113495,5.16558559 81.8084273,6.18378378 81.7056799,6.84918919 L79.7683322,19.4873874 L73.4726073,19.4873874 L75.2755796,7.6572973 C75.3087803,7.34108108 75.3785017,6.95531532 75.3785017,6.71063063 C75.3785017,5.7618018 74.8677353,5.55135135 74.2540467,5.55135135 C73.4722578,5.55135135 72.6908183,5.90234234 72.1106799,6.21873874 L70.1043097,19.4875676 L63.8101574,19.4875676 L65.6131298,7.65747748 C65.6463304,7.34126126 65.713955,6.9554955 65.713955,6.71081081 C65.713955,5.76198198 65.2030138,5.55153153 64.5914221,5.55153153 C63.7743356,5.55153153 62.9588218,5.9372973 62.4145052,6.21891892 L60.4062128,19.4877477 L54.0788599,19.4877477 L56.9701159,0.566126126 L62.3813045,0.566126126 L62.551327,2.14576577 C63.8101574,1.1990991 65.5105571,0.25009009 67.7900467,0.25009009 C69.7637405,0.249369369 71.0559464,1.12702703 71.7037093,2.32072072 Z M83.55059,11.7998198 C83.55059,5.83279279 86.6120433,0.249369369 93.6558322,0.249369369 C98.9633997,0.249369369 100.903543,3.47981982 100.903543,7.93873874 C100.903543,13.8365766 97.8751159,19.9443243 90.6614792,19.9443243 C85.3196626,19.9443243 83.55059,16.3281081 83.55059,11.7998198 Z M94.4374464,7.83279279 C94.4374464,6.28810811 94.0628028,5.23495495 92.9409689,5.23495495 C90.4570329,5.23495495 89.9469654,9.76306306 89.9469654,12.0794595 C89.9469654,13.8367568 90.4238322,14.9243243 91.5453166,14.9243243 C93.8931298,14.9243243 94.4374464,10.149009 94.4374464,7.83279279 Z"></path>
            </g>
        </g>
    </g>
</svg>
