<?xml version="1.0" encoding="utf-8"?>
<svg version="1.1" id="Layer_1" x="0px" y="0px" width="258px" height="32px" viewBox="0 0 258 32" enable-background="new 0 0 403.866 49.999" xmlns="http://www.w3.org/2000/svg">
  <g>
    <path fill="none" d="M440.514,66.851c0,10.913-8.929,19.843-19.843,19.843H-16.593c-10.913,0-19.843-8.929-19.843-19.843v-83.81&#10;&#9;&#9;c0-10.913,8.929-19.843,19.843-19.843h437.264c10.913,0,19.843,8.929,19.843,19.843V66.851z"/>
  </g>
  <g transform="matrix(0.637323, 0, 0, 0.637323, 0, 0)">
    <path fill="#FFFFFF" d="M404.061,48.855v-3.727c0-0.541-0.337-0.812-1.011-0.812h-2.36c-0.739,0-1.188-0.136-1.348-0.409&#10;&#9;&#9;c-0.161-0.272-0.241-0.891-0.241-1.854V28.039h3.949c0.256,0,0.481-0.097,0.674-0.291c0.192-0.194,0.289-0.421,0.289-0.68v-3.933&#10;&#9;&#9;c0-0.258-0.097-0.486-0.289-0.68c-0.193-0.194-0.418-0.291-0.674-0.291h-3.949v-5.105c0-0.256-0.08-0.457-0.24-0.602&#10;&#9;&#9;c-0.159-0.144-0.367-0.216-0.622-0.216h-0.144l-5.839,1.011c-0.256,0.065-0.479,0.177-0.67,0.337&#10;&#9;&#9;c-0.191,0.161-0.287,0.369-0.287,0.626v3.949h-3.852c-0.258,0-0.49,0.105-0.699,0.313c-0.209,0.209-0.313,0.442-0.313,0.698v3.179&#10;&#9;&#9;c0,0.257,0.104,0.474,0.313,0.65c0.209,0.177,0.441,0.297,0.699,0.361l3.852,0.626v13.966c0,1.702,0.176,3.09,0.526,4.165&#10;&#9;&#9;c0.351,1.076,0.862,1.919,1.532,2.529c0.67,0.61,1.507,1.019,2.513,1.228c1.005,0.208,2.162,0.313,3.472,0.313&#10;&#9;&#9;c0.705,0,1.331-0.033,1.878-0.096c0.545-0.064,1.187-0.159,1.926-0.287C403.755,49.715,404.061,49.396,404.061,48.855&#10;&#9;&#9; M383.305,48.362v-4.286c0-0.257-0.089-0.458-0.265-0.602c-0.177-0.145-0.393-0.217-0.65-0.217h-0.096&#10;&#9;&#9;c-0.899,0.096-1.758,0.177-2.577,0.241c-0.818,0.064-1.918,0.096-3.298,0.096c-0.547,0-1.06-0.088-1.541-0.265&#10;&#9;&#9;c-0.482-0.176-0.9-0.481-1.253-0.915c-0.353-0.433-0.634-1.011-0.842-1.733c-0.21-0.723-0.313-1.614-0.313-2.673v-4.045&#10;&#9;&#9;c0-1.06,0.103-1.951,0.313-2.673c0.208-0.723,0.489-1.3,0.842-1.734c0.353-0.433,0.771-0.738,1.253-0.915&#10;&#9;&#9;c0.481-0.176,0.994-0.265,1.541-0.265c1.38,0,2.48,0.033,3.298,0.097c0.819,0.064,1.678,0.144,2.577,0.24h0.096&#10;&#9;&#9;c0.257,0,0.473-0.072,0.65-0.216c0.176-0.145,0.265-0.345,0.265-0.602v-4.286c0-0.353-0.08-0.602-0.241-0.747&#10;&#9;&#9;c-0.161-0.144-0.417-0.265-0.77-0.361c-0.674-0.16-1.55-0.32-2.625-0.482c-1.076-0.16-2.335-0.24-3.78-0.24&#10;&#9;&#9;c-3.404,0-6.124,1.043-8.163,3.13s-3.058,5.105-3.058,9.054v4.045c0,3.949,1.019,6.967,3.058,9.053&#10;&#9;&#9;c2.039,2.088,4.759,3.131,8.163,3.131c1.445,0,2.704-0.081,3.78-0.241c1.075-0.161,1.951-0.321,2.625-0.482&#10;&#9;&#9;c0.353-0.096,0.609-0.216,0.77-0.361C383.225,48.964,383.305,48.715,383.305,48.362 M351.955,43.257&#10;&#9;&#9;c-0.578,0.289-1.197,0.538-1.854,0.746c-0.659,0.21-1.357,0.313-2.095,0.313c-1.028,0-1.79-0.144-2.288-0.433&#10;&#9;&#9;c-0.498-0.289-0.746-0.947-0.746-1.974v-0.434c0-0.578,0.064-1.091,0.193-1.541c0.127-0.449,0.352-0.819,0.674-1.108&#10;&#9;&#9;c0.32-0.288,0.754-0.505,1.3-0.65c0.546-0.144,1.236-0.216,2.071-0.216h2.745V43.257z M359.612,31.603&#10;&#9;&#9;c0-1.765-0.265-3.267-0.795-4.503c-0.53-1.235-1.276-2.247-2.239-3.034c-0.963-0.786-2.143-1.364-3.54-1.733&#10;&#9;&#9;c-1.396-0.369-2.961-0.554-4.695-0.554c-1.606,0-3.171,0.113-4.695,0.337c-1.526,0.225-2.738,0.45-3.636,0.674&#10;&#9;&#9;c-0.611,0.161-0.915,0.514-0.915,1.059v3.901c0,0.322,0.079,0.547,0.24,0.674c0.161,0.129,0.369,0.193,0.626,0.193h0.241&#10;&#9;&#9;c0.386-0.032,0.867-0.072,1.445-0.12c0.578-0.048,1.228-0.088,1.95-0.121c0.723-0.031,1.477-0.055,2.264-0.072&#10;&#9;&#9;c0.786-0.016,1.565-0.024,2.335-0.024c1.124,0,2.007,0.209,2.649,0.626c0.642,0.418,0.963,1.317,0.963,2.697v1.734h-2.6&#10;&#9;&#9;c-4.142,0-7.152,0.65-9.03,1.95c-1.878,1.3-2.817,3.363-2.817,6.188v0.434c0,1.573,0.232,2.889,0.698,3.948&#10;&#9;&#9;c0.465,1.06,1.084,1.911,1.854,2.553c0.771,0.642,1.645,1.1,2.625,1.372c0.979,0.273,1.998,0.41,3.058,0.41&#10;&#9;&#9;c1.445,0,2.688-0.193,3.732-0.578c1.043-0.385,2.03-0.915,2.962-1.589v0.77c0,0.257,0.096,0.482,0.289,0.674&#10;&#9;&#9;c0.192,0.193,0.417,0.289,0.674,0.289h5.394c0.256,0,0.481-0.096,0.674-0.289c0.192-0.192,0.289-0.417,0.289-0.674V31.603z&#10;&#9;&#9; M333.896,48.855v-3.727c0-0.541-0.337-0.812-1.011-0.812h-2.36c-0.739,0-1.188-0.136-1.348-0.409&#10;&#9;&#9;c-0.161-0.272-0.241-0.891-0.241-1.854V28.039h3.949c0.256,0,0.481-0.097,0.674-0.291s0.289-0.421,0.289-0.68v-3.933&#10;&#9;&#9;c0-0.258-0.096-0.486-0.289-0.68c-0.193-0.194-0.418-0.291-0.674-0.291h-3.949v-5.105c0-0.256-0.08-0.457-0.239-0.602&#10;&#9;&#9;c-0.16-0.144-0.368-0.216-0.623-0.216h-0.143l-5.839,1.011c-0.256,0.065-0.48,0.177-0.671,0.337&#10;&#9;&#9;c-0.191,0.161-0.287,0.369-0.287,0.626v3.949h-3.852c-0.258,0-0.49,0.105-0.699,0.313c-0.209,0.209-0.313,0.442-0.313,0.698v3.179&#10;&#9;&#9;c0,0.257,0.104,0.474,0.313,0.65c0.209,0.177,0.441,0.297,0.699,0.361l3.852,0.626v13.966c0,1.702,0.176,3.09,0.526,4.165&#10;&#9;&#9;c0.351,1.076,0.862,1.919,1.532,2.529c0.67,0.61,1.508,1.019,2.513,1.228c1.005,0.208,2.162,0.313,3.472,0.313&#10;&#9;&#9;c0.705,0,1.332-0.033,1.878-0.096c0.545-0.064,1.187-0.159,1.926-0.287C333.591,49.715,333.896,49.396,333.896,48.855&#10;&#9;&#9; M312.899,48.747V32.71c0-1.508-0.121-2.929-0.361-4.261c-0.241-1.332-0.675-2.488-1.301-3.468c-0.626-0.979-1.493-1.758-2.6-2.335&#10;&#9;&#9;c-1.108-0.578-2.528-0.867-4.262-0.867c-1.541,0-2.906,0.186-4.094,0.558c-1.188,0.372-2.44,1.027-3.756,1.965v-1.167&#10;&#9;&#9;c0-0.258-0.096-0.485-0.289-0.679c-0.192-0.194-0.417-0.292-0.674-0.292h-5.394c-0.257,0-0.481,0.096-0.674,0.289&#10;&#9;&#9;c-0.192,0.193-0.289,0.418-0.289,0.674v25.62c0,0.257,0.104,0.49,0.313,0.698c0.209,0.209,0.441,0.313,0.699,0.313h5.827&#10;&#9;&#9;c0.256,0,0.481-0.104,0.674-0.312c0.192-0.208,0.289-0.44,0.289-0.697V29.817c0.834-0.448,1.621-0.816,2.359-1.104&#10;&#9;&#9;c0.739-0.289,1.461-0.433,2.168-0.433c0.738,0,1.34,0.072,1.805,0.217c0.465,0.144,0.827,0.392,1.084,0.745&#10;&#9;&#9;c0.257,0.352,0.433,0.816,0.53,1.392c0.096,0.577,0.144,1.282,0.144,2.115v16c0,0.257,0.097,0.489,0.289,0.697&#10;&#9;&#9;c0.193,0.208,0.417,0.312,0.674,0.312h5.827c0.257,0,0.49-0.104,0.699-0.313C312.794,49.237,312.899,49.004,312.899,48.747&#10;&#9;&#9; M276.444,37.671c0,3.949-1.421,5.923-4.262,5.923c-1.405,0-2.474-0.497-3.208-1.493c-0.735-0.995-1.102-2.472-1.102-4.43V34.3&#10;&#9;&#9;c0-1.958,0.367-3.427,1.102-4.407c0.734-0.979,1.803-1.469,3.208-1.469c2.841,0,4.262,1.959,4.262,5.876V37.671z M284.246,34.3&#10;&#9;&#9;c0-1.927-0.266-3.66-0.797-5.201c-0.531-1.541-1.303-2.849-2.316-3.925c-1.013-1.075-2.268-1.91-3.763-2.504&#10;&#9;&#9;c-1.496-0.594-3.226-0.891-5.188-0.891c-1.962,0-3.691,0.297-5.187,0.891c-1.496,0.594-2.759,1.429-3.788,2.504&#10;&#9;&#9;c-1.03,1.076-1.81,2.384-2.34,3.925c-0.532,1.541-0.797,3.274-0.797,5.201v3.371c0,1.926,0.265,3.66,0.797,5.201&#10;&#9;&#9;c0.53,1.541,1.31,2.849,2.34,3.925c1.029,1.076,2.292,1.91,3.788,2.504c1.496,0.593,3.225,0.891,5.187,0.891&#10;&#9;&#9;c1.962,0,3.692-0.298,5.188-0.891c1.495-0.594,2.75-1.428,3.763-2.504s1.785-2.384,2.316-3.925&#10;&#9;&#9;c0.531-1.541,0.797-3.275,0.797-5.201V34.3z M257.518,48.362v-4.286c0-0.257-0.089-0.458-0.265-0.602&#10;&#9;&#9;c-0.177-0.145-0.394-0.217-0.65-0.217h-0.097c-0.899,0.096-1.757,0.177-2.576,0.241c-0.819,0.064-1.919,0.096-3.299,0.096&#10;&#9;&#9;c-0.546,0-1.059-0.088-1.541-0.265c-0.482-0.176-0.899-0.481-1.252-0.915c-0.354-0.433-0.634-1.011-0.843-1.733&#10;&#9;&#9;c-0.209-0.723-0.313-1.614-0.313-2.673v-4.045c0-1.06,0.104-1.951,0.313-2.673c0.209-0.723,0.489-1.3,0.843-1.734&#10;&#9;&#9;c0.353-0.433,0.77-0.738,1.252-0.915c0.482-0.176,0.995-0.265,1.541-0.265c1.38,0,2.48,0.033,3.299,0.097&#10;&#9;&#9;c0.819,0.064,1.677,0.144,2.576,0.24h0.097c0.256,0,0.473-0.072,0.65-0.216c0.176-0.145,0.265-0.345,0.265-0.602v-4.286&#10;&#9;&#9;c0-0.353-0.081-0.602-0.241-0.747c-0.161-0.144-0.418-0.265-0.771-0.361c-0.674-0.16-1.549-0.32-2.624-0.482&#10;&#9;&#9;c-1.076-0.16-2.336-0.24-3.781-0.24c-3.403,0-6.124,1.043-8.162,3.13c-2.039,2.087-3.058,5.105-3.058,9.054v4.045&#10;&#9;&#9;c0,3.949,1.019,6.967,3.058,9.053c2.038,2.088,4.759,3.131,8.162,3.131c1.445,0,2.705-0.081,3.781-0.241&#10;&#9;&#9;c1.075-0.161,1.95-0.321,2.624-0.482c0.353-0.096,0.61-0.216,0.771-0.361C257.437,48.964,257.518,48.715,257.518,48.362&#10;&#9;&#9; M233.824,48.747V32.71c0-1.508-0.12-2.929-0.361-4.261c-0.241-1.332-0.674-2.488-1.3-3.468c-0.626-0.979-1.493-1.758-2.601-2.335&#10;&#9;&#9;c-1.107-0.578-2.528-0.867-4.262-0.867c-1.541,0-2.906,0.186-4.093,0.558c-1.188,0.372-2.44,1.027-3.756,1.965v-1.167&#10;&#9;&#9;c0-0.258-0.097-0.485-0.289-0.679c-0.193-0.194-0.418-0.292-0.675-0.292h-5.393c-0.258,0-0.482,0.096-0.674,0.289&#10;&#9;&#9;c-0.193,0.193-0.289,0.418-0.289,0.674v25.62c0,0.257,0.103,0.49,0.313,0.698c0.208,0.209,0.441,0.313,0.698,0.313h5.827&#10;&#9;&#9;c0.257,0,0.482-0.104,0.674-0.312c0.193-0.208,0.289-0.44,0.289-0.697V29.817c0.835-0.448,1.621-0.816,2.36-1.104&#10;&#9;&#9;c0.738-0.289,1.46-0.433,2.167-0.433c0.738,0,1.34,0.072,1.806,0.217c0.465,0.144,0.826,0.392,1.083,0.745&#10;&#9;&#9;c0.257,0.352,0.434,0.816,0.53,1.392c0.096,0.577,0.145,1.282,0.145,2.115v16c0,0.257,0.096,0.489,0.289,0.697&#10;&#9;&#9;c0.192,0.208,0.416,0.312,0.674,0.312h5.827c0.256,0,0.489-0.104,0.698-0.313C233.72,49.237,233.824,49.004,233.824,48.747&#10;&#9;&#9; M196.695,43.257c-0.578,0.289-1.197,0.538-1.854,0.746c-0.659,0.21-1.357,0.313-2.095,0.313c-1.028,0-1.79-0.144-2.288-0.433&#10;&#9;&#9;c-0.498-0.289-0.746-0.947-0.746-1.974v-0.434c0-0.578,0.064-1.091,0.193-1.541c0.128-0.449,0.353-0.819,0.674-1.108&#10;&#9;&#9;c0.32-0.288,0.754-0.505,1.3-0.65c0.546-0.144,1.236-0.216,2.071-0.216h2.745V43.257z M204.352,31.603&#10;&#9;&#9;c0-1.765-0.265-3.267-0.795-4.503c-0.529-1.235-1.276-2.247-2.239-3.034c-0.963-0.786-2.143-1.364-3.54-1.733&#10;&#9;&#9;c-1.396-0.369-2.961-0.554-4.695-0.554c-1.606,0-3.171,0.113-4.695,0.337c-1.526,0.225-2.738,0.45-3.636,0.674&#10;&#9;&#9;c-0.61,0.161-0.915,0.514-0.915,1.059v3.901c0,0.322,0.08,0.547,0.241,0.674c0.16,0.129,0.368,0.193,0.626,0.193h0.24&#10;&#9;&#9;c0.386-0.032,0.867-0.072,1.445-0.12c0.578-0.048,1.228-0.088,1.951-0.121c0.722-0.031,1.476-0.055,2.263-0.072&#10;&#9;&#9;c0.786-0.016,1.565-0.024,2.336-0.024c1.123,0,2.006,0.209,2.648,0.626c0.642,0.418,0.963,1.317,0.963,2.697v1.734h-2.6&#10;&#9;&#9;c-4.142,0-7.152,0.65-9.03,1.95c-1.878,1.3-2.817,3.363-2.817,6.188v0.434c0,1.573,0.233,2.889,0.698,3.948&#10;&#9;&#9;c0.465,1.06,1.084,1.911,1.854,2.553c0.771,0.642,1.645,1.1,2.625,1.372c0.979,0.273,1.999,0.41,3.058,0.41&#10;&#9;&#9;c1.445,0,2.689-0.193,3.732-0.578c1.043-0.385,2.03-0.915,2.962-1.589v0.77c0,0.257,0.096,0.482,0.289,0.674&#10;&#9;&#9;c0.193,0.193,0.417,0.289,0.674,0.289h5.394c0.256,0,0.481-0.096,0.674-0.289c0.193-0.192,0.289-0.417,0.289-0.674V31.603z&#10;&#9;&#9; M169.968,39.212c0,1.348-0.474,2.392-1.421,3.13c-0.947,0.739-2.657,1.108-5.129,1.108h-0.794c-0.37,0-0.755-0.008-1.156-0.024&#10;&#9;&#9;c-0.402-0.016-0.787-0.025-1.156-0.025h-0.842v-9.005h5.393c1.926,0,3.258,0.426,3.997,1.276c0.738,0.851,1.108,1.854,1.108,3.01&#10;&#9;&#9;V39.212z M169.775,24.861c0,0.514-0.08,1.004-0.241,1.469c-0.161,0.465-0.425,0.866-0.794,1.204&#10;&#9;&#9;c-0.37,0.337-0.867,0.61-1.493,0.818c-0.626,0.209-1.421,0.313-2.384,0.313h-5.393v-8.331c0.16,0,0.409-0.008,0.746-0.024&#10;&#9;&#9;c0.337-0.016,0.69-0.024,1.059-0.024h1.06h0.794c2.472,0,4.198,0.313,5.177,0.939c0.979,0.626,1.469,1.597,1.469,2.913V24.861z&#10;&#9;&#9; M177.962,38.682c0-1.669-0.394-3.114-1.18-4.334c-0.787-1.22-1.822-2.151-3.106-2.793c1.284-0.642,2.279-1.59,2.986-2.842&#10;&#9;&#9;c0.706-1.252,1.059-2.664,1.059-4.237v-0.867c0-1.927-0.369-3.532-1.107-4.816c-0.739-1.284-1.775-2.312-3.107-3.082&#10;&#9;&#9;c-1.332-0.771-2.93-1.324-4.791-1.662c-1.863-0.337-3.933-0.505-6.213-0.505c-0.77,0-1.573,0.016-2.407,0.048&#10;&#9;&#9;c-0.836,0.032-1.646,0.072-2.432,0.12c-0.787,0.048-1.51,0.105-2.167,0.169c-0.659,0.065-1.197,0.129-1.614,0.192&#10;&#9;&#9;c-0.931,0.162-1.589,0.45-1.974,0.867c-0.385,0.418-0.578,1.173-0.578,2.264v29.28c0,1.091,0.2,1.846,0.602,2.263&#10;&#9;&#9;c0.401,0.418,1.083,0.706,2.047,0.867c0.481,0.096,1.059,0.176,1.733,0.241c0.674,0.064,1.404,0.12,2.191,0.168&#10;&#9;&#9;c0.787,0.048,1.597,0.088,2.432,0.121c0.835,0.031,1.653,0.048,2.456,0.048c2.087,0,4.053-0.161,5.9-0.482&#10;&#9;&#9;c1.845-0.32,3.45-0.891,4.815-1.71c1.365-0.818,2.448-1.926,3.251-3.322c0.802-1.397,1.204-3.155,1.204-5.274V38.682z"/>
    <g>
      <path fill="#FFFFFF" d="M111.197,13.496H74.411L52.094,39.608h-44l11.876-13.99h-2.404h-7.519H5.835&#10;&#9;&#9;&#9;C2.626,25.618,0,28.311,0,31.601v0v11.555v1.07c0,3.291,2.626,5.984,5.835,5.984h1.639h61.221h4.389c3.209,0,7.593-2,9.742-4.444&#10;&#9;&#9;&#9;l10.172-11.57l18.037-20.517L111.197,13.496z"/>
      <polygon fill="#FFFFFF" points="105.356,20.145 101.451,24.591 101.451,24.591 105.356,20.145 &#9;&#9;"/>
      <path fill="#FFFFFF" d="M118.959,0H51.902c-3.209,0-7.599,1.994-9.755,4.432l-28.55,32.282h36.646l22.714-26.106h43.804&#10;&#9;&#9;&#9;l-11.766,13.983h13.964c3.209,0,5.835-2.693,5.835-5.984V5.984C124.794,2.693,122.168,0,118.959,0z"/>
      <polygon fill="#FFFFFF" points="109.24,15.724 107.292,17.941 106.772,18.533 &#9;&#9;"/>
    </g>
  </g>
</svg>