<?xml version="1.0" encoding="UTF-8"?>
<svg width="58px" height="30px" viewBox="0 0 58 30" version="1.1" xmlns="http://www.w3.org/2000/svg" xmlns:xlink="http://www.w3.org/1999/xlink">
    <!-- Generator: Sketch 55.2 (78181) - https://sketchapp.com -->
    <title>Blik logo</title>
    <desc>Created with Sketch.</desc>
    <defs>
        <path d="M4.81760131,0 C2.15699346,0 0,2.12049689 0,4.73608696 L0,4.73608696 L0,25.263913 C0,27.8795031 2.15699346,30 4.81760131,30 L4.81760131,30 L53.1823987,30 C55.8430065,30 58,27.8795031 58,25.263913 L58,25.263913 L58,4.73608696 C58,2.12049689 55.8430065,0 53.1823987,0 L53.1823987,0 L4.81760131,0 Z" id="path-1"></path>
        <linearGradient x1="50%" y1="100%" x2="50%" y2="0%" id="linearGradient-3">
            <stop stop-color="#4D4D4F" offset="0%"></stop>
            <stop stop-color="#000000" offset="100%"></stop>
        </linearGradient>
        <radialGradient cx="20.3705659%" cy="18.0870534%" fx="20.3705659%" fy="18.0870534%" r="117.639519%" gradientTransform="translate(0.203706,0.180871),scale(0.983106,1.000000),rotate(54.479781),translate(-0.203706,-0.180871)" id="radialGradient-4">
            <stop stop-color="#FF0000" offset="0%"></stop>
            <stop stop-color="#E83E49" offset="55.9042441%"></stop>
            <stop stop-color="#FF00FF" offset="100%"></stop>
        </radialGradient>
        <path d="M3.67238562,6.95664596 C5.60913072,6.95664596 7.17892157,5.41322981 7.17892157,3.50925466 C7.17892157,1.60546584 5.60913072,0.0620496894 3.67238562,0.0620496894 C1.73564052,0.0620496894 0.165849673,1.60546584 0.165849673,3.50925466 C0.165849673,5.41322981 1.73564052,6.95664596 3.67238562,6.95664596 Z" id="path-5"></path>
    </defs>
    <g id="Page-1" stroke="none" stroke-width="1" fill="none" fill-rule="evenodd">
        <g id="SPB_&amp;_AltPay_NewAssets" transform="translate(-100.000000, -159.000000)">
            <g id="Blik-logo" transform="translate(100.000000, 159.000000)">
                <g id="Group-3">
                    <mask id="mask-2" fill="white">
                        <use xlink:href="#path-1"></use>
                    </mask>
                    <g id="Clip-2"></g>
                    <path d="M4.81760131,0 C2.15699346,0 0,2.12049689 0,4.73608696 L0,4.73608696 L0,25.263913 C0,27.8795031 2.15699346,30 4.81760131,30 L4.81760131,30 L53.1823987,30 C55.8430065,30 58,27.8795031 58,25.263913 L58,25.263913 L58,4.73608696 C58,2.12049689 55.8430065,0 53.1823987,0 L53.1823987,0 L4.81760131,0 Z" id="Fill-1" fill="url(#linearGradient-3)" mask="url(#mask-2)"></path>
                </g>
                <g id="Group-9" transform="translate(6.254902, 4.472050)" fill="#FFFFFF">
                    <polygon id="Fill-4" points="17.627451 21.6769565 21.5604575 21.6769565 21.5604575 0.0154658385 17.627451 0.0154658385"></polygon>
                    <polygon id="Fill-6" points="24.9248366 21.6769565 28.8578431 21.6769565 28.8578431 7.32913043 24.9248366 7.32913043"></polygon>
                    <polygon id="Fill-7" points="46.4852941 21.6770124 40.5751699 14.0838447 46.0114379 7.32918634 41.3676471 7.32918634 36.1552288 13.8822298 36.1552288 0.0155217391 32.2222222 0.0155217391 32.2222222 21.6770124 36.1552288 21.6770124 36.1552288 14.3106149 41.3676471 21.6770124"></polygon>
                    <path d="M7.60539216,17.9735963 C5.65575817,17.9735963 4.0751634,16.4197453 4.0751634,14.5030994 C4.0751634,12.5864534 5.65575817,11.0326025 7.60539216,11.0326025 C9.55502614,11.0326025 11.1356209,12.5864534 11.1356209,14.5030994 C11.1356209,16.4197453 9.55502614,17.9735963 7.60539216,17.9735963 M7.60539216,7.16614286 C6.3282549,7.16614286 5.12636601,7.4821677 4.0751634,8.03800621 L4.0751634,0.0155217391 L0.142156863,0.0155217391 L0.142156863,14.5030994 C0.142156863,18.5551491 3.48360131,21.8400559 7.60539216,21.8400559 C11.727183,21.8400559 15.0686275,18.5551491 15.0686275,14.5030994 C15.0686275,10.4510497 11.727183,7.16614286 7.60539216,7.16614286" id="Fill-8"></path>
                </g>
                <g id="Group-12" transform="translate(14.026144, 3.354037)">
                    <mask id="mask-6" fill="white">
                        <use xlink:href="#path-5"></use>
                    </mask>
                    <use id="Clip-11" fill="url(#radialGradient-4)" xlink:href="#path-5"></use>
                    <path d="M3.67238562,6.95664596 C5.60913072,6.95664596 7.17892157,5.41322981 7.17892157,3.50925466 C7.17892157,1.60546584 5.60913072,0.0620496894 3.67238562,0.0620496894 C1.73564052,0.0620496894 0.165849673,1.60546584 0.165849673,3.50925466 C0.165849673,5.41322981 1.73564052,6.95664596 3.67238562,6.95664596 Z" id="Fill-10" mask="url(#mask-6)"></path>
                </g>
            </g>
        </g>
    </g>
</svg>