<?xml version="1.0" encoding="UTF-8"?>
<svg width="62px" height="32px" viewBox="0 0 62 32" version="1.1" xmlns="http://www.w3.org/2000/svg" xmlns:xlink="http://www.w3.org/1999/xlink">
    <!-- Generator: Sketch 55.2 (78181) - https://sketchapp.com -->
    <title>Blik logo Copy</title>
    <desc>Created with Sketch.</desc>
    <defs>
        <path d="M5.13877473,0 C2.30079303,0 0,2.26186335 0,5.05182609 L0,5.05182609 L0,26.9481739 C0,29.7381366 2.30079303,32 5.13877473,32 L5.13877473,32 L56.7278919,32 C59.5658736,32 61.8666667,29.7381366 61.8666667,26.9481739 L61.8666667,26.9481739 L61.8666667,5.05182609 C61.8666667,2.26186335 59.5658736,0 56.7278919,0 L56.7278919,0 L5.13877473,0 Z" id="path-1"></path>
        <path d="M3.91721133,7.42042236 C5.98307277,7.42042236 7.65751634,5.7741118 7.65751634,3.74320497 C7.65751634,1.71249689 5.98307277,0.0661863354 3.91721133,0.0661863354 C1.85134989,0.0661863354 0.176906318,1.71249689 0.176906318,3.74320497 C0.176906318,5.7741118 1.85134989,7.42042236 3.91721133,7.42042236 Z" id="path-3"></path>
    </defs>
    <g id="Page-1" stroke="none" stroke-width="1" fill="none" fill-rule="evenodd">
        <g id="SPB_&amp;_AltPay_NewAssets" transform="translate(-229.000000, -614.000000)">
            <g id="Group-4-Copy" transform="translate(100.000000, 606.000000)">
                <g id="Blik-logo-Copy" transform="translate(129.000000, 8.000000)">
                    <g id="Group-3">
                        <mask id="mask-2" fill="white">
                            <use xlink:href="#path-1"></use>
                        </mask>
                        <g id="Clip-2"></g>
                        <path d="M5.13877473,0 C2.30079303,0 0,2.26186335 0,5.05182609 L0,5.05182609 L0,26.9481739 C0,29.7381366 2.30079303,32 5.13877473,32 L5.13877473,32 L56.7278919,32 C59.5658736,32 61.8666667,29.7381366 61.8666667,26.9481739 L61.8666667,26.9481739 L61.8666667,5.05182609 C61.8666667,2.26186335 59.5658736,0 56.7278919,0 L56.7278919,0 L5.13877473,0 Z" id="Fill-1" fill="#FFFFFF" mask="url(#mask-2)"></path>
                    </g>
                    <g id="Group-9" transform="translate(6.671895, 4.770186)" fill="#000000">
                        <polygon id="Fill-4" points="18.8026144 23.122087 22.9978214 23.122087 22.9978214 0.0164968944 18.8026144 0.0164968944"></polygon>
                        <polygon id="Fill-6" points="26.5864924 23.122087 30.7816993 23.122087 30.7816993 7.81773913 26.5864924 7.81773913"></polygon>
                        <polygon id="Fill-7" points="49.5843137 23.1221466 43.2801813 15.0227677 49.0788671 7.81779876 44.1254902 7.81779876 38.5655773 14.8077118 38.5655773 0.0165565217 34.3703704 0.0165565217 34.3703704 23.1221466 38.5655773 23.1221466 38.5655773 15.2646559 44.1254902 23.1221466"></polygon>
                        <path d="M8.1124183,19.171836 C6.03280871,19.171836 4.34684096,17.514395 4.34684096,15.4699727 C4.34684096,13.4255503 6.03280871,11.7681093 8.1124183,11.7681093 C10.1920279,11.7681093 11.8779956,13.4255503 11.8779956,15.4699727 C11.8779956,17.514395 10.1920279,19.171836 8.1124183,19.171836 M8.1124183,7.64388571 C6.75013856,7.64388571 5.46812375,7.98097888 4.34684096,8.57387329 L4.34684096,0.0165565217 L0.151633987,0.0165565217 L0.151633987,15.4699727 C0.151633987,19.792159 3.71584139,23.2960596 8.1124183,23.2960596 C12.5089952,23.2960596 16.0732026,19.792159 16.0732026,15.4699727 C16.0732026,11.1477863 12.5089952,7.64388571 8.1124183,7.64388571" id="Fill-8"></path>
                    </g>
                    <g id="Group-12" transform="translate(14.961220, 3.577640)">
                        <mask id="mask-4" fill="white">
                            <use xlink:href="#path-3"></use>
                        </mask>
                        <use id="Clip-11" fill="#000000" xlink:href="#path-3"></use>
                        <path d="M3.91721133,7.42042236 C5.98307277,7.42042236 7.65751634,5.7741118 7.65751634,3.74320497 C7.65751634,1.71249689 5.98307277,0.0661863354 3.91721133,0.0661863354 C1.85134989,0.0661863354 0.176906318,1.71249689 0.176906318,3.74320497 C0.176906318,5.7741118 1.85134989,7.42042236 3.91721133,7.42042236 Z" id="Fill-10" mask="url(#mask-4)"></path>
                    </g>
                </g>
            </g>
        </g>
    </g>
</svg>