<svg width="67px" height="30px" viewBox="0 0 67 30" version="1.1" xmlns="http://www.w3.org/2000/svg">
    <g id="Page-1" stroke="none" stroke-width="1" fill="none" fill-rule="evenodd">
        <g id="SPB_&amp;_AltPay_NewAssets" transform="translate(-227.000000, -633.000000)">
            <g id="SPBbutton-iDEAL-Copy-4" transform="translate(100.000000, 624.000000)">
                <g id="Group-38-Copy-4" transform="translate(127.000000, 9.000000)">
                    <polygon id="Fill-1" fill="#FFFFFF" points="5.05326923 29.7934615 8.19288462 29.7934615 8.19288462 0.394615385 5.05326923 0.394615385"></polygon>
                    <polygon id="Fill-3" fill="#FFFFFF" points="9.18288462 29.7934615 10.1561538 29.7934615 10.1561538 0.394615385 9.18288462 0.394615385"></polygon>
                    <polygon id="Fill-4" fill="#FFFFFF" points="11.0036538 29.7934615 12.7453846 29.7934615 12.7453846 0.394615385 11.0036538 0.394615385"></polygon>
                    <polygon id="Fill-5" fill="#FFFFFF" points="14.4248077 29.7934615 15.3980769 29.7934615 15.3980769 0.394615385 14.4248077 0.394615385"></polygon>
                    <polygon id="Fill-6" fill="#FFFFFF" points="15.8209615 29.7934615 16.5709615 29.7934615 16.5709615 0.394615385 15.8209615 0.394615385"></polygon>
                    <polygon id="Fill-7" fill="#FFFFFF" points="2.66596154 29.7934615 3.63923077 29.7934615 3.63923077 0.394615385 2.66596154 0.394615385"></polygon>
                    <polygon id="Fill-8" fill="#FFFFFF" points="0.520384615 29.7934615 2.26211538 29.7934615 2.26211538 0.394615385 0.520384615 0.394615385"></polygon>
                    <polygon id="Fill-9" fill="#FFFFFF" points="21.7707692 29.7934615 24.9103846 29.7934615 24.9103846 0.394615385 21.7707692 0.394615385"></polygon>
                    <polygon id="Fill-10" fill="#FFFFFF" points="25.8998077 29.7934615 26.8730769 29.7934615 26.8730769 0.394615385 25.8998077 0.394615385"></polygon>
                    <polygon id="Fill-11" fill="#FFFFFF" points="27.7211538 29.7934615 29.4628846 29.7934615 29.4628846 0.394615385 27.7211538 0.394615385"></polygon>
                    <polygon id="Fill-12" fill="#FFFFFF" points="31.1417308 29.7934615 32.115 29.7934615 32.115 0.394615385 31.1417308 0.394615385"></polygon>
                    <polygon id="Fill-13" fill="#FFFFFF" points="32.5378846 29.7934615 33.2878846 29.7934615 33.2878846 0.394615385 32.5378846 0.394615385"></polygon>
                    <polygon id="Fill-14" fill="#FFFFFF" points="19.3828846 29.7934615 20.3561538 29.7934615 20.3561538 0.394615385 19.3828846 0.394615385"></polygon>
                    <polygon id="Fill-15" fill="#FFFFFF" points="17.2373077 29.7934615 18.9790385 29.7934615 18.9790385 0.394615385 17.2373077 0.394615385"></polygon>
                    <polygon id="Fill-16" fill="#FFFFFF" points="34.5213462 29.7934615 36.2630769 29.7934615 36.2630769 0.394615385 34.5213462 0.394615385"></polygon>
                    <polygon id="Fill-17" fill="#FFFFFF" points="37.9419231 29.7934615 38.9151923 29.7934615 38.9151923 0.394615385 37.9419231 0.394615385"></polygon>
                    <polygon id="Fill-18" fill="#FFFFFF" points="39.3386538 29.7934615 40.0886538 29.7934615 40.0886538 0.394615385 39.3386538 0.394615385"></polygon>
                    <polygon id="Fill-19" fill="#FFFFFF" points="42.9005769 29.7934615 43.8738462 29.7934615 43.8738462 0.394615385 42.9005769 0.394615385"></polygon>
                    <polygon id="Fill-20" fill="#FFFFFF" points="40.755 29.7934615 42.4967308 29.7934615 42.4967308 0.394615385 40.755 0.394615385"></polygon>
                    <polygon id="Fill-21" fill="#FFFFFF" points="45.1673077 29.7934615 46.1405769 29.7934615 46.1405769 0.394615385 45.1673077 0.394615385"></polygon>
                    <polygon id="Fill-22" fill="#FFFFFF" points="46.5634615 29.7934615 47.3134615 29.7934615 47.3134615 0.394615385 46.5634615 0.394615385"></polygon>
                    <polygon id="Fill-23" fill="#FFFFFF" points="50.1259615 29.7934615 51.0992308 29.7934615 51.0992308 0.394615385 50.1259615 0.394615385"></polygon>
                    <polygon id="Fill-24" fill="#FFFFFF" points="47.9803846 29.7934615 49.7221154 29.7934615 49.7221154 0.394615385 47.9803846 0.394615385"></polygon>
                    <polygon id="Fill-25" fill="#FFFFFF" points="51.9473077 29.7934615 55.0869231 29.7934615 55.0869231 0.394615385 51.9473077 0.394615385"></polygon>
                    <polygon id="Fill-26" fill="#FFFFFF" points="56.0763462 29.7934615 57.0496154 29.7934615 57.0496154 0.394615385 56.0763462 0.394615385"></polygon>
                    <polygon id="Fill-27" fill="#FFFFFF" points="57.8971154 29.7934615 59.6388462 29.7934615 59.6388462 0.394615385 57.8971154 0.394615385"></polygon>
                    <polygon id="Fill-28" fill="#FFFFFF" points="61.3182692 29.7934615 62.2915385 29.7934615 62.2915385 0.394615385 61.3182692 0.394615385"></polygon>
                    <polygon id="Fill-29" fill="#FFFFFF" points="62.7144231 29.7934615 63.4644231 29.7934615 63.4644231 0.394615385 62.7144231 0.394615385"></polygon>
                    <polygon id="Fill-30" fill="#FFFFFF" points="64.6978846 29.7934615 66.4396154 29.7934615 66.4396154 0.394615385 64.6978846 0.394615385"></polygon>
                    <polygon id="Fill-31" fill="#000000" points="4.07192308 29.8598077 64.2536538 29.8598077 64.2536538 13.3828846 4.07192308 13.3828846"></polygon>
                    <path d="M5.20673077,29.2280769 L5.20673077,14.3203846 L10.8005769,14.3203846 C11.9388462,14.3203846 12.8509615,14.4698077 13.5415385,14.7715385 C14.2286538,15.0732692 14.7669231,15.5382692 15.1551923,16.1665385 C15.5475,16.7913462 15.7419231,17.4467308 15.7419231,18.1338462 C15.7419231,18.7690385 15.5682692,19.3696154 15.225,19.9315385 C14.8811538,20.4940385 14.3607692,20.9486538 13.6632692,21.2953846 C14.5655769,21.5590385 15.2596154,22.0101923 15.7419231,22.6488462 C16.2276923,23.2834615 16.4705769,24.0369231 16.4705769,24.9046154 C16.4705769,25.605 16.3211538,26.2540385 16.0263462,26.8546154 C15.7315385,27.4546154 15.3669231,27.9161538 14.9330769,28.2426923 C14.4992308,28.5651923 13.9546154,28.8115385 13.3021154,28.9782692 C12.6461538,29.145 11.8448077,29.2280769 10.8940385,29.2280769 L5.20673077,29.2280769 Z M7.18442308,20.5875 L10.4082692,20.5875 C11.2828846,20.5875 11.9105769,20.5286538 12.2890385,20.4138462 C12.7921154,20.2644231 13.1705769,20.0151923 13.4238462,19.6678846 C13.6771154,19.3211538 13.8057692,18.8873077 13.8057692,18.3628846 C13.8057692,17.8667308 13.6875,17.4294231 13.4480769,17.055 C13.2121154,16.6765385 12.8723077,16.4163462 12.4315385,16.2773077 C11.9907692,16.1388462 11.2338462,16.0690385 10.1653846,16.0690385 L7.18442308,16.0690385 L7.18442308,20.5875 Z M7.18442308,27.4788462 L10.8975,27.4788462 C11.5361538,27.4788462 11.9838462,27.4546154 12.2440385,27.4061538 C12.6951923,27.3265385 13.0771154,27.1909615 13.3823077,27 C13.6875,26.8096154 13.9373077,26.5321154 14.1351923,26.1675 C14.3330769,25.8028846 14.43,25.3834615 14.43,24.9080769 C14.43,24.3490385 14.2880769,23.8667308 13.9996154,23.4536538 C13.7151923,23.0405769 13.3194231,22.7526923 12.8128846,22.5859615 C12.3098077,22.4198077 11.5811538,22.3361538 10.6338462,22.3361538 L7.18442308,22.3361538 L7.18442308,27.4788462 Z" id="Fill-32" fill="#FFFFFF"></path>
                    <path d="M18.2613462,23.8251923 C18.2613462,21.8296154 18.8163462,20.3515385 19.9303846,19.3903846 C20.8569231,18.5919231 21.9917308,18.1932692 23.3278846,18.1932692 C24.8094231,18.1932692 26.0238462,18.6790385 26.9676923,19.6505769 C27.9080769,20.6186538 28.38,21.9617308 28.38,23.6723077 C28.38,25.0603846 28.1717308,26.1501923 27.7557692,26.9446154 C27.3392308,27.7396154 26.7317308,28.3569231 25.9338462,28.7976923 C25.1388462,29.2384615 24.2682692,29.4571154 23.3278846,29.4571154 C21.8146154,29.4571154 20.5932692,28.9748077 19.6598077,28.0067308 C18.7263462,27.0386538 18.2613462,25.6436538 18.2613462,23.8251923 Z M20.1351923,23.8286538 C20.1351923,25.2098077 20.4369231,26.2436538 21.0409615,26.9273077 C21.6478846,27.6144231 22.4082692,27.9582692 23.3278846,27.9582692 C24.2365385,27.9582692 24.9934615,27.6144231 25.6003846,26.9238462 C26.2044231,26.2332692 26.5061538,25.1821154 26.5061538,23.7698077 C26.5061538,22.4371154 26.2009615,21.4275 25.5934615,20.7438462 C24.9865385,20.0567308 24.2301923,19.7128846 23.3278846,19.7128846 C22.4082692,19.7128846 21.6478846,20.0532692 21.0409615,20.7363462 C20.4369231,21.42 20.1351923,22.4509615 20.1351923,23.8286538 Z" id="Fill-33" fill="#FFFFFF"></path>
                    <polygon id="Fill-34" fill="#FFFFFF" points="30.4863462 29.2280769 32.3186538 29.2280769 32.3186538 14.3203846 30.4863462 14.3203846"></polygon>
                    <path d="M42.5244231,25.7301923 L44.4190385,25.98 C44.1242308,27.0801923 43.5726923,27.9369231 42.7673077,28.5444231 C41.9625,29.1519231 40.935,29.4571154 39.6825,29.4571154 C38.1069231,29.4571154 36.8578846,28.9713462 35.9348077,27.9998077 C35.0117308,27.0317308 34.5501923,25.6678846 34.5501923,23.9151923 C34.5501923,22.1042308 35.0151923,20.6948077 35.9486538,19.6955769 C36.8821154,18.6928846 38.0930769,18.1932692 39.5815385,18.1932692 C41.0221154,18.1932692 42.1984615,18.6825 43.1111538,19.6644231 C44.0232692,20.6463462 44.4813462,22.0275 44.4813462,23.8078846 C44.4813462,23.9151923 44.4778846,24.0784615 44.4709615,24.2936538 L36.4240385,24.2936538 C36.4932692,25.4769231 36.8267308,26.3861538 37.4301923,27.0144231 C38.0307692,27.6421154 38.7836538,27.9582692 39.6825,27.9582692 C40.3523077,27.9582692 40.9246154,27.7811538 41.3965385,27.4269231 C41.8719231,27.0732692 42.2469231,26.5073077 42.5244231,25.7301923 Z M36.5278846,22.7942308 L42.5451923,22.7942308 C42.4655769,21.8855769 42.2330769,21.2053846 41.8546154,20.7507692 C41.2753846,20.0463462 40.5184615,19.6921154 39.5919231,19.6921154 C38.7525,19.6921154 38.0480769,19.9730769 37.4751923,20.5355769 C36.9063462,21.0975 36.5907692,21.8503846 36.5278846,22.7942308 Z" id="Fill-35" fill="#FFFFFF"></path>
                    <path d="M50.7103846,27.5936538 L50.9601923,29.2107692 C50.4467308,29.3186538 49.9851923,29.3740385 49.5825,29.3740385 C48.9201923,29.3740385 48.4061538,29.2696154 48.0386538,29.0578846 C47.6740385,28.8461538 47.4173077,28.5721154 47.2684615,28.2288462 C47.1190385,27.885 47.0463462,27.1632692 47.0463462,26.0630769 L47.0463462,19.8380769 L45.6928846,19.8380769 L45.6928846,18.4223077 L47.0463462,18.4223077 L47.0463462,15.75 L48.8780769,14.6503846 L48.8780769,18.4223077 L50.7103846,18.4223077 L50.7103846,19.8380769 L48.8780769,19.8380769 L48.8780769,26.1675 C48.8780769,26.6913462 48.9092308,27.0282692 48.9755769,27.1771154 C49.0378846,27.3265385 49.1423077,27.4442308 49.2876923,27.5348077 C49.4336538,27.6213462 49.6419231,27.6663462 49.9125,27.6663462 C50.1138462,27.6663462 50.3809615,27.6421154 50.7103846,27.5936538" id="Fill-36" fill="#FFFFFF"></path>
                    <path d="M51.8313462,23.8251923 C51.8313462,21.8296154 52.3869231,20.3515385 53.5003846,19.3903846 C54.4269231,18.5919231 55.5617308,18.1932692 56.8978846,18.1932692 C58.3794231,18.1932692 59.5944231,18.6790385 60.5382692,19.6505769 C61.4786538,20.6186538 61.9505769,21.9617308 61.9505769,23.6723077 C61.9505769,25.0603846 61.7423077,26.1501923 61.3257692,26.9446154 C60.9092308,27.7396154 60.3023077,28.3569231 59.5038462,28.7976923 C58.7094231,29.2384615 57.8382692,29.4571154 56.8978846,29.4571154 C55.3851923,29.4571154 54.1632692,28.9748077 53.2298077,28.0067308 C52.2963462,27.0386538 51.8313462,25.6436538 51.8313462,23.8251923 Z M53.7051923,23.8286538 C53.7051923,25.2098077 54.0075,26.2436538 54.6109615,26.9273077 C55.2184615,27.6144231 55.9782692,27.9582692 56.8978846,27.9582692 C57.8071154,27.9582692 58.5634615,27.6144231 59.1709615,26.9238462 C59.7744231,26.2332692 60.0767308,25.1821154 60.0767308,23.7698077 C60.0767308,22.4371154 59.7709615,21.4275 59.1640385,20.7438462 C58.5565385,20.0567308 57.8001923,19.7128846 56.8978846,19.7128846 C55.9782692,19.7128846 55.2184615,20.0532692 54.6109615,20.7363462 C54.0075,21.42 53.7051923,22.4509615 53.7051923,23.8286538 Z" id="Fill-37" fill="#FFFFFF"></path>
                </g>
            </g>
        </g>
    </g>
</svg>
