<?xml version="1.0" encoding="utf-8"?>
<svg width="52px" height="32px" viewBox="0 0 52 32" version="1.1" xmlns="http://www.w3.org/2000/svg">
  <title>Page 1</title>
  <desc>Created with Sketch.</desc>
  <defs>
    <polygon id="path-1" points="0 0.0413086681 15.9297534 0.0413086681 15.9297534 15.8975455 0 15.8975455"/>
    <polygon id="path-3" points="0.0130133508 0.00161099366 2.2813355 0.00161099366 2.2813355 2.85412262 0.0130133508 2.85412262"/>
  </defs>
  <g id="Page-1" stroke="none" stroke-width="1" fill="none" fill-rule="evenodd">
    <g id="SPB_&amp;_AltPay_NewAssets" transform="matrix(1.067008, 0, 0, 1.067008, -252.880768, -656.209595)">
      <g id="Group-Copy" transform="translate(101.000000, 606.000000)">
        <g id="Page-1" transform="translate(136.000000, 9.000000)">
          <path d="M38.4226268,15.000019 L34.5197035,15.000019 C34.0856489,15.000019 33.7324538,14.6557484 33.7324538,14.2247759 C33.7324538,13.7938034 34.0856489,13.4143953 34.5197035,13.4143953 L40.4616385,13.4143953 L40.4616385,10.4968478 L34.5197035,10.4968478 C32.4458375,10.4968478 30.7584915,12.1797653 30.7584915,14.2389197 C30.7584915,16.298074 32.4458375,17.9809915 34.5197035,17.9809915 L38.3696125,17.9809915 C38.8037308,17.9809915 39.1569259,18.3238668 39.1569259,18.7548393 C39.1569259,19.1858118 38.8037308,19.5031903 38.3696125,19.5031903 L30.1140364,19.5031903 C29.4131261,20.8351142 28.7315865,21.9767632 27.3480533,22.5475877 L38.4226268,22.5475877 C40.4616385,22.5183488 42.1295501,20.8007378 42.1295501,18.7597865 C42.1295501,16.7189619 40.4616385,15.0292579 38.4226268,15.000019" id="Fill-1" fill="#FFFFFF"/>
          <path d="M23.4611809,19.5031903 L20.4538298,19.5031903 L20.4538298,16.4990042 C20.4538298,14.8202727 21.7965827,13.4544799 23.4611809,13.4544799 C25.1257791,13.4544799 26.4800014,14.8202727 26.4800014,16.4990042 C26.4800014,18.1777992 25.1257791,19.5031903 23.4611809,19.5031903 M23.4611809,10.4968478 C20.1532667,10.4968478 17.4590313,13.1946279 17.4590313,16.5095328 L17.4590313,16.6363827 L17.4590313,29.0169323 L20.4538298,29.0169323 L20.4538298,22.5475877 L23.4549364,22.5475877 C26.7629143,22.5475877 29.4476555,19.8139091 29.4476555,16.4990042 C29.4476555,13.1840994 26.7691588,10.4968478 23.4611809,10.4968478" id="Fill-3" fill="#FFFFFF"/>
          <g id="Group-7" transform="translate(0.000000, 8.552791)">
            <mask id="mask-2" fill="white">
              <polygon id="" points="0 0.0413086681 15.9297534 0.0413086681 15.9297534 15.8975455 0 15.8975455" transform="matrix(1, 0, 0, 1, 0, 0)"/>
            </mask>
            <g id="Clip-6"/>
            <path d="M7.97779896,13.994797 C5.14612146,13.994797 2.76551157,11.9863192 2.12124759,9.36242918 C2.12124759,9.36242918 1.93512406,8.49490275 1.93512406,7.92363425 C1.93512406,7.35236575 2.11130741,6.47589641 2.11130741,6.47589641 C2.76015917,3.85847569 5.13790169,1.90942706 7.9649277,1.90942706 C11.2898549,1.90942706 14.01818,4.59978647 14.01818,7.90930021 L14.01818,9.3647759 L5.18448036,9.3647759 C5.70614876,10.3795751 6.76120988,10.9503996 7.97779896,10.9503996 L15.9188575,10.9503996 L15.9297534,2.36779915 C15.9297534,1.08820085 14.8780694,0.0413086681 13.5925363,0.0413086681 L2.33731912,0.0413086681 C1.05178596,0.0413086681 -2.54876463e-05,1.05648837 -2.54876463e-05,2.33608668 L-2.54876463e-05,13.5393425 C-2.54876463e-05,14.8189408 1.05178596,15.8975455 2.33731912,15.8975455 L13.5925363,15.8975455 C14.7461709,15.8975455 15.7085207,15.0730211 15.8944531,13.994797 L7.97779896,13.994797 Z" id="Fill-5" fill="#FFFFFF" mask="url(#mask-2)"/>
          </g>
          <path d="M7.96493407,13.3101374 C6.75299649,13.3101374 5.6990186,14.0486575 5.17524746,15.0000317 L10.7547481,15.0000317 C10.230977,14.0486575 9.17706281,13.3101374 7.96493407,13.3101374" id="Fill-8" fill="#FFFFFF"/>
          <path d="M13.0624187,4.95090698 C13.0624187,2.21659408 10.7794902,1.90274841e-05 7.96342393,1.90274841e-05 C5.194,1.90274841e-05 2.94159298,2.14409937 2.86761508,4.81574841 C2.86640442,4.82703805 2.86736021,4.83801057 2.86736021,4.84961734 L2.86736021,6.33743975 C2.86736021,6.51541015 3.01295839,6.69135095 3.19621456,6.69135095 L5.07216905,6.69135095 C5.25542523,6.69135095 5.41612484,6.51541015 5.41612484,6.33743975 L5.41612484,4.95090698 C5.41612484,3.58549471 6.55860858,2.47460677 7.96488947,2.47460677 C9.37117035,2.47460677 10.5136541,3.58549471 10.5136541,4.95090698 L10.5136541,6.33743975 C10.5136541,6.51541015 10.6623108,6.69135095 10.845567,6.69135095 L12.7215852,6.69135095 C12.9048414,6.69135095 13.0624187,6.51541015 13.0624187,6.33743975 L13.0624187,4.95090698 Z" id="Fill-10" fill="#FFFFFF"/>
          <path d="M26.0828975,25.9342579 C26.0828975,26.0654207 26.1845932,26.1253573 26.2938715,26.1253573 C26.4106049,26.1253573 26.5650601,26.0316786 26.5650601,25.8592262 C26.5650601,25.735611 26.4745789,25.6681268 26.3729469,25.6681268 C26.2373527,25.6681268 26.0828975,25.7542579 26.0828975,25.9342579 Z M25.1788507,25.938 C25.1788507,26.0654207 25.2768507,26.1253573 25.3823059,26.1253573 C25.5141407,26.1253573 25.6573176,26.0316786 25.6573176,25.8554841 C25.6573176,25.7318055 25.5743553,25.6681268 25.4651407,25.6681268 C25.3296101,25.6681268 25.1788507,25.7542579 25.1788507,25.938 Z M26.8211472,26.4165412 L26.5499586,27.9449556 C26.4143644,28.7174715 25.9058221,29.0712558 25.2165087,29.0712558 C24.6327142,29.0712558 24.1806908,28.692482 24.3125893,27.9462241 L24.5837142,26.4165412 L25.0019027,26.4165412 L24.7305867,27.9449556 C24.6477519,28.4213404 24.8624853,28.6925455 25.2692681,28.6925455 C25.687393,28.6925455 26.0452395,28.4449979 26.1318338,27.9462241 L26.4030224,26.4165412 L26.8211472,26.4165412 Z" id="Fill-12" fill="#FFFFFF"/>
          <path d="M27.537898,28.1988584 C27.5228603,28.5062791 27.7224286,28.7049894 28.012478,28.7049894 C28.3778434,28.7049894 28.7318668,28.4236998 28.7544871,27.9964059 C28.7695886,27.6851797 28.5661971,27.5014376 28.2836029,27.5014376 C27.9219969,27.5014376 27.5603909,27.7902114 27.537898,28.1988584 Z M27.8317069,26.4164905 L27.6433532,27.4726427 C27.8052635,27.2552854 28.1292114,27.140296 28.3552231,27.140296 C28.8222843,27.140296 29.1462322,27.4127696 29.1462322,27.9188372 C29.1462322,28.6349683 28.6452088,29.0656237 28.0049592,29.0656237 C27.7563272,29.0656237 27.5453532,28.9736575 27.4173415,28.7412685 L27.3457849,29.0169133 L26.9803558,29.0169133 L27.4436575,26.4164905 L27.8317069,26.4164905 Z" id="Fill-14" fill="#FFFFFF"/>
          <path d="M31.0981782,27.9387082 C31.1283173,27.6215835 30.9399636,27.4925137 30.6272939,27.4925137 C30.3448908,27.4925137 30.0849805,27.6215835 29.9718791,27.9387082 L31.0981782,27.9387082 Z M29.9079051,28.255833 C29.8928036,28.5095328 30.0924356,28.7166786 30.431485,28.7166786 C30.6198388,28.7166786 30.8683433,28.6433594 31.0039376,28.5159387 L31.2149116,28.7586025 C30.9852042,28.9684123 30.6461547,29.0728732 30.3599285,29.0728732 C29.8250702,29.0728732 29.5124005,28.7540359 29.5124005,28.2666152 C29.5124005,27.6179683 30.0246385,27.1346068 30.6800533,27.1346068 C31.279013,27.1346068 31.6179987,27.4947336 31.4146073,28.255833 L29.9079051,28.255833 Z" id="Fill-16" fill="#FFFFFF"/>
          <path d="M32.4510433,27.1776089 L32.4321824,27.4221121 C32.613081,27.1856638 32.8315101,27.1374609 33.0310784,27.1374609 C33.2119133,27.1374609 33.3738235,27.2013298 33.4604815,27.2950085 L33.2270147,27.6324926 C33.1441161,27.5577146 33.0612813,27.5202304 32.9181044,27.5202304 C32.6506116,27.5202304 32.3870693,27.679871 32.3267273,28.0210973 L32.1497793,29.0169323 L31.7617299,29.0169323 L32.0894373,27.1776089 L32.4510433,27.1776089 Z" id="Fill-18" fill="#FFFFFF"/>
          <polygon id="Fill-20" fill="#FFFFFF" points="35.3293696 27.1776089 35.5251784 28.6321966 36.2333527 27.1776089 36.6665152 27.1776089 35.694735 29.0169323 35.2389521 29.0169323 35.0544216 27.8035497 34.7567896 28.4063404 34.4329053 29.0169323 33.9808819 29.0169323 33.6531745 27.1776089 34.0901602 27.1776089 34.2822733 28.6321966 34.9940796 27.1776089"/>
          <path d="M38.3550017,27.9387082 C38.3850771,27.6215835 38.1967871,27.4925137 37.8841174,27.4925137 C37.6017143,27.4925137 37.341804,27.6215835 37.2287026,27.9387082 L38.3550017,27.9387082 Z M37.1647286,28.255833 C37.1496272,28.5095328 37.3492592,28.7166786 37.6883086,28.7166786 C37.8766623,28.7166786 38.1251668,28.6433594 38.2607611,28.5159387 L38.4717351,28.7586025 C38.2420277,28.9684123 37.9029783,29.0728732 37.616752,29.0728732 C37.0818938,29.0728732 36.7692241,28.7540359 36.7692241,28.2666152 C36.7692241,27.6179683 37.281462,27.1346068 37.9368769,27.1346068 C38.5358365,27.1346068 38.8748222,27.4947336 38.6714308,28.255833 L37.1647286,28.255833 Z" id="Fill-22" fill="#FFFFFF"/>
          <path d="M39.3915333,26.6765455 C39.3915333,26.8077082 39.4895333,26.8754461 39.5950521,26.8754461 C39.7456841,26.8754461 39.8850378,26.7777717 39.8850378,26.5942199 C39.8850378,26.470351 39.7907973,26.3990613 39.6891016,26.3990613 C39.5497479,26.3990613 39.3915333,26.4891882 39.3915333,26.6765455 Z M39.7342784,27.1776025 L39.4066984,29.016926 L39.018649,29.016926 L39.3463564,27.1776025 L39.7342784,27.1776025 Z" id="Fill-24" fill="#FFFFFF"/>
          <path d="M41.4560008,27.6325941 C41.3354442,27.4976258 41.1810528,27.4601416 40.9965222,27.4601416 C40.740244,27.4601416 40.5595365,27.546463 40.5595365,27.7076258 C40.5595365,27.8425941 40.7063454,27.8989789 40.924902,27.9176258 C41.2638876,27.9475624 41.6970502,28.0601416 41.6066328,28.5362727 C41.5426588,28.8811776 41.1960905,29.08363 40.713928,29.08363 C40.412664,29.08363 40.1225508,29.0161459 39.926742,28.7424672 L40.1790697,28.4687886 C40.3184234,28.6598879 40.563296,28.7387252 40.7817251,28.7424672 C40.9662557,28.7424672 41.1848122,28.6749831 41.2187108,28.5025307 C41.2526094,28.3375624 41.1056731,28.2738837 40.8344845,28.2474989 C40.5180554,28.2174989 40.1716146,28.1014313 40.1716146,27.7526575 C40.1716146,27.2914313 40.6724468,27.1302685 41.0492179,27.1302685 C41.3354442,27.1302685 41.5464182,27.1939471 41.7197342,27.3777526 L41.4560008,27.6325941 Z" id="Fill-26" fill="#FFFFFF"/>
          <path d="M42.6806376,27.1776089 L42.5036896,28.1681163 C42.4471707,28.483148 42.5903476,28.7008224 42.9142319,28.7008224 C43.219319,28.7008224 43.4792293,28.4492156 43.5318612,28.1417949 L43.7013541,27.1776089 L44.0893398,27.1776089 L43.7617598,29.0169323 L43.4114321,29.0169323 L43.4377481,28.7504207 C43.219319,28.9566152 43.0045218,29.0538457 42.744739,29.0538457 C42.2889562,29.0538457 42.0177676,28.7286025 42.1156402,28.1701459 L42.2927156,27.1776089 L42.6806376,27.1776089 Z" id="Fill-28" fill="#FFFFFF"/>
          <path d="M45.7926792,29.0169323 L45.9697546,28.0324503 C46.026146,27.7136765 45.9171226,27.5025349 45.5629718,27.5025349 C45.2541252,27.5025349 44.9940875,27.7498288 44.9414555,28.0535074 L44.7719627,29.0169323 L44.383977,29.0169323 L44.7117481,27.1776089 L45.0657078,27.1776089 L45.0393918,27.4464038 C45.2541252,27.2476934 45.4762501,27.1497019 45.7172995,27.1497019 C46.1693229,27.1497019 46.4632592,27.462704 46.3615635,28.0289619 L46.184488,29.0169323 L45.7926792,29.0169323 Z" id="Fill-30" fill="#FFFFFF"/>
          <g id="Group-34" transform="translate(46.706112, 27.136300)">
            <mask id="mask-4" fill="white">
              <polygon id="" points="0.0130133508 0.00161099366 2.2813355 0.00161099366 2.2813355 2.85412262 0.0130133508 2.85412262" transform="matrix(1, 0, 0, 1, 0, 0)"/>
            </mask>
            <g id="Clip-33"/>
            <path d="M0.510906242,1.07387315 C0.510906242,1.38865116 0.718057087,1.58000423 1.01581651,1.58000423 C1.81791274,1.58000423 2.03270988,0.354 1.23029506,0.354 C0.849891938,0.354 0.510906242,0.635035941 0.510906242,1.07387315 Z M0.401627958,2.13433827 C0.375311964,2.38803805 0.571120806,2.49065962 0.898955657,2.49065962 C1.18524564,2.49065962 1.49415592,2.33152643 1.56571248,1.92668499 L1.62216762,1.61082875 C1.45267477,1.84702326 1.1437645,1.94025793 0.914120806,1.94025793 C0.439349675,1.94025793 0.107946554,1.65896829 0.107946554,1.14890486 C0.107946554,0.421674419 0.650259948,0.00161099366 1.26419363,0.00161099366 C1.52423134,0.00161099366 1.7577619,0.124465116 1.84066047,0.334465116 L1.90469818,0.0413150106 L2.28134187,0.0413150106 L1.95733017,1.93531078 C1.83690104,2.636537 1.31325735,2.85414799 0.834917945,2.85414799 C0.262274252,2.85414799 -0.0539637191,2.5783129 0.0249842653,2.13433827 L0.401627958,2.13433827 Z" id="Fill-32" fill="#FFFFFF" mask="url(#mask-4)"/>
          </g>
        </g>
      </g>
    </g>
  </g>
</svg>