<?xml version="1.0" encoding="utf-8"?>
<svg width="75px" height="32px" viewBox="0 0 75 32" version="1.1" xmlns="http://www.w3.org/2000/svg">
  <title>logo giropay copy</title>
  <desc>Created with Sketch.</desc>
  <defs>
    <polygon id="path-1" points="0 0.0268536585 69.1378049 0.0268536585 69.1378049 29.7560976 0 29.7560976"/>
    <polygon id="path-3" points="0 29.9731707 69.1378049 29.9731707 69.1378049 0.243902439 0 0.243902439"/>
  </defs>
  <g id="Page-1" stroke="none" stroke-width="1" fill="none" fill-rule="evenodd" transform="matrix(1.07638, 0, 0, 1.07638, 0, -0.018629)">
    <g id="SPB_&amp;_AltPay_NewAssets" transform="translate(-226.000000, -633.000000)">
      <g id="logo-giropay-copy" transform="translate(226.000000, 633.000000)">
        <g id="Group-3" transform="translate(0.000000, 0.217073)">
          <mask id="mask-2" fill="white">
            <polygon id="" points="0 0.0268536585 69.1378049 0.0268536585 69.1378049 29.7560976 0 29.7560976" transform="matrix(1, 0, 0, 1, 0, 0)"/>
          </mask>
          <g id="Clip-2"/>
          <path d="M0,5.36026829 C0,2.41465854 2.3997561,0.0268536585 5.3602439,0.0268536585 L63.7773171,0.0268536585 C66.7378049,0.0268536585 69.1378049,2.41465854 69.1378049,5.36026829 L69.1378049,24.4227073 C69.1378049,27.3683171 66.7378049,29.756122 63.7773171,29.756122 L5.3602439,29.756122 C2.3997561,29.756122 0,27.3683171 0,24.4227073 L0,5.36026829 Z" id="Fill-1" fill="#FFFFFF" mask="url(#mask-2)"/>
        </g>
        <path d="M2.20107317,5.76031707 L2.20107317,24.4598293 C2.20107317,26.3008049 3.70107317,27.7932439 5.55131707,27.7932439 L36.1554634,27.7932439 L36.1554634,2.42690244 L5.55131707,2.42690244 C3.70107317,2.42690244 2.20107317,3.91934146 2.20107317,5.76031707" id="Fill-4" fill="#000000"/>
        <path d="M8.50653659,15.0308293 C8.50653659,14.0122927 9.00873171,13.1659512 9.96995122,13.1659512 C11.1319024,13.1659512 11.6194634,14.0983902 11.6194634,14.9303415 C11.6194634,16.0781463 10.888,16.8527805 9.96995122,16.8527805 C9.19507317,16.8527805 8.50653659,16.1927805 8.50653659,15.0308293 Z M14.1158049,11.3583902 L11.7772683,11.3583902 L11.7772683,12.7066829 L11.7487317,12.7066829 C11.2036098,11.7886341 10.3140976,11.1861951 9.20946341,11.1861951 C6.88531707,11.1861951 5.8382439,12.8503415 5.8382439,15.0737561 C5.8382439,17.2832683 7.11482927,18.8325366 9.16653659,18.8325366 C10.1994634,18.8325366 11.0601951,18.4308293 11.6770244,17.5557073 L11.705561,17.5557073 L11.705561,17.9574146 C11.705561,19.4208293 10.9023902,20.1237561 9.41043902,20.1237561 C8.33434146,20.1237561 7.67434146,19.8942439 6.88531707,19.5069268 L6.75629268,21.544 C7.35873171,21.759122 8.3775122,22.0174146 9.61117073,22.0174146 C12.6238537,22.0174146 14.1158049,21.0274146 14.1158049,17.9574146 L14.1158049,11.3583902 Z" id="Fill-6" fill="#FFFFFF"/>
        <mask id="mask-4" fill="white">
          <polygon id="" points="0 29.9731707 69.1378049 29.9731707 69.1378049 0.243902439 0 0.243902439" transform="matrix(1, 0, 0, 1, 0, 0)"/>
        </mask>
        <g id="Clip-9"/>
        <path d="M15.8978049,10.1387805 L18.48,10.1387805 L18.48,8.24512195 L15.8978049,8.24512195 L15.8978049,10.1387805 Z M15.897561,18.832439 L18.4797561,18.832439 L18.4797561,11.3582927 L15.897561,11.3582927 L15.897561,18.832439 Z" id="Fill-8" fill="#FFFFFF" mask="url(#mask-4)"/>
        <path d="M25.67,11.2721951 C25.4117073,11.2292683 25.0960976,11.1860976 24.794878,11.1860976 C23.6758537,11.1860976 23.0302439,11.7887805 22.5856098,12.7356098 L22.5570732,12.7356098 L22.5570732,11.3582927 L20.2041463,11.3582927 L20.2041463,18.832439 L22.7865854,18.832439 L22.7865854,15.6763415 C22.7865854,14.2131707 23.4607317,13.3380488 24.6658537,13.3380488 C24.9670732,13.3380488 25.2539024,13.3380488 25.5409756,13.4241463 L25.67,11.2721951 Z" id="Fill-10" fill="#FFFFFF" mask="url(#mask-4)"/>
        <path d="M30.1160244,17.1970732 C28.9252927,17.1970732 28.4374878,16.2073171 28.4374878,15.102439 C28.4374878,13.9836585 28.9252927,12.9936585 30.1160244,12.9936585 C31.3067561,12.9936585 31.794561,13.9836585 31.794561,15.102439 C31.794561,16.2073171 31.3067561,17.1970732 30.1160244,17.1970732 M30.1160244,19.0046341 C32.5835854,19.0046341 34.4628537,17.57 34.4628537,15.102439 C34.4628537,12.6207317 32.5835854,11.1860976 30.1160244,11.1860976 C27.6484634,11.1860976 25.7691951,12.6207317 25.7691951,15.102439 C25.7691951,17.57 27.6484634,19.0046341 30.1160244,19.0046341" id="Fill-11" fill="#FFFFFF" mask="url(#mask-4)"/>
        <path d="M44.063561,15.0165366 C44.063561,16.2072683 43.4755122,17.0250732 42.4999024,17.0250732 C41.6391707,17.0250732 40.9218537,16.2072683 40.9218537,15.1170244 C40.9218537,13.998 41.5530732,13.1658049 42.4999024,13.1658049 C43.5040488,13.1658049 44.063561,14.0265366 44.063561,15.0165366 Z M38.3396585,21.8450732 L40.9218537,21.8450732 L40.9218537,17.7853171 L40.9503902,17.7853171 C41.4381951,18.6748293 42.4138049,19.0045854 43.3174634,19.0045854 C45.541122,19.0045854 46.7318537,17.1684878 46.7318537,14.9589756 C46.7318537,13.1516585 45.5986829,11.1860488 43.5328293,11.1860488 C42.3564878,11.1860488 41.266,11.6594634 40.7496585,12.7067805 L40.720878,12.7067805 L40.720878,11.3582439 L38.3396585,11.3582439 L38.3396585,21.8450732 Z" id="Fill-12" fill="#000000" mask="url(#mask-4)"/>
        <path d="M50.257878,16.4654878 C50.257878,15.7481707 50.9464146,15.4754878 51.8215366,15.4754878 C52.2088537,15.4754878 52.5820244,15.5042683 52.9117805,15.5186585 C52.9117805,16.3937805 52.2949512,17.2832927 51.3193415,17.2832927 C50.7169024,17.2832927 50.257878,16.9818293 50.257878,16.4654878 Z M55.465439,18.832561 C55.350561,18.2442683 55.3220244,17.6562195 55.3220244,17.0679268 L55.3220244,14.2847561 C55.3220244,12.0037805 53.6722683,11.1862195 51.7642195,11.1862195 C50.6595854,11.1862195 49.6983659,11.3440244 48.7803171,11.7169512 L48.8232439,13.4671951 C49.540561,13.0654878 50.3725122,12.9076829 51.2047073,12.9076829 C52.1371463,12.9076829 52.8976341,13.180122 52.9117805,14.1986585 C52.5820244,14.1413415 52.1227561,14.0984146 51.7066585,14.0984146 C50.3295854,14.0984146 47.8476341,14.3708537 47.8476341,16.6520732 C47.8476341,18.2730488 49.1676341,19.0047561 50.6451951,19.0047561 C51.7066585,19.0047561 52.4239756,18.5886585 53.0122683,17.6562195 L53.0410488,17.6562195 C53.0410488,18.0435366 53.0839756,18.4308537 53.0983659,18.832561 L55.465439,18.832561 Z" id="Fill-13" fill="#000000" mask="url(#mask-4)"/>
        <path d="M56.626122,21.8451951 C57.1568537,21.9598293 57.6875854,22.0173902 58.2327073,22.0173902 C60.5997805,22.0173902 61.1592927,20.195439 61.891,18.3161707 L64.631,11.3583659 L62.0488049,11.3583659 L60.5139268,16.2359268 L60.4851463,16.2359268 L58.8783171,11.3583659 L56.0951463,11.3583659 L59.1222195,19.0047073 C58.9356341,19.6647073 58.4480732,20.0376341 57.8168537,20.0376341 C57.4580732,20.0376341 57.1424634,19.9944634 56.7983171,19.8798293 L56.626122,21.8451951 Z" id="Fill-14" fill="#000000" mask="url(#mask-4)"/>
      </g>
    </g>
  </g>
</svg>