<svg version="1.1" id="Layer_1" x="0px" y="0px" viewBox="0 0 173.6 32" preserveAspectRatio="xMinYMin meet" xmlns="http://www.w3.org/2000/svg">
  <path fill="#FF7900" d="M 140.758 4.101 L 157.299 0.324 C 159.51 -0.179 161.724 1.08 162.253 3.179 L 166.234 18.371 C 166.764 20.468 165.439 22.567 163.227 23.071 L 146.686 26.848 C 144.475 27.351 142.262 26.092 141.732 23.995 L 137.752 8.803 C 137.132 6.787 138.458 4.605 140.758 4.101 Z"/>
  <path fill="#004995" d="M 148.809 4.605 L 158.893 4.605 C 160.396 4.605 161.547 5.78 161.547 7.123 L 161.547 16.777 C 161.547 18.118 160.308 19.294 158.893 19.294 L 148.809 19.294 C 147.303 19.294 146.155 18.118 146.155 16.777 L 146.155 7.123 C 146.155 5.697 147.393 4.605 148.809 4.605 Z"/>
  <path fill="#FFFFFF" d="M 111.522 18.392 C 111.429 17.376 111.056 16.451 110.403 15.618 C 109.286 14.324 107.606 13.585 105.836 13.676 C 104.25 13.77 101.919 13.955 100.519 14.971 L 101.359 17.467 C 101.359 17.467 102.665 16.358 105.276 16.358 C 106.393 16.358 107.42 17.006 107.606 17.653 L 107.606 17.838 C 106.208 17.838 101.919 18.115 100.24 20.612 C 98.282 23.569 101.359 26.436 103.316 26.436 C 104.903 26.436 106.488 26.528 107.887 25.141 L 108.073 26.251 L 111.522 26.251 L 111.522 18.946 C 111.522 18.854 111.522 18.761 111.522 18.761 L 111.522 18.392 Z M 103.69 22.553 C 103.877 20.796 106.393 20.612 107.606 20.612 L 107.606 22.738 C 106.302 24.493 103.504 24.308 103.69 22.553 Z"/>
  <path fill="#FFFFFF" d="M 98.469 14.602 C 98.469 14.602 90.822 12.568 88.492 17.56 C 87.187 20.333 87.84 23.292 89.331 24.862 C 90.077 25.603 90.917 26.065 91.943 26.343 C 93.901 26.99 97.351 26.713 98.469 26.157 L 98.096 23.385 C 98.096 23.385 94.646 24.493 92.874 22.738 C 90.637 20.518 92.688 17.006 95.019 17.006 C 97.351 17.006 98.096 17.376 98.096 17.376 L 98.469 14.602 Z"/>
  <rect x="45.602" y="10.166" fill="#FFFFFF" width="3.916" height="16.272"/>
  <path fill="#FFFFFF" d="M 59.028 17.191 L 59.028 14.232 L 56.884 14.232 L 56.884 10.164 L 52.968 10.164 L 52.968 14.232 L 51.01 14.232 L 51.01 17.191 L 52.968 17.191 L 52.968 23.385 C 52.968 25.048 54.272 26.343 55.951 26.343 L 55.951 26.343 L 59.028 26.343 L 59.028 23.385 L 57.91 23.385 C 57.257 23.385 56.79 22.922 56.79 22.274 L 56.79 22.274 L 56.79 17.097 L 59.028 17.097 Z"/>
  <path fill="#FFFFFF" d="M 72.269 18.392 C 72.174 17.376 71.802 16.451 71.149 15.618 C 69.936 14.324 68.352 13.585 66.581 13.676 C 64.996 13.77 62.664 13.955 61.265 14.971 L 62.105 17.467 C 62.105 17.467 63.409 16.358 66.02 16.358 C 67.139 16.358 68.166 17.006 68.352 17.653 L 68.352 17.838 C 66.953 17.838 62.571 18.115 60.986 20.612 C 59.028 23.569 62.105 26.436 64.063 26.436 C 65.647 26.436 67.233 26.528 68.633 25.141 L 68.819 26.251 L 72.269 26.251 L 72.269 18.392 L 72.269 18.392 Z M 64.436 22.553 C 64.623 20.796 67.139 20.612 68.352 20.612 L 68.352 22.738 C 67.139 24.493 64.25 24.308 64.436 22.553 L 64.436 22.553 Z"/>
  <path fill="#FFFFFF" d="M 82.433 14.232 L 82.433 21.443 C 82.433 21.72 82.338 21.905 82.246 22.182 C 81.779 22.922 81.126 23.477 80.287 23.477 C 79.355 23.569 78.515 23.015 78.142 22.182 C 78.048 21.997 78.048 21.812 78.048 21.627 L 78.048 14.324 L 74.131 14.324 L 74.131 22.646 C 74.131 24.771 75.906 26.713 78.048 26.713 C 81.965 26.898 82.62 24.956 82.62 24.956 L 82.62 24.862 L 82.991 26.343 L 86.254 26.343 L 86.254 14.14 L 82.433 14.232 Z"/>
  <rect x="147.394" y="11.991" fill="#FFF100" width="1.239" height="4.952"/>
  <path fill="#FFF100" d="M 151.639 14.174 L 151.639 13.25 L 150.93 13.25 L 150.93 11.991 L 149.691 11.991 L 149.691 13.25 L 149.074 13.25 L 149.074 14.174 L 149.691 14.174 L 149.691 16.104 C 149.691 16.609 150.135 17.027 150.665 17.027 L 151.639 17.027 L 151.639 16.104 L 151.285 16.104 C 151.107 16.104 150.93 15.936 150.93 15.768 L 150.93 15.768 L 150.93 14.174 L 151.639 14.174 Z"/>
  <path fill="#FFF100" d="M 155.883 14.509 C 155.883 14.174 155.708 13.922 155.532 13.671 C 155.178 13.25 154.646 13.083 154.027 13.083 C 153.408 13.083 152.878 13.25 152.346 13.503 L 152.611 14.258 C 152.965 14.006 153.408 13.922 153.85 13.922 C 154.116 13.922 154.469 14.09 154.558 14.258 L 154.558 14.341 C 154.116 14.341 152.701 14.426 152.258 15.18 C 151.905 15.768 152.081 16.44 152.701 16.777 C 152.878 16.86 153.053 16.943 153.23 16.943 C 153.762 17.027 154.292 16.86 154.734 16.609 L 154.824 16.943 L 155.883 16.943 L 155.883 14.509 L 155.883 14.509 Z M 153.408 15.768 C 153.497 15.18 154.292 15.18 154.646 15.18 L 154.646 15.853 C 154.204 16.356 153.32 16.272 153.408 15.768 L 153.408 15.768 Z"/>
  <path fill="#FFF100" d="M 159.07 13.25 L 159.07 15.517 C 158.98 15.768 158.715 15.936 158.361 16.021 C 158.008 16.021 157.743 15.853 157.654 15.517 L 157.654 13.25 L 156.415 13.25 L 156.415 15.768 C 156.415 16.44 156.945 16.943 157.654 17.027 C 158.893 17.111 159.157 16.524 159.157 16.524 L 159.157 16.524 L 159.333 16.943 L 160.396 16.943 L 160.396 13.167 L 159.07 13.167 Z"/>
  <path fill="#FFFFFF" d="M 116.837 16.358 L 116.652 14.232 L 113.388 14.232 L 113.388 26.436 L 117.303 26.436 L 117.303 19.594 C 117.676 18.761 118.515 17.467 120.753 17.467 L 120.753 13.862 C 119.168 13.862 117.676 14.788 116.837 16.358 Z"/>
  <path fill="#FFFFFF" d="M 131.384 8.87 L 131.384 15.25 C 130.73 14.602 129.704 13.862 127.653 13.862 C 124.017 13.862 121.592 17.097 121.592 20.703 C 121.499 23.939 124.204 26.621 127.467 26.713 C 128.958 26.621 130.451 26.157 131.663 25.326 L 132.222 26.528 L 135.3 26.528 L 135.3 8.962 L 131.384 8.962 Z M 128.679 23.569 C 126.349 23.569 125.881 21.627 125.881 20.148 C 125.881 18.669 126.535 16.912 128.679 16.912 C 129.985 16.912 130.824 17.838 131.384 18.669 L 131.384 21.627 C 130.824 22.646 129.892 23.569 128.679 23.569 Z"/>
  <polygon fill="#FFF100" points="158.893 12.915 157.831 12.915 158.715 11.991 159.954 11.991"/>
  <line fill="#FFFFFF" x1="35.897" y1="6.794" x2="35.897" y2="26.687"/>
  <rect x="21.67" y="30.704" width="0.111" height="0.106" style="fill: rgb(216, 216, 216);"/>
  <path fill="#ffffff" opacity="0.7" d="M 24.617 11.431 C 24.831 9.845 24.617 8.788 23.761 7.731 C 22.834 6.673 21.193 6.22 19.124 6.22 L 13.064 6.22 C 12.637 6.22 12.28 6.522 12.208 6.975 L 9.712 23.74 C 9.64 24.117 9.854 24.419 10.21 24.419 L 13.991 24.419 L 13.705 26.155 C 13.634 26.382 13.92 26.684 14.133 26.684 L 17.343 26.684 C 17.699 26.684 17.984 26.382 18.056 26.005 L 18.127 25.853 L 18.697 21.927 L 18.769 21.701 C 18.84 21.247 19.124 21.021 19.482 21.021 L 19.981 21.021 C 23.048 21.021 25.401 19.663 26.115 15.96 C 26.4 14.376 26.257 13.016 25.473 12.11 C 25.188 11.884 24.903 11.581 24.617 11.431 L 24.617 11.431"/>
  <path fill="#ffffff" opacity="0.7" d="M 24.617 11.431 C 24.831 9.845 24.617 8.788 23.761 7.731 C 22.834 6.673 21.193 6.22 19.124 6.22 L 13.064 6.22 C 12.637 6.22 12.28 6.522 12.208 6.975 L 9.712 23.74 C 9.64 24.117 9.854 24.419 10.21 24.419 L 13.991 24.419 L 14.917 18.151 L 14.846 18.378 C 14.989 17.925 15.275 17.623 15.774 17.623 L 17.556 17.623 C 21.051 17.623 23.761 16.112 24.546 11.808 C 24.546 11.657 24.546 11.506 24.617 11.431"/>
  <path fill="#ffffff" d="M 15.916 11.431 C 15.916 11.204 16.06 10.977 16.344 10.826 C 16.416 10.826 16.558 10.751 16.629 10.751 L 21.407 10.751 C 21.978 10.751 22.477 10.826 22.977 10.901 C 23.119 10.901 23.19 10.901 23.404 10.977 C 23.476 11.053 23.619 11.053 23.761 11.128 C 23.833 11.128 23.833 11.128 23.975 11.204 C 24.19 11.279 24.404 11.355 24.617 11.431 C 24.831 9.845 24.617 8.788 23.761 7.806 C 22.834 6.749 21.193 6.22 19.124 6.22 L 13.064 6.22 C 12.637 6.22 12.28 6.597 12.208 6.975 L 9.712 23.74 C 9.64 24.117 9.854 24.419 10.21 24.419 L 13.991 24.419 L 14.917 18.151 L 15.916 11.431 Z"/>
  <g transform="matrix(0.379173, 0, 0, 0.397443, 9.686229, 4.778377)" opacity="0.2">
    <path fill="#231f20" d="M39.3 16.7c0.9 0.5 1.7 1.1 2.3 1.8 1 1.1 1.6 2.5 1.9 4.1 0.3-3.2-0.2-5.8-1.9-7.8-0.6-0.7-1.3-1.2-2.1-1.7C39.5 14.2 39.5 15.4 39.3 16.7z"/>
    <path fill="#231f20" d="M0.4 45.2L6.7 5.6C6.8 4.5 7.8 3.7 8.9 3.7h16c5.5 0 9.8 1.2 12.2 3.9 1.2 1.4 1.9 3 2.2 4.8 0.4-3.6-0.2-6.1-2.2-8.4C34.7 1.2 30.4 0 24.9 0H8.9c-1.1 0-2.1 0.8-2.3 1.9L0 44.1C0 44.5 0.1 44.9 0.4 45.2z"/>
    <path fill="#231f20" d="M10.7 49.4l-0.1 0.6c-0.1 0.4 0.1 0.8 0.4 1.1l0.3-1.7H10.7z"/>
  </g>
  <rect x="35.664" y="5.207" width="1.115" height="21.481" style="fill: rgb(255, 255, 255);" transform="matrix(0.999993, 0, 0, 1, 0.163238, -0.00471)"/>
</svg>