<?xml version="1.0" encoding="UTF-8"?>
<svg width="91px" height="20px" viewBox="0 0 91 20" version="1.1" xmlns="http://www.w3.org/2000/svg" xmlns:xlink="http://www.w3.org/1999/xlink">
    <!-- Generator: Sketch 52.2 (67145) - http://www.bohemiancoding.com/sketch -->
    <title>logo maxima copy 3</title>
    <desc>Created with Sketch.</desc>
    <defs>
        <polygon id="path-1" points="0.123336164 0.210564103 13.6950512 0.210564103 13.6950512 19.7435897 0.123336164 19.7435897"></polygon>
    </defs>
    <g id="Page-1" stroke="none" stroke-width="1" fill="none" fill-rule="evenodd">
        <g id="SPB_&amp;_AltPay_NewAssets" transform="translate(-215.000000, -638.000000)">
            <g id="SPBbutton-iDEAL-Copy-4" transform="translate(101.000000, 624.000000)">
                <g id="logo-maxima-copy-3" transform="translate(114.000000, 14.000000)">
                    <path d="M24.2357932,3.31769231 L30.4240425,3.31769231 C30.9309,4.85923077 31.4482288,6.37589744 31.9767767,7.86205128 C32.6531685,9.79794872 33.1996671,11.3192308 33.6090425,12.4258974 C33.7571356,12.8233333 33.9064753,13.2235897 34.0558151,13.6202564 L33.9176945,16.9894872 L29.8877658,16.9894872 C29.7571247,16.4687179 29.6013027,15.9366667 29.429774,15.3917949 C29.1914288,14.6961538 29.0186534,14.1761538 28.9126945,13.8374359 L24.1560123,13.8374359 L22.8037274,16.9894872 L17.1320589,16.9894872 C18.314311,14.9294872 19.5401932,12.6705128 20.8131959,10.2146154 C21.9555575,8.01717949 23.0949274,5.72051282 24.2357932,3.31769231 Z M25.6085219,10.3571795 L28.0570452,10.3571795 L27.0817247,7.00128205 L25.6085219,10.3571795 Z" id="Fill-1" fill="#FFFFFF"></path>
                    <path d="M79.9159507,3.31769231 L86.1046986,3.31769231 C86.6105589,4.85923077 87.1268904,6.37589744 87.6566849,7.86205128 C88.334074,9.79794872 88.8775808,11.3192308 89.2892,12.4258974 C89.8576384,13.9528205 90.4313123,15.4738462 91,16.9894872 L85.5664274,16.9894872 C85.4337918,16.4687179 85.281211,15.9366667 85.1076877,15.3917949 C84.8718356,14.6961538 84.6990603,14.1761538 84.5913562,13.8374359 L79.8369178,13.8374359 L78.4818904,16.9894872 L72.8117178,16.9894872 C73.9927233,14.9294872 75.2193534,12.6705128 76.4933534,10.2146154 C77.6357151,8.01717949 78.7725918,5.72051282 79.9159507,3.31769231 Z M81.2896767,10.3571795 L83.7344603,10.3571795 L82.7613836,7.00128205 L81.2896767,10.3571795 Z" id="Fill-3" fill="#FFFFFF"></path>
                    <path d="M57.0298496,3.31807692 L63.5975564,3.31807692 C63.6658688,3.78217949 63.8491153,4.97474359 64.1537784,6.89858974 C64.4075811,8.46730769 64.572877,9.69115385 64.6536551,10.5621795 C64.9181784,9.41653846 65.3098523,7.9024359 65.8266825,6.01935897 C66.2527619,4.47730769 66.4950962,3.57576923 66.5619126,3.31807692 L73.2889318,3.31807692 C73.2889318,4.79141026 73.2520332,6.30371795 73.1792332,7.85192308 C73.108677,9.39782051 73.0321373,11.0239744 72.9620797,12.7219231 C72.8885318,14.4196154 72.8518825,15.8429487 72.8518825,16.9888462 L68.4332715,16.9888462 C68.4332715,16.0196154 68.4649345,14.9288462 68.531751,13.7142308 C68.6923099,10.7967949 68.7715921,8.96705128 68.7715921,8.22884615 L66.3649537,16.9888462 L62.0054304,16.9888462 L60.614751,8.22884615 C60.4669071,9.62141026 60.341751,11.1034615 60.2350441,12.670641 C60.1283373,14.2398718 60.0747345,15.6798718 60.0747345,16.9888462 L55.8777647,16.9888462 C56.0487948,15.4737179 56.227803,13.9188462 56.41454,12.3237179 C56.6000304,10.7267949 56.7488715,9.18371795 56.860066,7.69730769 C56.9730058,6.21192308 57.0298496,4.75064103 57.0298496,3.31807692" id="Fill-5" fill="#FFFFFF"></path>
                    <path d="M49.0127995,3.31807692 L54.3635995,3.31807692 C53.978657,7.91525641 53.7876816,12.4742308 53.7876816,16.9888462 L49.0472049,16.9888462 L48.3974899,16.3744872 C48.4114515,15.2557692 48.4605666,14.0047436 48.5440871,12.6201282 C48.6440625,10.9747436 48.746531,9.27397436 48.8522405,7.51397436 C48.9581995,5.75346154 49.0127995,4.355 49.0127995,3.31807692" id="Fill-7" fill="#FFFFFF"></path>
                    <path d="M1.15210986,3.31807692 L7.72031534,3.31807692 C7.78763041,3.78217949 7.9711263,4.97474359 8.27678658,6.89858974 C8.52809616,8.46730769 8.69414,9.69115385 8.77441945,10.5621795 C9.04093726,9.41653846 9.43136466,7.9024359 9.94894274,6.01935897 C10.3750222,4.47730769 10.6173564,3.57576923 10.6846715,3.31807692 L17.4111921,3.31807692 C17.4111921,4.79141026 17.3737948,6.30371795 17.3009948,7.85192308 C17.2304386,9.39782051 17.1543975,11.0239744 17.0825948,12.7219231 C17.0097948,14.4196154 16.9733948,15.8429487 16.9733948,16.9888462 L12.5545345,16.9888462 C12.5545345,16.0196154 12.5864468,14.9288462 12.6545099,13.7142308 C12.8133236,10.7967949 12.8931044,8.96705128 12.8931044,8.22884615 L10.4862167,16.9888462 L6.12719205,16.9888462 L4.7347674,8.22884615 C4.58817014,9.62141026 4.46301397,11.1034615 4.35655644,12.670641 C4.24885233,14.2398718 4.19799205,15.6798718 4.19799205,16.9888462 L2.49315068e-05,16.9888462 C0.170307123,15.4737179 0.349315342,13.9188462 0.535553699,12.3237179 C0.721792055,10.7267949 0.871131781,9.18371795 0.984071507,7.69730769 C1.09601397,6.21192308 1.15210986,4.75064103 1.15210986,3.31807692" id="Fill-9" fill="#FFFFFF"></path>
                    <g id="Group-13" transform="translate(34.405479, 0.045846)">
                        <mask id="mask-2" fill="white">
                            <use xlink:href="#path-1"></use>
                        </mask>
                        <g id="Clip-12"></g>
                        <path d="M13.6950512,17.0754359 L13.2285827,17.5531282 C13.1161416,17.5285128 13.0176622,17.5190256 12.9294047,17.5190256 C12.7501471,17.5190256 12.5960704,17.6226154 12.4634348,17.828 C12.3973663,17.9638974 12.4771471,18.1431282 12.697043,18.3746667 C12.7843033,18.4656923 13.0303773,18.6572308 13.4287827,18.9572308 L13.4287827,19.0251795 C13.4287827,19.092359 13.4626896,19.3331282 13.5280101,19.743641 C12.1757252,19.743641 10.9665471,19.4695385 9.90271973,18.9218462 C9.23904301,18.5805641 8.20638,17.8482564 6.80921836,16.7321026 C6.18991973,16.1867179 5.67483479,15.6851795 5.26371425,15.228 C4.85010055,14.7695385 4.4257663,14.2005641 3.98248411,13.5174872 L0.123336164,16.8015897 L0.224059452,14.338 L2.75086767,11.1905641 C2.2863937,10.6656923 1.87377726,10.0977436 1.52149507,9.48005128 C1.2754211,8.95466667 1.07596904,8.44979487 0.922390959,7.95825641 C0.768064932,7.46569231 0.655873151,6.96235897 0.589555342,6.4354359 C0.701248493,6.21005128 0.755848493,6.04748718 0.755848493,5.958 L0.655873151,5.51312821 L4.24750603,1.74953846 L7.1093937,6.57261538 L12.5626622,0.414666667 C12.6756019,0.27825641 12.7641088,0.210564103 12.82918,0.210564103 C12.983506,0.210564103 13.0630375,0.518769231 13.0630375,1.13364103 C13.0630375,1.63441026 13.0303773,2.15928205 12.9635608,2.70697436 C12.8967444,3.25517949 12.8506211,3.63158974 12.82918,3.83748718 C12.6302266,4.88312821 11.8643307,5.96723077 10.5339855,7.08671795 C9.64866767,7.83953846 9.00468685,8.49005128 8.60603205,9.03594872 C8.73767041,9.35133333 8.85011151,9.60441026 8.93737178,9.78902564 C9.46916082,10.9254359 9.92416082,11.8277436 10.3013745,12.4910769 C10.8546047,13.4482564 11.3786649,14.2572308 11.8643307,14.9192821 C12.3507444,15.578 12.9635608,16.2956923 13.6950512,17.0754359" id="Fill-11" fill="#FFFFFF" mask="url(#mask-2)"></path>
                    </g>
                </g>
            </g>
        </g>
    </g>
</svg>