<?xml version="1.0" encoding="UTF-8"?>
<svg width="98px" height="26px" viewBox="0 0 98 26" version="1.1" xmlns="http://www.w3.org/2000/svg" xmlns:xlink="http://www.w3.org/1999/xlink">
    <title>D2ECFE63-C805-4631-A970-F4C8D676663D</title>
    <g id="Page-1" stroke="none" stroke-width="1" fill="none" fill-rule="evenodd">
        <g id="MERCADO-PAGO-SPEC" transform="translate(-1451.000000, -166.000000)">
            <g id="BTN_OXXO_WHITE" transform="translate(1340.000000, 155.000000)">
                <g id="LOGO_MERCADOPAGO_3_26" transform="translate(111.000000, 11.000000)">
                    <path d="M35.6856062,11.9270732 C35.6856062,5.49784553 27.6975208,0.257102279 17.8434328,0.257102279 C7.98985878,0.257102279 0.00203049886,5.49784553 0.00203049886,11.9270732 C0.00203049886,12.0931114 -2.57025172e-05,12.5521584 -2.57025172e-05,12.6102461 C-2.57025172e-05,19.430666 6.98180606,24.954908 17.8411196,24.954908 C28.7677737,24.954908 35.6856062,19.4322082 35.6856062,12.6115312 L35.6856062,11.9270732 Z" id="background_border" fill="#2D3277"></path>
                    <path d="M35.0023818,11.9212901 C35.0023818,17.9824577 27.3216986,22.8960079 17.8467227,22.8960079 C8.37200381,22.8960079 0.691577629,17.9824577 0.691577629,11.9212901 C0.691577629,5.85960846 8.37200381,0.946058252 17.8467227,0.946058252 C27.3216986,0.946058252 35.0023818,5.85960846 35.0023818,11.9212901" id="background" fill="#009EE3"></path>
                    <path d="M12.1504795,8.4587241 C12.1414836,8.47594479 11.9703048,8.65303513 12.0810827,8.79542708 C12.3519872,9.14112593 13.1880901,9.33954936 14.0337029,9.14986479 C14.5372152,9.03677371 15.1826054,8.52349444 15.8076906,8.02743586 C16.485209,7.48922515 17.1573298,6.95024337 17.833049,6.73588438 C18.548607,6.50816007 19.0068829,6.60582964 19.3096586,6.6973306 C19.6419921,6.79654232 20.0326704,7.01527074 20.6559564,7.48279952 C21.8297904,8.36542396 26.5498006,12.4852804 27.3653415,13.1977542 C28.0222978,12.9008901 30.9413327,11.6442941 34.9082592,10.7698944 C34.5635885,8.65509133 33.2771775,6.72020584 31.3260994,5.13590268 C28.6070301,6.27812254 25.2839517,6.87390689 22.0343824,5.28677646 C22.0179328,5.2800938 20.2591096,4.4478463 18.5244467,4.4887133 C15.9462272,4.54834314 14.8291958,5.66434643 13.647137,6.84563412 L12.1504795,8.4587241 Z" id="righthand" fill="#FFFFFF"></path>
                    <path d="M27.1736521,13.645672 C27.1183917,13.5965802 21.6237076,8.78866731 20.3786777,7.85283866 C19.6584931,7.31257175 19.2577909,7.17480626 18.8370407,7.121088 C18.6180552,7.09281523 18.3155366,7.13342521 18.1040049,7.1915129 C17.5249272,7.34906933 16.7679881,7.85540892 16.0953532,8.3882221 C15.399329,8.94262539 14.7431438,9.46464351 14.1345082,9.60112388 C13.3562359,9.77538695 12.4062709,9.56976681 11.9726694,9.27650109 C11.7971212,9.15852654 11.6734921,9.02204617 11.6141193,8.88325258 C11.4539926,8.5118512 11.7493146,8.21498713 11.7978923,8.16538127 L13.3140838,6.52530365 C13.4904031,6.34924141 13.6680075,6.17343619 13.8494672,5.9999442 C13.3603483,6.06368644 12.907984,6.18860068 12.4676999,6.31120168 C11.9181801,6.46567381 11.3899934,6.61269221 10.855381,6.61243519 C10.6322832,6.61243519 9.43634504,6.41632498 9.20939182,6.35463894 C7.83739145,5.97912516 6.6329715,5.61337834 4.83405232,4.77342008 C2.67838221,6.37828525 1.23698504,8.38462374 0.820604265,10.5947832 C1.1303196,10.6765172 1.62920546,10.8250777 1.838938,10.8715993 C6.71701873,11.9562455 8.23629452,13.0735339 8.51208253,13.3069128 C8.81048875,12.9748363 9.24074889,12.7645897 9.72138596,12.7645897 C10.2611388,12.7653608 10.7474304,13.0365223 11.0430094,13.4557304 C11.3223958,13.2349458 11.7076765,13.0465463 12.2057913,13.0468033 C12.4319734,13.0468033 12.6666374,13.0886984 12.9033576,13.1691473 C13.4539055,13.3580608 13.7379183,13.7245787 13.8851937,14.0561412 C14.0699948,13.972608 14.296691,13.911179 14.5639972,13.9119501 C14.8266769,13.9119501 15.0998947,13.9720939 15.3754257,14.0908396 C16.2747568,14.4768914 16.4148355,15.3602869 16.3331015,16.0264961 C16.3971007,16.0187854 16.4616141,16.0159581 16.5271555,16.0159581 C17.5935529,16.0167292 18.4610129,16.8834181 18.4604988,17.9503296 C18.4604988,18.2803499 18.3759375,18.5908363 18.2291762,18.86354 C18.5193576,19.026751 19.259076,19.3955821 19.9083216,19.313334 C20.4272554,19.2480496 20.6243937,19.0704453 20.6948186,18.9709765 C20.7428823,18.9020938 20.7942874,18.8221589 20.7467377,18.7645853 L19.3703679,17.2355426 C19.3703679,17.2355426 19.1436717,17.0211836 19.2184661,16.9386785 C19.2963447,16.8536031 19.4361664,16.9754331 19.5351211,17.0581952 C20.2357717,17.6434415 21.0911515,18.5260659 21.0911515,18.5260659 C21.1055449,18.5355759 21.1620904,18.6476388 21.4784884,18.7044414 C21.750678,18.7530192 22.2323432,18.7247464 22.5662189,18.4505005 C22.6505232,18.3813608 22.7345704,18.2950003 22.8049953,18.2058126 C22.7993407,18.210182 22.7949713,18.2160936 22.7895738,18.2181498 C23.1414412,17.7678417 22.750763,17.3121361 22.750763,17.3121361 L21.1438416,15.5075623 C21.1438416,15.5075623 20.9140611,15.2952595 20.9919397,15.2096702 C21.0621076,15.1356469 21.2098971,15.2474529 21.3103939,15.3312431 C21.8193038,15.7566197 22.5382032,16.4780894 23.2272877,17.1530375 C23.3617118,17.2512211 23.9672631,17.6259638 24.7691817,17.0993192 C25.2554733,16.7800939 25.3533999,16.3881306 25.3395205,16.0922946 C25.3055932,15.7005882 25.0002473,15.4217159 25.0002473,15.4217159 L22.8049953,13.2148978 C22.8049953,13.2148978 22.5734156,13.0169884 22.6551496,12.9167486 C22.7222332,12.8324443 22.8728499,12.9540172 22.9712906,13.0365223 C23.6709131,13.6215116 25.5636465,15.3569456 25.5636465,15.3569456 C25.5906341,15.3759654 26.2447632,15.841695 27.0528503,15.3271307 C27.3417466,15.1423296 27.5265477,14.8637143 27.5424833,14.5403766 C27.569985,13.9790336 27.1736521,13.645672 27.1736521,13.645672" id="lefthand" fill="#FFFFFF"></path>
                    <path d="M16.5269242,16.4433139 C16.1866228,16.4392015 15.8144504,16.6414803 15.7656156,16.6119224 C15.738885,16.5941876 15.7864346,16.4574503 15.8183058,16.3785435 C15.850948,16.3001508 16.2991999,14.9515398 15.2065858,14.4832399 C14.370483,14.1239187 13.8595169,14.5282193 13.6837117,14.7107072 C13.6377042,14.7582568 13.6171422,14.7546585 13.6117447,14.6934865 C13.595038,14.4508547 13.4863164,13.7936414 12.7645897,13.5736278 C11.7334047,13.2577439 11.0702798,13.9776714 10.9019283,14.2375238 C10.8266199,13.6497073 10.3297902,13.1932306 9.72115464,13.1929727 C9.05957184,13.1922025 8.52316031,13.7281 8.52238914,14.3891687 C8.52213221,15.0502374 9.05828672,15.5863919 9.71961249,15.5863919 C10.041151,15.587163 10.3323605,15.4586504 10.5472335,15.2522592 C10.5541732,15.2586849 10.5567435,15.269994 10.5534021,15.2926122 C10.5030252,15.5887052 10.4102391,16.6646125 11.5370375,17.1025834 C11.9888877,17.2781316 12.3731404,17.1475628 12.6915945,16.924208 C12.7864368,16.8571244 12.8021154,16.8856542 12.788493,16.9745849 C12.7478831,17.251401 12.7992881,17.843844 13.6299934,18.180804 C14.2617613,18.4375722 14.63599,18.1746354 14.880935,17.9481962 C14.9876004,17.8510407 15.0166442,17.8667193 15.0222988,18.017079 C15.0523707,18.8177124 15.7175519,19.4535927 16.525125,19.4543644 C17.3573725,19.4551348 18.0318065,18.7822429 18.0320642,17.9502524 C18.0328346,17.1180049 17.3589146,16.4523097 16.5269242,16.4433139" id="fingers" fill="#FFFFFF"></path>
                    <path d="M16.5269242,19.3471586 C15.7725553,19.3463875 15.1595502,18.7603701 15.1317915,18.0134549 C15.1297353,17.9494557 15.1233097,17.779048 14.9793756,17.779048 C14.9200028,17.779048 14.8685977,17.8147745 14.8092249,17.8682357 C14.6437007,18.0219368 14.432426,18.1782081 14.1237388,18.1782081 C13.9839171,18.1782081 13.8322723,18.1455659 13.6721456,18.0800245 C12.8756246,17.7574579 12.8645725,17.2105083 12.8969577,16.9904948 C12.9056965,16.931893 12.9087808,16.870721 12.8684279,16.8234284 L12.8193361,16.7794771 L12.7697302,16.7794771 C12.7293772,16.7794771 12.6874821,16.7959267 12.6311936,16.8357656 C12.4006421,16.9974344 12.1798574,17.0760841 11.9552174,17.0760841 C11.8313313,17.0760841 11.7046179,17.0511527 11.5776475,17.0023179 C10.5289848,16.5941619 10.6117469,15.604358 10.6631519,15.3064658 C10.6706056,15.2463219 10.6556982,15.1992863 10.6174014,15.1681863 L10.5433782,15.1072713 L10.4739814,15.1735838 C10.2693893,15.3704651 10.0023402,15.4784157 9.72115464,15.4784157 C9.12074384,15.4776446 8.63188196,14.9898108 8.6323956,14.389143 C8.63291006,13.7882181 9.12202896,13.3006414 9.72269679,13.3014116 C10.2655339,13.3014116 10.7276652,13.7093114 10.796805,14.2516345 L10.8343307,14.5441292 L10.9949714,14.2966139 C11.0129631,14.2675701 11.4529902,13.6021319 12.2618485,13.602903 C12.4158065,13.602903 12.5746481,13.6278344 12.7345177,13.6771833 C13.3796509,13.8740645 13.4888866,14.4587968 13.5055933,14.7024567 C13.5171594,14.8443346 13.6181703,14.8512743 13.6379612,14.8512743 C13.6937357,14.8512743 13.7346027,14.8158048 13.7636465,14.7854758 C13.8854765,14.6585054 14.1504694,14.4472307 14.565308,14.4472307 C14.7549926,14.4477447 14.9572714,14.4927241 15.1657188,14.5824259 C16.1904782,15.022196 15.7257767,16.3245425 15.7201221,16.3381649 C15.6322195,16.554066 15.6286212,16.6494224 15.7113833,16.7044257 L15.7517362,16.7237026 L15.7818082,16.7237026 C15.8278157,16.7237026 15.8853893,16.7036547 15.9802316,16.6715265 C16.1197963,16.6232058 16.3302999,16.5507247 16.5271812,16.5512387 L16.5276952,16.5512387 C17.2992848,16.5594635 17.9266832,17.1876331 17.9264263,17.9502267 C17.9256551,18.7207882 17.2979997,19.3471586 16.5269242,19.3471586 M27.3862377,13.0700898 C25.6937269,11.5929662 21.7818038,8.19226611 20.722346,7.39703022 C20.1173088,6.94158162 19.7042693,6.70126308 19.3418638,6.59331251 C19.1791669,6.54396368 18.9537558,6.48818922 18.6635744,6.48793219 C18.3944691,6.48793219 18.1050587,6.53650995 17.8027971,6.63263736 C17.1180821,6.84930958 16.4359372,7.39137567 15.7761536,7.91570702 L15.7422263,7.94269466 C15.1276791,8.43104249 14.4925699,8.936611 14.0119329,9.04404752 C13.8019433,9.09134016 13.5862992,9.11550052 13.3711691,9.11550052 C12.8327014,9.11472945 12.34898,8.95948624 12.1677772,8.72842061 C12.1379623,8.69012386 12.1569822,8.6281808 12.2271501,8.53899306 L12.236403,8.5271699 L13.7253498,6.92256176 C14.891473,5.75643855 15.9930829,4.65534272 18.5286362,4.596998 C18.5702743,4.59571288 18.6131975,4.5949418 18.6550926,4.5949418 C20.2334842,4.5959699 21.8113617,5.3025321 21.988195,5.38452313 C23.4681459,6.10624981 24.9953895,6.47302473 26.5311149,6.47430986 C28.1313536,6.47482391 29.7824833,6.07874812 31.5184313,5.27939984 C31.3246344,5.11618885 31.1228696,4.95760432 30.9151933,4.80184707 C29.3902629,5.46291581 27.9372996,5.79704853 26.5352273,5.79653448 C25.1035971,5.79524935 23.672995,5.4516067 22.284031,4.77383132 C22.2107788,4.7388759 20.4686622,3.91742345 18.6558637,3.91665238 C18.608571,3.91665238 18.5602503,3.91742345 18.5129577,3.91819453 C16.3829901,3.96805741 15.1831966,4.72422546 14.3766516,5.38709338 C13.5919537,5.40611324 12.9149494,5.59528377 12.3127394,5.76337823 C11.7752998,5.91270986 11.3111123,6.04225054 10.858234,6.04199352 C10.6718907,6.04199352 10.3362159,6.02502986 10.3061439,6.02400176 C9.78541093,6.00832322 7.16272608,5.36498922 5.07645276,4.57489384 C4.86337889,4.72576762 4.65852983,4.88152487 4.4590783,5.0401094 C6.63839473,5.9335289 9.2908945,6.62492661 10.1280255,6.67890189 C10.3608903,6.69406638 10.6091766,6.72053997 10.8572059,6.72105402 C11.4110951,6.72105402 11.9636993,6.56555379 12.4985686,6.41596514 C12.8144526,6.32729146 13.1629787,6.23090702 13.5297536,6.16048212 C13.431827,6.25660954 13.3341575,6.35402208 13.2362309,6.45220569 L11.7233807,8.08868496 C11.6043781,8.20897274 11.3458107,8.52974016 11.5162184,8.92478784 C11.5840731,9.08414345 11.7215815,9.23655938 11.9140934,9.36635709 C12.2744427,9.60898885 12.9200899,9.77322794 13.5197296,9.77374199 C13.7469399,9.77399901 13.96207,9.75112377 14.1602364,9.70665842 C14.7943175,9.56426647 15.4594986,9.03453759 16.1642616,8.47422272 C16.7256046,8.02828405 17.5234107,7.46180057 18.1341026,7.29524826 C18.3047673,7.24898373 18.5142428,7.21993988 18.6828513,7.21993988 C18.7332282,7.22045393 18.7807779,7.22199608 18.8247292,7.22842171 C19.2285157,7.27956972 19.6184229,7.41682116 20.3149611,7.93961036 C21.5566497,8.87235471 27.0521049,13.6797535 27.1058232,13.7273032 C27.1096786,13.7301305 27.4600039,14.0323921 27.4355865,14.5348763 C27.4227352,14.8150337 27.266978,15.0640911 26.9965875,15.236555 C26.7621805,15.3853726 26.5200628,15.461195 26.2753749,15.461195 C25.9080859,15.4604239 25.6551731,15.2884741 25.6387235,15.2766509 C25.6184185,15.2602013 23.7357091,13.5337632 23.0432833,12.9539144 C22.9327625,12.8626705 22.825583,12.7801654 22.7171184,12.7801654 C22.6590307,12.7796514 22.6078827,12.8045828 22.5731843,12.8480201 C22.4642056,12.9821872 22.5862926,13.1682734 22.7302267,13.2908744 L24.929334,15.5012909 C24.9324183,15.5036041 25.2035799,15.757802 25.2331378,16.0968182 C25.2503585,16.4633361 25.0753243,16.7699672 24.7111197,17.0084865 C24.4515242,17.1794083 24.1888445,17.2662828 23.9315623,17.2662828 C23.5938312,17.2662828 23.356597,17.1125817 23.3041639,17.0760841 L22.988794,16.7650837 C22.4120295,16.1978291 21.8167592,15.6112977 21.3811015,15.2476071 C21.2749502,15.1591904 21.161088,15.0777134 21.0531374,15.0777134 C20.9996762,15.0777134 20.9516125,15.0975044 20.9146009,15.1363152 C20.864995,15.1915756 20.8302966,15.2910443 20.9541827,15.4555404 C21.0053307,15.5233951 21.0652176,15.5794266 21.0652176,15.5794266 L22.6700828,17.3819441 C22.6834481,17.3981367 23.0008742,17.7754496 22.7063233,18.1512204 L22.6495208,18.2231875 C22.6017141,18.2761347 22.549795,18.3247124 22.5004462,18.3671216 C22.2267144,18.5917616 21.8609675,18.6156649 21.7160053,18.6156649 C21.6388978,18.6156649 21.5641035,18.6089823 21.4993331,18.5971591 C21.3407486,18.5688863 21.2343402,18.524678 21.1829351,18.463763 L21.1636583,18.4434581 C21.0757556,18.3529852 20.2668974,17.5271633 19.5973469,16.9683906 C19.5094442,16.8943673 19.3994375,16.8013242 19.2853183,16.8013242 C19.2292868,16.8013242 19.1791669,16.8234284 19.1406131,16.8660946 C19.0079881,17.0110568 19.2069256,17.227986 19.2912299,17.3074068 L20.6601459,18.8169156 C20.6586038,18.8302809 20.6413831,18.861381 20.6082269,18.9091877 C20.559135,18.9770423 20.3930968,19.1430806 19.8965242,19.2052807 C19.8371513,19.2132484 19.7757223,19.2163327 19.7148074,19.2163327 C19.2028132,19.2163327 18.6566347,18.9677894 18.3751922,18.8184578 C18.5031907,18.5480673 18.5697602,18.2499181 18.5697602,17.9509978 C18.5702743,16.8244565 17.6555217,15.9079047 16.5289804,15.9071337 C16.50482,15.9071337 16.4791175,15.9079047 16.4552141,15.9086758 C16.4919687,15.3943684 16.4192306,14.420243 15.4194027,13.9915251 C15.1317915,13.8671249 14.8446944,13.8036397 14.5658221,13.8036397 C14.3476077,13.8036397 14.1376182,13.8409083 13.9402228,13.9167307 C13.7330605,13.5142293 13.3891609,13.2209636 12.9403949,13.0680336 C12.6926226,12.9821872 12.4458785,12.9387499 12.2073591,12.9387499 C11.7914924,12.9387499 11.4082679,13.061351 11.0664244,13.3044968 C10.7387173,12.8971119 10.2442009,12.6560223 9.72295381,12.6560223 C9.26724818,12.6560223 8.82876324,12.8385101 8.5036264,13.1603056 C8.07773569,12.8349118 6.38753816,11.7610606 1.86389514,10.733988 C1.64490969,10.6846392 1.14216846,10.540191 0.833995277,10.4502322 C0.783104293,10.6951772 0.744036467,10.9426925 0.71833395,11.1922639 C0.71833395,11.1922639 1.55263766,11.3922295 1.71687674,11.4289841 C6.3379323,12.4555426 7.86491885,13.5227111 8.12297212,13.7244759 C8.03558356,13.9342084 7.99009011,14.1609046 7.98957605,14.389143 C7.989062,15.3437345 8.76553505,16.1212356 9.72115464,16.1220067 C9.82807711,16.1220067 9.9342285,16.1127538 10.0385807,16.0934769 C10.1822578,16.7959267 10.6420758,17.3284829 11.3447826,17.6019576 C11.5501458,17.6808644 11.7578221,17.7214743 11.9616431,17.7214743 C12.093754,17.7217314 12.226379,17.7050247 12.3559197,17.6718685 C12.4854604,18.0016318 12.777698,18.412358 13.4302849,18.677608 C13.6592943,18.769623 13.8880467,18.8176867 14.1106305,18.8176867 C14.2923473,18.8176867 14.4699517,18.7858156 14.6393313,18.7236155 C14.9521309,19.4854381 15.6967329,19.9902375 16.5264101,19.9902375 C17.076444,19.9910066 17.6043737,19.7668807 17.9893974,19.3705478 C18.3194177,19.5538068 19.0151848,19.8853693 19.7181487,19.8863974 C19.8093926,19.8863974 19.894725,19.8797147 19.9800573,19.8696907 C20.6781377,19.7812741 21.0032745,19.5083133 21.1526062,19.2960105 C21.1795938,19.2589989 21.2037542,19.2196741 21.2243162,19.1788071 C21.3893264,19.2260997 21.5705291,19.2649105 21.7782054,19.2654245 C22.1596308,19.2654245 22.5256346,19.1353698 22.8954939,18.8657504 C23.2589275,18.6035847 23.5172377,18.2275569 23.5545064,17.9070465 C23.5552775,17.9029341 23.5560485,17.8980506 23.5565626,17.8934242 C23.6789066,17.9186126 23.8045919,17.9317209 23.9302772,17.9317209 C24.3227546,17.9317209 24.7090635,17.809377 25.0781516,17.5675163 C25.7898543,17.1007586 25.9137404,16.4913519 25.9019173,16.0921918 C26.0263175,16.1181513 26.1535449,16.1315166 26.2800013,16.1315166 C26.6488324,16.1315166 27.0104669,16.0207388 27.3556517,15.8007252 C27.7969639,15.5187686 28.0624709,15.0869663 28.1025668,14.5844821 C28.1303255,14.2428957 28.0455072,13.8982249 27.8653326,13.6018749 C29.0581864,13.0880816 31.7839383,12.0936512 34.9939257,11.3703824 C34.9743918,11.121325 34.9386653,10.8756089 34.8941999,10.6309209 C31.0102926,11.4927263 28.1120767,12.7470092 27.3862377,13.0700898" id="handoutline" fill="#2D3277"></path>
                    <path d="M82.5260533,20.2673344 C82.2142818,20.68243 81.766544,20.8898493 81.1830968,20.8898493 C80.5993927,20.8898493 80.1495986,20.68243 79.8357709,20.2673344 C79.5196299,19.8535238 79.3628446,19.2636511 79.3628446,18.4995152 C79.3628446,17.7356364 79.5196299,17.1470488 79.8357709,16.7352945 C80.1495986,16.321998 80.5993927,16.1168919 81.1830968,16.1168919 C81.766544,16.1168919 82.2142818,16.321998 82.5260533,16.7352945 C82.839367,17.1470488 82.9948673,17.7356364 82.9948673,18.4995152 C82.9948673,19.2636511 82.839367,19.8535238 82.5260533,20.2673344 M84.1229507,15.6398532 C83.4778176,14.8322801 82.4998368,14.4295216 81.1882373,14.4295216 C79.8789511,14.4295216 78.9007133,14.8322801 78.2566082,15.6398532 C77.6119891,16.4461411 77.2901936,17.3989335 77.2901936,18.4995152 C77.2901936,19.6188599 77.6119891,20.5749935 78.2566082,21.3715145 C78.9007133,22.1646942 79.8789511,22.5630832 81.1882373,22.5630832 C82.4998368,22.5630832 83.4778176,22.1646942 84.1229507,21.3715145 C84.7665418,20.5749935 85.0873092,19.6188599 85.0873092,18.4995152 C85.0873092,17.3989335 84.7665418,16.4461411 84.1229507,15.6398532" id="pago_o" fill="#009EE3"></path>
                    <path d="M71.2460667,18.5582712 C71.2460667,19.8971153 71.6331467,20.639147 72.4067924,20.7859084 C73.178896,20.9290714 73.750006,20.7496678 74.117552,20.2458985 C74.291815,20.0338527 74.4167293,19.6979208 74.4940938,19.2427292 C74.5709444,18.7870236 74.5768559,18.3354304 74.5090013,17.8892347 C74.4424318,17.4417538 74.281791,17.0438789 74.0301634,16.6945817 C73.7795639,16.3460555 73.4117608,16.1705074 72.9282965,16.1705074 C72.2705691,16.1705074 71.8269436,16.4141672 71.5943359,16.8973745 C71.360957,17.3836662 71.2460667,17.9365273 71.2460667,18.5582712 M74.5526956,21.905253 L74.5526956,21.4122787 C74.2049405,21.956658 73.7350985,22.293875 73.1457398,22.4308695 C72.555353,22.5658077 71.9708777,22.5174869 71.392057,22.2841081 C70.8114372,22.0522714 70.3128083,21.619955 69.8966846,20.9899863 C69.482103,20.3571904 69.2741696,19.5275131 69.2741696,18.4988984 C69.2741696,17.2970487 69.5497006,16.3206101 70.0999915,15.5736949 C70.6515675,14.8267798 71.5367622,14.4859644 72.7545475,14.4525511 C73.954855,14.420937 74.6526784,14.6926126 75.3358513,15.2100043 C76.0827664,15.7770018 76.5246005,16.646775 76.5246005,18.0043819 L76.5246005,22.1108731 C76.527677,23.4175891 75.6165228,25.8392803 72.7545475,25.6339171 C70.9815878,25.5054046 69.9976955,24.7780233 69.4484327,23.1299779 L71.565292,23.1299779 C71.7200212,23.4008825 71.9564843,23.6095869 72.2772517,23.754035 C72.5944208,23.9015675 72.9151882,23.9393502 73.2321002,23.8712385 C73.5508115,23.8033839 73.8415069,23.6134423 74.1039296,23.304241 C74.3635251,22.9934976 74.5131137,22.5269969 74.5526956,21.905253" id="pago_g" fill="#009EE3"></path>
                    <path d="M66.540784,19.3679776 C66.5281898,20.0380422 66.335935,20.4981173 65.9678749,20.7515441 C65.6000719,21.0039428 65.1973135,21.1303992 64.7606277,21.1303992 C64.4840686,21.1303992 64.2501757,21.0540627 64.0579209,20.9024179 C63.865152,20.750516 63.7687676,20.5027437 63.7687676,20.1609002 C63.7687676,19.7779327 63.926324,19.494434 64.2416939,19.3114321 C64.4293223,19.2042526 64.7346682,19.1122375 65.161844,19.0392424 L65.6175496,18.9544241 C65.8455309,18.9112439 66.0241634,18.8657504 66.1531901,18.8161445 C66.2858151,18.7680808 66.4132996,18.7043386 66.540784,18.6236327 L66.540784,19.3679776 Z M67.5562905,15.0065175 C66.9026755,14.6762401 66.1552463,14.5089167 65.314774,14.5089167 C64.0206522,14.5089167 63.1089839,14.8461337 62.5774559,15.5192827 C62.2440942,15.9503139 62.0559518,16.5003478 62.0127716,17.1701554 L63.9453439,17.1701554 C63.9926365,16.8745764 64.0869647,16.6406835 64.2301277,16.4679626 C64.4293223,16.2340697 64.7683406,16.1168662 65.2461482,16.1168662 C65.6753803,16.1168662 65.9982039,16.175725 66.2189885,16.2960127 C66.4390021,16.4155294 66.5497799,16.6316876 66.5497799,16.9455154 C66.5497799,17.2030546 66.4063599,17.3924821 66.1179776,17.5145691 C65.9578509,17.584737 65.6918299,17.6430817 65.3178583,17.6901173 L64.6331432,17.7736505 C63.8556421,17.8720911 63.2647412,18.0368442 62.8655811,18.2661107 C62.1333164,18.6873749 61.7683406,19.3679776 61.7683406,20.3086897 C61.7683406,21.0337577 61.9942658,21.5951007 62.4499714,21.9904054 C62.9028498,22.3857101 63.4801283,22.5525195 64.1769235,22.5846476 C68.5442952,22.7797297 68.4954605,20.2822161 68.5352994,19.7630253 L68.5352994,16.8887128 C68.5352994,15.9667635 68.2093915,15.3398791 67.5562905,15.0065175 L67.5562905,15.0065175 Z" id="pago_a" fill="#009EE3"></path>
                    <path d="M59.2065451,18.5572688 C59.2065451,17.7998156 59.0590126,17.2176536 58.7626626,16.8089836 C58.4675977,16.4026268 58.0445343,16.1967496 57.4932153,16.1967496 C56.9622013,16.1967496 56.5483907,16.4026268 56.2517837,16.8089836 C55.9772808,17.1785858 55.8400294,17.762804 55.8400294,18.5572688 C55.8400294,19.2977583 55.9873048,19.8488203 56.2828837,20.2184225 C56.5774346,20.6270925 57.0012691,20.8306564 57.5523311,20.8306564 C58.0635541,20.8306564 58.4675977,20.6270925 58.7626626,20.2184225 C59.0590126,19.8105235 59.2065451,19.2586905 59.2065451,18.5572688 L59.2065451,18.5572688 Z M55.8400294,23.9923231 C55.8400294,24.2642557 55.7413317,24.4976346 55.5434223,24.6914315 C55.3475691,24.8859996 55.111106,24.9831551 54.8350609,24.9831551 L53.8321487,24.9831551 L53.8321487,18.0031225 C53.8321487,16.6457726 54.2893965,15.7955333 55.0424803,15.2210821 C55.539824,14.8411989 56.2813416,14.4787934 57.6703056,14.4787934 C58.6081905,14.4787934 59.706459,14.842741 60.2999301,15.5660098 C60.9656253,16.3794945 61.2432125,17.2860223 61.2432125,18.4698802 C61.2432125,19.6946052 60.9478906,20.6826099 60.3577608,21.4421193 C59.767374,22.1810667 59.0086357,22.5488697 58.0836021,22.5488697 C57.5916559,22.5488697 57.1588255,22.4612241 56.7848539,22.2877321 C56.3898062,22.0929071 56.0764925,21.7921876 55.8400294,21.3837746 L55.8400294,23.9923231 Z" id="pago_p" fill="#009EE3"></path>
                    <path d="M94.8863424,9.12010127 C94.5735428,9.5349399 94.1268331,9.74235921 93.5423578,9.74235921 C92.9591677,9.74235921 92.5098877,9.5349399 92.1950319,9.12010127 C91.879919,8.7057767 91.7226196,8.1156469 91.7226196,7.35099702 C91.7226196,6.58737523 91.879919,5.99878759 92.1950319,5.58651921 C92.5098877,5.17399381 92.9591677,4.96785962 93.5423578,4.96785962 C94.1268331,4.96785962 94.5735428,5.17399381 94.8863424,5.58651921 C95.198628,5.99878759 95.3551564,6.58737523 95.3551564,7.35099702 C95.3551564,8.1156469 95.198628,8.7057767 94.8863424,9.12010127 M96.4822117,4.49133496 C95.8381067,3.68427592 94.8606399,3.28100342 93.5485264,3.28100342 C92.2382121,3.28100342 91.2604883,3.68427592 90.6168973,4.49133496 C89.9722782,5.29787995 89.6499686,6.25118631 89.6499686,7.35099702 C89.6499686,8.47059866 89.9722782,9.42724635 90.6168973,10.2237674 C91.2604883,11.0174611 92.2382121,11.4158501 93.5485264,11.4158501 C94.8606399,11.4158501 95.8381067,11.0174611 96.4822117,10.2237674 C97.1268309,9.42724635 97.4481123,8.47059866 97.4481123,7.35099702 C97.4481123,6.25118631 97.1268309,5.29787995 96.4822117,4.49133496" id="mercado_o" fill="#2D3277"></path>
                    <path d="M86.6429797,9.1366794 C86.349714,9.55717258 85.9191969,9.76690512 85.3552836,9.76690512 C84.7895712,9.76690512 84.368821,9.55511638 84.0917479,9.13308104 C83.8146747,8.71027464 83.6761382,8.09469935 83.6761382,7.39045038 C83.6761382,6.73683537 83.8115904,6.18962878 84.0848082,5.74857358 C84.3572549,5.30803244 84.7849448,5.08673377 85.368906,5.08673377 C85.7518735,5.08673377 86.0872913,5.20830667 86.3774727,5.45068141 C86.8488569,5.85241175 87.084292,6.57259628 87.084292,7.50534063 C87.084292,8.172835 86.9372736,8.71644324 86.6429797,9.1366794 L86.6429797,9.1366794 Z M89.0525907,0.930636741 C89.0525907,0.930636741 87.0290315,0.714478572 87.0290315,2.33990576 L87.0274894,4.49172049 C86.8036205,4.13214228 86.5124109,3.85095674 86.1530898,3.64842091 C85.7945396,3.44562805 85.3840704,3.34333203 84.9206541,3.34333203 C83.9172278,3.34333203 83.1173655,3.71730365 82.5169547,4.46344773 C81.9165439,5.21087692 81.6178806,6.28729834 81.6178806,7.58913084 C81.6178806,8.71849944 81.9221984,9.64481816 82.531091,10.3657738 C83.1399837,11.0859583 84.3343796,11.4020993 85.3951225,11.4020993 C89.0937147,11.4020993 89.0510486,8.23040864 89.0510486,8.23040864 L89.0525907,0.930636741 Z" id="mercado_d" fill="#2D3277"></path>
                    <path d="M79.0090237,8.17810402 C78.9954014,8.84739757 78.8036606,9.30850072 78.4353435,9.56141349 C78.0667694,9.81432626 77.664268,9.94103967 77.2278393,9.94103967 C76.9512802,9.94103967 76.7173873,9.86444617 76.5246184,9.71254429 C76.3323636,9.56038539 76.2364932,9.31312718 76.2364932,8.9712837 C76.2364932,8.58780214 76.3935356,8.30481743 76.7083914,8.12181551 C76.8960198,8.01463601 77.2018797,7.92236397 77.6290556,7.8491118 L78.0852752,7.76455052 C78.3122285,7.72137029 78.490861,7.67536278 78.6214297,7.62601395 C78.7535407,7.57795024 78.8810252,7.51446503 79.0090237,7.43375912 L79.0090237,8.17810402 Z M80.0235021,3.81664388 C79.3704011,3.48533843 78.6229719,3.31827207 77.7817285,3.31827207 C76.4888919,3.31827207 75.5764525,3.65600315 75.0451815,4.32915207 C74.7107918,4.76069734 74.5236774,5.31047418 74.4799832,5.97976773 L76.4117843,5.97976773 C76.459334,5.6844458 76.5541763,5.4505529 76.6968253,5.27757496 C76.8960198,5.04368205 77.2345219,4.9267356 77.7133598,4.9267356 C78.1415638,4.9267356 78.4649014,4.98533734 78.6862001,5.10613917 C78.9062136,5.22514182 79.0169915,5.44181404 79.0169915,5.7548707 C79.0169915,6.01292397 78.8740855,6.20183747 78.5854462,6.32418146 C78.4248055,6.39460635 78.1585274,6.45295107 77.7850698,6.49972965 L77.1003548,6.5840339 C76.3223396,6.68196049 75.7319528,6.8464566 75.3317646,7.07623711 C74.600528,7.49775839 74.2350382,8.17810402 74.2350382,9.1193302 C74.2350382,9.84414118 74.4614773,10.4054842 74.9166689,10.8010459 C75.3700613,11.1966076 75.9473399,11.3626459 76.6441351,11.3950311 C81.0125349,11.5898561 80.9634431,9.0928566 81.003539,8.57340873 L81.003539,5.69883921 C81.003539,4.77740397 80.676089,4.14923445 80.0235021,3.81664388 L80.0235021,3.81664388 Z" id="mercado_a" fill="#2D3277"></path>
                    <path d="M70.0623373,5.03054806 C70.5617372,5.03054806 70.9282551,5.18476317 71.1652323,5.49293635 C71.3279293,5.7211747 71.4291972,5.9784569 71.4690361,6.26349781 L73.6234211,6.26349781 C73.5054465,5.17628134 73.1250493,4.417286 72.4830004,3.98728289 C71.8383813,3.55907896 71.0130734,3.34343484 70.0039926,3.34343484 C68.8173074,3.34343484 67.8850771,3.70815356 67.2119282,4.43579182 C66.536723,5.16445818 66.199506,6.18253488 66.199506,7.49156408 C66.199506,8.65074761 66.5045949,9.59557214 67.1150297,10.3237244 C67.7259785,11.0513627 68.6787708,11.4158244 69.9728926,11.4158244 C71.2690705,11.4158244 72.2475653,10.9793957 72.9065779,10.1062812 C73.3203884,9.56550019 73.5522251,8.99104893 73.6010599,8.38395548 L71.4533575,8.38395548 C71.4096633,8.78517177 71.284235,9.11262184 71.0763016,9.36450651 C70.8691393,9.6156201 70.5200991,9.74233351 70.0260968,9.74233351 C69.3303296,9.74233351 68.8571463,9.42542147 68.6055186,8.7895412 C68.4680102,8.450525 68.3980993,8.00150202 68.3980993,7.4427293 C68.3980993,6.85645488 68.4680102,6.38661287 68.6055186,6.03166111 C68.8671703,5.36493781 69.3529478,5.03054806 70.0623373,5.03054806" id="mercado_c" fill="#2D3277"></path>
                    <path d="M65.6216363,3.34333203 C61.1954058,3.34333203 61.4570575,7.26270887 61.4570575,7.26270887 L61.4570575,11.2437718 L63.4659662,11.2437718 L63.4659662,7.50971006 C63.4659662,6.89799015 63.5433308,6.44485477 63.6965178,6.15030393 C63.9720488,5.6282858 64.5102595,5.36612013 65.3139772,5.36612013 C65.3741211,5.36612013 65.4540559,5.36946146 65.5519825,5.37383088 C65.6496521,5.37871436 65.7606869,5.38745322 65.8886855,5.40236068 L65.8886855,3.35849651 C65.7992407,3.35232791 65.7416671,3.34975766 65.7164786,3.34744443 C65.6910331,3.34538823 65.659162,3.34333203 65.6216363,3.34333203" id="mercado_r" fill="#2D3277"></path>
                    <path d="M55.542934,5.42361666 C55.8256617,5.13343524 56.2222515,4.98795899 56.7342456,4.98795899 C57.2051158,4.98795899 57.5991353,5.12443936 57.9178466,5.39919927 C58.2352726,5.6731881 58.412877,6.07568952 58.4486035,6.6043903 L55.01192,6.6043903 C55.08363,6.10756064 55.2612344,5.71456915 55.542934,5.42361666 L55.542934,5.42361666 Z M58.2432404,9.16384696 C58.1589362,9.28413474 58.0679493,9.38720183 57.9682235,9.46739368 C57.6844677,9.70128659 57.2989299,9.77222554 56.8450235,9.77222554 C56.4157915,9.77222554 56.0801166,9.70719817 55.7757988,9.51545739 C55.2748567,9.20754124 54.9926431,8.68603716 54.9625711,7.92087323 L60.5207405,7.92087323 C60.5281942,7.26211771 60.5071181,6.7575773 60.4539139,6.40648092 C60.3616419,5.80889739 60.158335,5.28199579 59.8465634,4.82886041 C59.4998365,4.31481007 59.0590383,3.93852522 58.5272532,3.69923478 C57.9957252,3.46225757 57.3978846,3.34274087 56.7342456,3.34274087 C55.614644,3.34274087 54.70606,3.69563643 54.0054094,4.40039945 C53.3045017,5.10670462 52.9526343,6.11912677 52.9526343,7.44100723 C52.9526343,8.85207542 53.3412563,9.87040915 54.1182434,10.4960084 C54.8939454,11.1218647 55.7909633,11.4354354 56.8059557,11.4354354 C58.0358211,11.4354354 58.9932399,11.0642911 59.6764128,10.3220024 C60.0449869,9.93132412 60.2757955,9.54475826 60.373208,9.16384696 L58.2432404,9.16384696 Z" id="mercado_e" fill="#2D3277"></path>
                    <path d="M52.146372,11.2430778 L50.3114693,11.2430778 L50.3114693,6.6227933 C50.3114693,6.20075797 50.1719112,5.19681765 48.9615731,5.19681765 C48.1550281,5.19681765 47.5710669,5.77872264 47.5710669,6.6227933 L47.5710669,11.2430778 L45.7343651,11.2430778 L45.7343651,6.6227933 C45.7343651,6.20075797 45.6089368,5.19681765 44.3993763,5.19681765 C43.5784379,5.19681765 43.0078421,5.77872264 43.0078421,6.6227933 L43.0078421,11.2430778 L41.1719112,11.2430778 L41.1719112,6.6667446 C41.1719112,4.75910378 42.4375032,3.31667852 44.3993763,3.31667852 C45.3732447,3.31667852 46.1653963,3.72586259 46.6807318,4.38101975 C47.2227978,3.72586259 48.0293428,3.31667852 48.9615731,3.31667852 C50.9645703,3.31667852 52.146372,4.70075907 52.146372,6.6667446 L52.146372,11.2430778 Z" id="mercado_m" fill="#2D3277"></path>
                </g>
            </g>
        </g>
    </g>
</svg>