<?xml version="1.0" encoding="utf-8"?>
<svg width="58px" height="32px" viewBox="0 0 58 32" version="1.1" xmlns="http://www.w3.org/2000/svg">
  <title>MyBank</title>
  <desc>Created with Sketch.</desc>
  <defs>
    <polygon id="path-1" points="3.76266281e-05 0.0116074359 51.9528915 0.0116074359 51.9528915 29 3.76266281e-05 29"/>
  </defs>
  <g id="Page-1" stroke="none" stroke-width="1" fill="none" fill-rule="evenodd" transform="matrix(1.10389, 0, 0, 1.10389, -0.000003, -0.001206)">
    <g id="SPB_&amp;_AltPay_NewAssets" transform="translate(-234.000000, -615.000000)">
      <g id="Group-4-Copy" transform="translate(100.000000, 606.000000)">
        <g id="MyBank" transform="translate(134.000000, 9.000000)">
          <path d="M35.3660042,17.6666255 C35.3660042,17.6666255 34.0706241,17.9304491 34.0841736,17.0105587 C34.0979502,16.0907434 36.4439106,16.145716 36.6843201,16.2202145 C36.6843201,16.2202145 36.7581234,17.2640186 35.3660042,17.6666255 M35.7558369,11.8638586 C33.7418021,11.8453091 32.8002236,12.9943272 32.8002236,12.9943272 C32.1886782,13.6378525 32.5807818,14.5092288 33.1805943,14.5721619 C34.042541,14.6625814 34.0335332,13.9458344 35.3565422,13.6281647 C36.5171083,13.3493964 36.5673703,14.4161058 36.5673703,14.4161058 C31.6175543,14.2939944 31.8538762,18.4149142 33.5389377,19.2901206 C35.1547376,20.1292794 36.6650934,19.0706056 36.6650934,19.0706056 C36.6650934,19.0706056 36.7218651,19.6409091 37.5212872,19.6409091 C38.4361451,19.6409091 38.4347826,18.7351373 38.4347826,18.7351373 L38.4310735,14.7240126 C38.3708955,11.7893601 35.7558369,11.8638586 35.7558369,11.8638586" id="Fill-1" fill="#FFFFFF"/>
          <path d="M51.7103667,18.0201935 L49.6979908,15.0155176 L51.1770041,13.6281624 C51.1770041,13.6281624 51.859672,13.0013177 51.299211,12.3800893 C50.6780617,11.6919155 49.9377247,12.3711782 49.9377247,12.3711782 L48.0791832,14.0838996 L48.0791832,10.6461011 C48.0791832,10.1535215 47.676859,9.75454545 47.180483,9.75454545 C46.6836541,9.75454545 46.2813299,10.1535215 46.2813299,10.6461011 L46.2813299,18.7353251 C46.2813299,19.227755 46.6836541,19.6268808 47.180483,19.6268808 C47.676859,19.6268808 48.0791832,19.227755 48.0791832,18.7353251 L48.0791832,16.5816932 L48.4191585,16.24487 L50.2398076,19.0753683 C50.2398076,19.0753683 50.8331792,20.0581313 51.7071209,19.4326346 C52.3642001,18.9625198 51.7103667,18.0201935 51.7103667,18.0201935" id="Fill-3" fill="#FFFFFF"/>
          <path d="M45.2147775,14.6112093 C45.2147775,11.691947 42.7856771,11.2806168 41.1337663,12.2066709 C41.1324968,12.2077183 41.1310032,12.2109353 41.1301817,12.2118331 C41.005915,11.8567634 40.6718735,11.6 40.2747279,11.6 C39.7728069,11.6 39.3657289,12.0080383 39.3657289,12.5112408 L39.3657289,18.5978502 C39.3657289,19.1012022 39.7728069,19.5090909 40.2747279,19.5090909 C40.7770223,19.5090909 41.1842497,19.1012022 41.1842497,18.5978502 L41.1717035,14.4915061 C41.1717035,14.4915061 41.3922321,14.2283834 41.7462877,13.9767822 C42.5967379,13.3728047 43.407608,13.5785446 43.407608,14.6108352 L43.4284436,18.6126634 C43.4284436,19.1080851 43.8288005,19.5090909 44.3231042,19.5090909 C44.8170344,19.5090909 45.2173913,19.1080851 45.2173913,18.6126634 L45.2147775,14.6112093 Z" id="Fill-5" fill="#FFFFFF"/>
          <path d="M18.9707258,19.6792425 C19.18012,19.329932 19.2166082,19.0839155 19.2166082,19.0839155 L17.1520968,13.6963639 C17.1520968,13.6963639 16.7775297,12.6538296 17.6030189,12.3450721 C18.4775344,12.0175748 18.7932399,12.8515723 18.8589337,13.0264524 C18.9246275,13.2013325 20.1632742,16.4942957 20.1632742,16.4942957 L21.3558227,13.0340233 C21.3558227,13.0340233 21.6974303,11.958132 22.6526554,12.3417739 C23.4420317,12.6590767 23.0365322,13.7143541 23.0365322,13.7143541 C23.0365322,13.7143541 21.8160545,17.3197478 20.7930335,19.9355284 C20.1819688,21.4982805 19.6600975,21.6522469 19.0638232,21.7987924 C18.2658128,21.9950359 16.7570332,21.8978137 16.7570332,20.9071512 C16.7570332,20.1257752 17.5583471,20.0770516 17.9197755,20.0886703 C17.9391458,20.0890451 18.6862529,20.1536601 18.9707258,19.6792425" id="Fill-7" fill="#FFFFFF"/>
          <path d="M14.1011917,10.7023322 L12.2076968,15.9005057 L10.14334,10.7339625 C10.14334,10.7339625 9.83747587,9.75454545 8.97676216,9.75454545 C7.97953964,9.75454545 8.01193412,10.5405076 7.98948399,10.7339625 C7.9671092,10.9275674 7.98948399,18.8131229 7.98948399,18.8131229 C7.98948399,18.8131229 7.97953964,19.6409091 8.89441993,19.6409091 C9.82933958,19.6409091 9.78451467,18.8057025 9.7918976,18.8057025 C9.79935586,18.8057025 9.7918976,14.6428613 9.7918976,14.6428613 L11.3102192,18.8057025 C11.3102192,18.8057025 11.5344944,19.6241945 12.2375299,19.6092787 C12.9405654,19.5945129 13.1424658,18.8057025 13.1424658,18.8057025 L14.4139867,14.6503567 L14.4139867,18.8057025 C14.4139867,18.8057025 14.4139867,19.6409091 15.3339145,19.6409091 C16.2238586,19.6409091 16.2238586,18.8057025 16.2238586,18.8057025 L16.2250639,10.7414579 C16.2250639,10.7414579 16.2250639,9.75454545 15.2590305,9.75926752 C14.4579076,9.7630152 14.1536255,10.5270909 14.1011917,10.7023322 C14.0951648,10.7227945 14.0923773,10.7339625 14.0923773,10.7339625" id="Fill-9" fill="#FFFFFF"/>
          <g id="Group-13">
            <mask id="mask-2" fill="white">
              <polygon id="" points="3.76266281e-05 0.0116074359 51.9528915 0.0116074359 51.9528915 29 3.76266281e-05 29" transform="matrix(1, 0, 0, 1, 0, 0)"/>
            </mask>
            <g id="Clip-12"/>
            <path d="M51.9529291,22.5924203 L35.9887786,22.5924203 L24.2670304,22.5905613 L24.2751577,22.603351 C21.9583357,25.2859997 18.5171548,26.9920921 14.668026,26.9920921 C7.68934009,26.9920921 2.03202605,21.4015613 2.03202605,14.5058818 C2.03202605,7.61012795 7.68934009,2.02011769 14.668026,2.02011769 C18.5336353,2.02011769 21.9912967,3.73595103 24.3085702,6.43823051 L26.845809,6.43823051 C24.212848,2.56502026 19.7449117,0.0116074359 14.668026,0.0116074359 C6.56731404,0.0116074359 3.76266281e-05,6.50098949 3.76266281e-05,14.5058818 C3.76266281e-05,22.5107741 6.56731404,29.0000074 14.668026,29.0000074 C18.9177279,29.0000074 22.7367554,27.2074356 25.4140405,24.3530177 L50.7505326,24.3281074 L51.9529291,22.5924203 Z" id="Fill-11" fill="#FFFFFF" mask="url(#mask-2)"/>
          </g>
          <path d="M28.7271169,17.7555319 L26.18246,17.7555319 L26.18246,15.3497145 L28.7271169,15.3497145 C29.342572,15.3811504 29.9401529,15.6917852 29.9401529,16.5527722 C29.9401529,17.437001 29.39672,17.7555319 28.7271169,17.7555319 Z M26.18246,11.5826914 L28.5543089,11.5826914 C29.0293996,11.5948337 29.5281473,11.8461722 29.5281473,12.5487876 C29.5281473,13.2809023 29.0920341,13.514735 28.5543089,13.514735 L26.18246,13.514735 L26.18246,11.5826914 Z M30.7317956,14.2436464 C30.7802359,14.1776458 31.3889318,13.6885265 31.340867,12.3879578 C31.2439113,9.7547886 28.9383768,9.78480918 28.4280636,9.76946367 C27.6060049,9.74495556 27.1111625,9.7547886 25.6023026,9.76946367 C24.3282843,9.78197845 24.3375969,10.9305075 24.3375969,10.9305075 L24.3375959,19.5090909 L28.6320387,19.5090909 C30.9302883,19.5090909 31.7851662,18.2541863 31.7851662,16.4997334 C31.7851662,14.734479 30.7317956,14.2436464 30.7317956,14.2436464 Z" id="Fill-14" fill="#FFFFFF"/>
        </g>
      </g>
    </g>
  </g>
</svg>