<svg width="54px" height="26px" viewBox="0 0 54 26" version="1.1" xmlns="http://www.w3.org/2000/svg">
    <g id="Page-1" stroke="none" stroke-width="1" fill="none" fill-rule="evenodd">
        <g id="SPB_&amp;_AltPay_NewAssets" transform="translate(-233.000000, -635.000000)" fill="#FFFFFF">
            <g id="SPBbutton-iDEAL-Copy-4" transform="translate(100.000000, 624.000000)">
                <g id="logo-OXXO-Copy" transform="translate(133.000000, 11.000000)">
                    <path d="M53.9388054,2.69445231 L0.18318898,2.69445231 L0.18318898,22.7662257 L53.9388054,22.7662257 L53.9388054,23.5314785 C53.9388054,24.4595995 53.185759,25.218747 52.2647912,25.218747 L1.85717264,25.218747 C0.936204818,25.218747 0.183158394,24.4595995 0.183158394,23.5314785 L0.183158394,1.92969292 C0.183158394,1.0015719 0.936204818,0.242116055 1.85717264,0.242116055 L52.2647912,0.242116055 C53.185759,0.242116055 53.9388054,1.0015719 53.9388054,1.92969292 L53.9388054,2.69445231 Z" id="Combined-Shape"></path>
                    <path d="M45.7396225,7.907409 C43.2801398,7.907409 41.2751767,9.92892443 41.2751767,12.4080251 C41.2751767,14.8865091 43.2801398,16.9083329 45.7396225,16.9083329 C48.1984934,16.9083329 50.2034566,14.8865091 50.2034566,12.4080251 C50.2034566,9.92892443 48.1984934,7.907409 45.7396225,7.907409" id="Fill-6"></path>
                    <path d="M8.94324162,7.907409 C6.48345309,7.907409 4.47848993,9.92892443 4.47848993,12.4080251 C4.47848993,14.8865091 6.48345309,16.9083329 8.94324162,16.9083329 C11.4018067,16.9083329 13.4070757,14.8865091 13.4070757,12.4080251 C13.4070757,9.92892443 11.4018067,7.907409 8.94324162,7.907409" id="Fill-7"></path>
                    <path d="M45.7396225,19.518388 C41.8547961,19.518388 38.686312,16.3245416 38.686312,12.4082409 C38.686312,8.4910152 41.8547961,5.29778553 45.7396225,5.29778553 C49.6247548,5.29778553 52.7926272,8.4910152 52.7926272,12.4082409 C52.7926272,16.3245416 49.6247548,19.518388 45.7396225,19.518388 Z M15.9958181,12.4082409 C15.9958181,16.3245416 12.8279457,19.518388 8.94311927,19.518388 C5.05737525,19.518388 1.88980873,16.3245416 1.88980873,12.4082409 C1.88980873,8.4910152 5.05737525,5.29778553 8.94311927,5.29778553 C12.8279457,5.29778553 15.9958181,8.4910152 15.9958181,12.4082409 Z M45.3894039,3.94661399 C41.2565187,3.85071843 39.3136467,6.52222692 36.4938519,9.81721072 L33.8337199,12.9250286 L38.0461307,18.0084184 C39.0496829,19.5704985 37.1343389,21.1205531 35.9460427,19.69137 L32.0514285,15.0082132 L28.2565272,19.4431516 C27.0480437,20.8547589 25.1544164,19.2775699 26.1793793,17.7302904 L30.2991121,12.9009776 L27.600135,9.6550208 L29.3365463,7.48734944 L32.0814036,10.8113178 L34.4472907,8.03682176 C35.6083647,6.67639984 36.7923788,4.87350163 38.3269173,3.94661399 L0.183066633,3.94661399 L0.183066633,21.5146191 L9.1012529,21.5146191 C13.2344439,21.5146191 15.1109426,19.0231846 17.8542706,15.6640648 L20.4428294,12.4942694 L16.1144948,7.51078373 C15.0763796,5.97244626 16.9553252,4.37860653 18.1763493,5.7797301 L22.1764879,10.3713082 L25.8698411,5.84910792 C27.0455968,4.40913277 28.9743988,5.94253671 27.9852225,7.51325049 L23.9768255,12.4378421 L26.7495168,15.6199714 L25.0024001,17.7056227 L22.2425553,14.567587 L19.9409004,17.3957351 C18.8113308,18.7829831 17.6676912,20.5522717 16.1545634,21.5146191 L53.9387137,21.5146191 L53.9387137,3.94661399 L45.3894039,3.94661399 Z" id="Fill-8"></path>
                </g>
            </g>
        </g>
    </g>
</svg>
