<?xml version="1.0" encoding="UTF-8"?>
<svg width="61px" height="21px" viewBox="0 0 61 21" version="1.1" xmlns="http://www.w3.org/2000/svg" xmlns:xlink="http://www.w3.org/1999/xlink">
    <!-- Generator: Sketch 50.2 (55047) - http://www.bohemiancoding.com/sketch -->
    <title>logo P24</title>
    <desc>Created with Sketch.</desc>
    <defs>
        <polygon id="path-1" points="0.0298111346 0.0177431925 7.39245963 0.0177431925 7.39245963 9.07005775 0.0298111346 9.07005775"></polygon>
    </defs>
    <g id="Page-1" stroke="none" stroke-width="1" fill="none" fill-rule="evenodd">
        <g id="SPB_&amp;_AltPay_NewAssets" transform="translate(-99.000000, -159.000000)">
            <g id="logo-P24" transform="translate(99.000000, 159.000000)">
                <polygon id="Fill-1" fill="#D03238" points="12.7765868 12.1072822 17.8130945 12.1002493 17.6289678 13.2702352 13.4176179 17.375423 16.9512079 17.368193 16.7459003 18.631808 11.541715 18.6327282 11.7592227 17.3296108 15.7961995 13.3826296 12.5756892 13.3824324"></polygon>
                <path d="M6.21202433,11.7030305 C6.21070454,11.7180164 6.0904428,12.4456878 5.92791562,13.3063263 C5.8656924,13.6356878 5.61931034,13.8124953 5.33504069,13.8738192 C4.86574306,13.975007 4.36068237,13.956439 4.36068237,13.956439 L2.13880164,13.9506549 L2.62664069,10.9444014 L4.6399304,10.9501197 C4.6399304,10.9501197 4.77619055,10.9472277 4.9664333,10.9502183 C5.18265335,10.953669 5.46866127,10.9647113 5.70368026,10.9963263 C5.90496417,11.0233732 6.0689077,11.0655376 6.11960691,11.130838 C6.18646549,11.2170399 6.21408449,11.3270681 6.22338739,11.4276315 C6.23658528,11.5705892 6.21273251,11.6943545 6.21202433,11.7030305 M7.27065599,10.1062418 C7.16027657,9.98727465 7.00454148,9.89551878 6.82855889,9.82473005 C6.64607393,9.75134507 6.44182855,9.70050469 6.24379583,9.66534038 C5.9915552,9.62051408 5.74942222,9.60112441 5.57530665,9.59280986 C5.41512934,9.58515258 5.3125077,9.58692723 5.3125077,9.58692723 L3.11087446,9.58659859 L1.47253356,9.58636854 L3.21899736e-06,18.6323404 L1.37100639,18.6337864 L1.91292459,15.2806549 L4.57110823,15.2923873 C4.57110823,15.2923873 5.60608026,15.3338944 6.34091298,14.9370305 C7.07568132,14.5398052 7.27020533,13.6368052 7.27020533,13.6368052 C7.27020533,13.6368052 7.35103435,13.3017911 7.4170238,12.8927019 C7.48954781,12.4434859 7.56381008,11.9040915 7.60237367,11.6168615 C7.61930559,11.4908286 7.62934887,11.4133357 7.62934887,11.4133357 C7.62934887,11.4133357 7.64718211,11.3201995 7.64885599,11.1758286 C7.65120586,10.9737817 7.62191298,10.6714014 7.46788396,10.3833169 C7.41692723,10.2880117 7.35232195,10.194284 7.27065599,10.1062418" id="Fill-2" fill="#D03238"></path>
                <polygon id="Fill-4" fill="#D03238" points="24.6387659 9.58491596 25.957396 9.58383146 24.4799084 18.6343385 23.1579306 18.6321695"></polygon>
                <polygon id="Fill-6" fill="#D03238" points="31.6836961 12.1058427 32.9486012 12.1047582 33.3952692 16.6967911 35.34096 12.0964765 36.9020128 12.1007817 37.3633595 16.7157207 39.3092434 12.1051197 40.6214998 12.1038709 37.8326249 18.6287582 36.274598 18.6289225 35.8258054 14.059993 33.8571632 18.6290211 32.3255964 18.6334249"></polygon>
                <path d="M21.9154587,14.5398183 L18.970044,14.5365648 L19.0872155,14.0592502 C19.0872155,14.0592502 19.1895152,13.6860484 19.3937606,13.526593 C19.5981991,13.3673019 19.8593242,13.3402221 20.1052878,13.3159028 C20.3514123,13.2914521 21.0026798,13.2446211 21.5343294,13.3564568 C21.7108593,13.3934615 21.8786978,13.4948136 21.9223474,13.6449028 C22.0255163,13.9991751 21.9154587,14.5398183 21.9154587,14.5398183 M22.2018529,12.1608371 C21.8322477,12.0378277 21.1903152,12.0134756 20.6485901,12.0203441 C20.1234751,12.0270155 19.8826619,12.0520906 19.6867215,12.095208 C19.6867215,12.095208 18.7525685,12.2319216 18.2224962,12.9024427 C17.6924239,13.572931 17.5342746,15.0402033 17.5342746,15.0402033 C17.5342746,15.0402033 17.2195854,16.6616399 17.3116487,17.2018887 C17.4035189,17.7421376 17.5685569,18.242884 18.1682561,18.4779592 C18.7680841,18.7129685 19.2767822,18.7025178 19.2767822,18.7025178 C19.2767822,18.7025178 20.3455859,18.7882268 21.1509147,18.5937385 C21.9562756,18.3996775 22.3808614,17.8207808 22.3808614,17.8207808 C22.3808614,17.8207808 22.5697199,17.57187 22.7059801,17.274485 C22.842369,16.9771329 22.8823168,16.7707479 22.8883041,16.7453113 L22.9727706,16.3950155 L21.6036023,16.396823 C21.6036023,16.396823 21.528149,17.3193113 20.7899363,17.4044615 C20.0519168,17.4894146 19.655787,17.4573066 19.5130244,17.4518183 C19.3723542,17.4465601 18.5793864,17.4799169 18.6436698,16.8049263 C18.6439917,16.795823 18.6445711,16.7824803 18.6454725,16.7635178 C18.6822334,15.9936493 18.7659917,15.7941329 18.7659917,15.7941329 L23.0639326,15.7817761 L23.2473189,14.6980249 C23.4560065,13.4650718 23.3028144,12.5274005 22.2018529,12.1608371" id="Fill-8" fill="#D03238"></path>
                <path d="M18.6561379,16.7743578 C18.651567,16.7982611 18.6478667,16.8217106 18.6446018,16.8449331 C18.6380719,16.9631638 18.6576615,16.7678525 18.6561379,16.7743578" id="Fill-10" fill="#D03238"></path>
                <path d="M26.7636688,16.7758934 C26.7590979,16.7997986 26.7553976,16.8233256 26.7521327,16.84655 C26.7456028,16.9646386 26.7651925,16.7692363 26.7636688,16.7758934" id="Fill-12" fill="#D03238"></path>
                <path d="M30.0115107,14.5380108 L27.0662891,14.5349545 L27.1834284,14.0574427 C27.1834284,14.0574427 27.2857281,13.6841423 27.4899735,13.5249498 C27.6942511,13.3656587 27.9553761,13.3384146 28.2015007,13.3140624 C28.4476252,13.2899075 29.0987318,13.2428136 29.6305746,13.3548465 C29.8069112,13.3917197 29.974782,13.493039 30.0185603,13.6432925 C30.1217614,13.9975648 30.0115107,14.5380108 30.0115107,14.5380108 M30.3095899,12.162316 C29.9397593,12.0392737 29.2978912,12.0149216 28.7561339,12.0218559 C28.2310189,12.0284615 27.9901735,12.0535366 27.7942331,12.096654 C27.7942331,12.096654 26.8600801,12.2335648 26.3300078,12.9038887 C25.7999355,13.5745742 25.6418184,15.0416493 25.6418184,15.0416493 C25.6418184,15.0416493 25.3271614,16.6632502 25.4191925,17.2034991 C25.5112558,17.7437808 25.6761007,18.2442315 26.2759608,18.4795695 C26.8756601,18.7146117 27.384326,18.704161 27.384326,18.704161 C27.384326,18.704161 28.4532907,18.7896399 29.2584585,18.5953817 C30.0637872,18.4010906 30.488373,17.8222268 30.488373,17.8222268 C30.488373,17.8222268 30.6772637,17.5732831 30.8134917,17.2759967 C30.9499128,16.9787432 30.9898284,16.7721939 30.9960089,16.7467573 L31.0804754,16.3964615 L29.7111461,16.398269 C29.7111461,16.398269 29.6356928,17.3208559 28.8974801,17.4058089 C28.1594606,17.4908606 27.7633308,17.4589498 27.6207292,17.4535272 C27.4800912,17.4482033 26.6869624,17.4814286 26.7511814,16.8064709 C26.7515355,16.7973347 26.7521149,16.783992 26.7530163,16.7649638 C26.789745,15.9950953 26.8735033,15.7955789 26.8735033,15.7955789 L31.1714764,15.7833207 L31.3548627,14.6996352 C31.5637112,13.4666822 31.4103582,12.5290108 30.3095899,12.162316" id="Fill-14" fill="#D03238"></path>
                <path d="M42.1422604,12.1064737 L42.9880842,16.8768258 L45.3813121,12.1015113 L46.7273359,12.1132437 L43.2792425,18.9339714 C43.2792425,18.9339714 42.6553686,20.1681732 42.268252,20.4813329 C41.8812963,20.7948211 41.6448609,20.9349854 41.3282404,20.9669291 C41.0118129,20.9990371 40.8847591,21.0215817 40.5810467,20.9669291 L40.260177,20.9093845 L40.4608815,19.691516 C40.4608815,19.691516 40.9939475,19.7938869 41.3114694,19.6659808 C41.6289591,19.5378117 41.8857063,18.9857319 41.8857063,18.9857319 L42.0457871,18.709577 L40.7996166,12.1046005 L42.1422604,12.1064737 Z" id="Fill-16" fill="#D03238"></path>
                <path d="M47.2130407,12.7548808 L48.6007827,12.7568526 L48.6834465,12.2072047 C48.6834465,12.2072047 48.8318745,11.2156366 49.1624334,11.0240732 C49.2683062,10.9627164 49.4381083,10.9042845 49.6345637,10.8694488 C49.9971194,10.8052657 50.4598824,10.7977728 50.834284,10.8115756 C51.4118687,10.8328385 51.6277991,10.8380638 52.214912,10.9061906 C52.8022502,10.9744488 52.6524059,11.5531484 52.6524059,11.5531484 L52.5375521,12.4161202 C52.5375521,12.4161202 52.4873679,12.8026977 52.3518803,13.0442141 C52.2320692,13.2577962 51.9051801,13.4014113 51.7159674,13.4645427 C51.2588698,13.6167681 49.6946302,14.0226695 49.6946302,14.0226695 L48.4638144,14.3849606 C48.4638144,14.3849606 47.7084766,14.6085333 47.284245,15.0865709 C46.8602064,15.5647728 46.693398,16.108538 46.635456,16.3924817 C46.5774819,16.6762282 46.2525563,18.6309042 46.2525563,18.6309042 L52.8900645,18.6337962 L53.111274,17.2790826 L47.8615078,17.2852282 L47.9560175,16.7332469 C47.9560175,16.7332469 48.0169853,16.1641108 48.2426049,15.9784958 C48.3138091,15.9197023 48.3493468,15.8419465 48.7684281,15.6894254 C49.0184476,15.5983268 49.8748618,15.3654535 49.8748618,15.3654535 L51.8557363,14.8138338 C51.8557363,14.8138338 52.9363537,14.5297258 53.3620017,13.9279559 C53.7876175,13.3263502 53.9514323,12.1729606 53.9514323,12.1729606 C53.9514323,12.1729606 54.065932,11.0532892 53.9786328,10.7022376 C53.8915268,10.3512188 53.5662471,9.92964131 53.1716946,9.74997465 C52.7769811,9.57030798 52.3633399,9.46514366 51.1680618,9.4818385 C49.9729125,9.49869765 49.3827737,9.55568357 48.7777954,9.78280563 C48.172817,10.0097305 47.8233304,10.4240779 47.6007046,11.0080028 C47.3550951,11.5594582 47.2130407,12.7548808 47.2130407,12.7548808" id="Fill-18" fill="#B3B1B1"></path>
                <g id="Group-22" transform="translate(53.596306, 9.563380)">
                    <mask id="mask-2" fill="white">
                        <use xlink:href="#path-1"></use>
                    </mask>
                    <g id="Clip-21"></g>
                    <path d="M4.74087815,5.71061643 L1.83911298,5.70611408 L5.37112565,1.86475728 L4.74087815,5.71061643 Z M6.11217103,5.70953192 L7.0417209,0.0187619718 L5.39481747,0.0177431925 L0.262898734,5.64449437 L0.0298111346,7.0693723 L4.51789821,7.06884648 L4.18946391,9.06825023 L5.56619689,9.07005775 L5.89131562,7.0690108 L7.1627552,7.07170563 L7.39246285,5.70772441 L6.11217103,5.70953192 Z" id="Fill-20" fill="#B3B1B1" mask="url(#mask-2)"></path>
                </g>
                <path d="M10.1801468,10.3279446 L14.4058534,10.3279446 C14.4058534,10.3279446 15.3537515,9.5459493 16.0255241,9.04447981 C16.6972966,8.54291174 17.9201615,7.75092582 17.9201615,7.75092582 L15.533275,6.61071455 C15.533275,6.61071455 13.5162191,7.88619343 12.6598048,8.48799624 C11.8270502,9.04250798 10.1801468,10.3279446 10.1801468,10.3279446" id="Fill-23" fill="#B3B1B1"></path>
                <path d="M19.2644213,6.94459155 L17.304245,5.5972723 C17.304245,5.5972723 19.0783632,4.56853521 21.4362788,3.60848357 C23.7941944,2.64830047 25.0516957,2.24893897 25.0516957,2.24893897 L25.4497569,4.15740845 C25.4497569,4.15740845 23.1796556,4.93237089 21.8786978,5.55993897 C20.5351527,6.14494836 19.2644213,6.94459155 19.2644213,6.94459155" id="Fill-25" fill="#B3B1B1"></path>
                <path d="M26.8996706,3.73855211 L26.5597444,1.78282441 C26.5597444,1.78282441 28.9793038,1.12600751 31.1963882,0.704791549 C33.4132795,0.283575587 36.3541233,0.0845521127 36.3541233,0.0845521127 L35.3810848,3.10559437 C35.3810848,3.10559437 32.794717,2.74517653 30.3682368,3.08160376 C28.476432,3.31158498 26.8996706,3.73855211 26.8996706,3.73855211" id="Fill-27" fill="#B3B1B1"></path>
                <path d="M36.9163341,3.36064413 L38.5531621,0.00399624413 C38.5531621,0.00399624413 42.1364212,-0.0670882629 45.2260148,0.419789671 C48.3157694,0.906831925 51.1418882,1.65708075 51.0804053,1.68991174 L43.2442713,5.87400563 C43.2442713,5.87400563 41.4141103,4.69028263 39.1401462,3.96402441 C37.8524185,3.58053615 36.9163341,3.36064413 36.9163341,3.36064413" id="Fill-29" fill="#B3B1B1"></path>
                <path d="M44.6489516,6.78693709 L46.3720165,8.1199277 L60.5253041,8.1199277 C60.5253041,8.1199277 60.4964941,7.65207793 60.1194529,6.98950986 C59.8834039,6.57424225 59.4563395,6.1353784 59.008255,5.67916244 C58.8455347,5.51339718 58.1924967,4.99404977 57.7055268,4.67162254 C56.4558155,3.84480094 55.7580656,3.52506854 54.462226,2.92211549 L44.6489516,6.78693709 Z" id="Fill-31" fill="#B3B1B1"></path>
                <path d="M11.0960899,12.100246 C10.5648266,12.100246 10.0630493,12.3141897 9.63424665,12.5539315 L9.70944243,12.100246 L8.30161393,12.100246 L7.17428887,18.5982507 L8.58314744,18.5982507 L9.2077295,14.9983117 C9.33784137,14.2677812 9.87029573,13.36603 10.9151823,13.36603 L11.6435448,13.3630723 L11.8625976,12.100246 L11.0960899,12.100246 Z" id="Fill-33" fill="#D03238"></path>
            </g>
        </g>
    </g>
</svg>