<svg width="88px" height="32px" viewBox="0 0 88 32" version="1.1" xmlns="http://www.w3.org/2000/svg" xmlns:xlink="http://www.w3.org/1999/xlink">
    <defs>
        <polygon id="path-1" points="0.0430062269 0.0253474178 10.6645319 0.0253474178 10.6645319 12.9572254 0.0430062269 12.9572254"></polygon>
    </defs>
        <g transform="translate(-216.000000, -615.000000)">
            <g transform="translate(100.000000, 606.000000)">
                    <g transform="translate(116.000000, 9.000000)">
                        <polygon id="Fill-1" fill="#FFFFFF" points="18.4317974 17.2961174 25.6975789 17.2860704 25.4319536 18.9574789 19.3565636 24.8220329 24.4542016 24.8117042 24.1580201 26.6168685 16.650343 26.6181831 16.9641245 24.7565869 22.7879599 19.1180423 18.1419778 19.1177606"></polygon>
                        <path d="M8.96160887,16.718615 C8.95970491,16.7400235 8.78621256,17.779554 8.55174712,19.0090376 C8.46198248,19.479554 8.10654607,19.7321362 7.69645214,19.8197418 C7.01943261,19.9642958 6.29082047,19.93777 6.29082047,19.93777 L3.08548433,19.929507 L3.78925214,15.6348592 L6.69367008,15.6430282 C6.69367008,15.6430282 6.89024211,15.6388967 7.16469066,15.643169 C7.47661467,15.6480986 7.88921625,15.6638732 8.22826005,15.7090376 C8.51863683,15.7476761 8.75514554,15.8079108 8.82828538,15.9011972 C8.9247371,16.0243427 8.9645809,16.1815258 8.97800148,16.3251878 C8.99704106,16.5294131 8.9626305,16.7062207 8.96160887,16.718615 M10.4888152,14.4374883 C10.3295793,14.2675352 10.1049123,14.1364554 9.85103578,14.0353286 C9.58777879,13.930493 9.29312971,13.8578638 9.00744317,13.8076291 C8.64355504,13.7435915 8.29424844,13.715892 8.04306533,13.7040141 C7.81198987,13.6930751 7.66394554,13.6956103 7.66394554,13.6956103 L4.48781889,13.6951408 L2.12431071,13.6948122 L4.64379947e-06,26.6176291 L1.97784528,26.6196948 L2.75962892,21.829507 L6.59438565,21.8462676 C6.59438565,21.8462676 8.08746005,21.9055634 9.1475466,21.338615 C10.2075403,20.7711502 10.4881651,19.4811502 10.4881651,19.4811502 C10.4881651,19.4811502 10.6047709,19.0025587 10.6999688,18.4181455 C10.8045936,17.7764085 10.911726,17.0058451 10.9673587,16.5955164 C10.9917851,16.4154695 11.0062738,16.3047653 11.0062738,16.3047653 C11.0062738,16.3047653 11.0320004,16.1717136 11.0344152,15.9654695 C11.0378052,15.676831 10.9955466,15.2448592 10.7733408,14.8333099 C10.6998294,14.6971596 10.6066284,14.5632629 10.4888152,14.4374883" id="Fill-2" fill="#FFFFFF"></path>
                        <polygon id="Fill-4" fill="#FFFFFF" points="35.5444492 13.6927371 37.4467352 13.6911878 35.3152777 26.6204836 33.4081621 26.617385"></polygon>
                        <polygon id="Fill-6" fill="#FFFFFF" points="45.7076272 17.294061 47.5324082 17.2925117 48.1767818 23.8525587 50.98368 17.2806808 53.2356906 17.286831 53.9012399 23.8796009 56.7084167 17.2930282 58.601508 17.2912441 54.578213 26.6125117 52.3305676 26.6127465 51.6831291 20.0857042 48.8431206 26.6128873 46.6336473 26.6191784"></polygon>
                        <path d="M31.6157437,20.771169 L27.3666208,20.7665211 L27.5356551,20.0846432 C27.5356551,20.0846432 27.683235,19.5514977 27.9778841,19.3237042 C28.2728118,19.0961455 28.6495168,19.0574601 29.0043496,19.0227183 C29.3594145,18.9877887 30.298948,18.9208873 31.0659179,19.0806526 C31.3205839,19.1335164 31.5627116,19.2783052 31.6256815,19.4927183 C31.7745153,19.9988216 31.6157437,20.771169 31.6157437,20.771169 M32.0289026,17.3726244 C31.4957015,17.1968967 30.569635,17.162108 29.78813,17.1719202 C29.030587,17.1814507 28.6831844,17.2172723 28.4005163,17.2788685 C28.4005163,17.2788685 27.0528857,17.4741737 26.2881912,18.432061 C25.5234968,19.3899014 25.2953469,21.4860047 25.2953469,21.4860047 C25.2953469,21.4860047 24.8413691,23.8023427 24.9741817,24.5741268 C25.1067158,25.3459108 25.3448034,26.0612629 26.2099432,26.3970845 C27.0752688,26.7328122 27.8091284,26.7178826 27.8091284,26.7178826 C27.8091284,26.7178826 29.3510092,26.8403239 30.5127949,26.5624836 C31.6746271,26.2852535 32.2871443,25.4582582 32.2871443,25.4582582 C32.2871443,25.4582582 32.559596,25.1026714 32.756168,24.6778357 C32.9529258,24.2530469 33.0105554,23.9582113 33.0191928,23.9218732 L33.1410461,23.4214507 L31.1658525,23.4240329 C31.1658525,23.4240329 31.0570018,24.7418732 29.9920393,24.8635164 C28.9273554,24.9848779 28.3558894,24.9390094 28.1499369,24.931169 C27.9470028,24.9236573 26.8030493,24.9713099 26.895786,24.0070376 C26.8962503,23.9940329 26.8970862,23.9749718 26.8983865,23.9478826 C26.9514187,22.8480704 27.0722503,22.5630469 27.0722503,22.5630469 L33.2725585,22.5453944 L33.5371158,20.9971784 C33.8381733,19.2358169 33.6171749,17.8962864 32.0289026,17.3726244" id="Fill-8" fill="#FFFFFF"></path>
                        <path d="M26.9135918,23.9633683 C26.9070619,23.9975159 26.9017759,24.0310151 26.8971116,24.0641902 C26.8877832,24.2330912 26.9157685,23.954075 26.9135918,23.9633683" id="Fill-10" fill="#FFFFFF"></path>
                        <path d="M38.609702,23.9655621 C38.6031721,23.9997123 38.597886,24.0333223 38.5932218,24.0664999 C38.5838934,24.235198 38.6118786,23.9560519 38.609702,23.9655621" id="Fill-12" fill="#FFFFFF"></path>
                        <path d="M43.2952941,20.7685869 L39.0464498,20.7642207 L39.2154377,20.082061 C39.2154377,20.082061 39.3630176,19.5487746 39.6576667,19.3213568 C39.9523622,19.0937981 40.3290672,19.0548779 40.6841321,19.0200892 C41.039197,18.9855822 41.9784984,18.9183052 42.7457469,19.0783521 C43.0001342,19.1310282 43.2423084,19.27577 43.3054641,19.4904178 C43.4543443,19.9965211 43.2952941,20.7685869 43.2952941,20.7685869 M43.72531,17.3747371 C43.1917839,17.1989624 42.2658102,17.1641737 41.4842588,17.1740798 C40.7267158,17.1835164 40.3792667,17.219338 40.0965986,17.2809343 C40.0965986,17.2809343 38.748968,17.4765211 37.9842736,18.4341268 C37.2195791,19.3922488 36.9914757,21.4880704 36.9914757,21.4880704 C36.9914757,21.4880704 36.5375443,23.8046432 36.6703105,24.5764272 C36.8031232,25.3482582 37.0409321,26.0631878 37.9063042,26.399385 C38.771444,26.7351596 39.5052572,26.72023 39.5052572,26.72023 C39.5052572,26.72023 41.0473701,26.8423427 42.2089237,26.564831 C43.3707094,26.2872723 43.9832266,25.4603239 43.9832266,25.4603239 C43.9832266,25.4603239 44.2557247,25.1046901 44.4522503,24.6799953 C44.6490546,24.2553474 44.7066377,23.960277 44.7155538,23.923939 L44.8374071,23.4235164 L42.8619812,23.4260986 C42.8619812,23.4260986 42.7531306,24.7440798 41.688168,24.8654413 C40.6234841,24.9869437 40.0520182,24.9413568 39.8462978,24.9336103 C39.6434102,24.9260047 38.4992245,24.9734695 38.5918683,24.0092441 C38.5923791,23.9961925 38.593215,23.9771315 38.5945153,23.9499484 C38.647501,22.8501362 38.7683327,22.5651127 38.7683327,22.5651127 L44.9686873,22.5476009 L45.2332445,20.9994789 C45.5345342,19.2381174 45.3133036,17.8985869 43.72531,17.3747371" id="Fill-14" fill="#FFFFFF"></path>
                        <path d="M60.7953921,17.2949624 L62.0155968,24.1097512 L65.4681224,17.2878732 L67.4099272,17.3046338 L62.4356285,27.0485305 C62.4356285,27.0485305 61.5356137,28.8116761 60.9771504,29.2590469 C60.4189193,29.7068873 60.0778322,29.9071221 59.6210681,29.9527559 C59.1645826,29.9986244 58.9812918,30.030831 58.5431493,29.9527559 L58.0802554,29.8705493 L58.3697963,28.1307371 C58.3697963,28.1307371 59.1388095,28.2769812 59.5968739,28.0942582 C60.0548918,27.9111596 60.4252813,27.1224742 60.4252813,27.1224742 L60.6562174,26.7279671 L58.8584633,17.2922864 L60.7953921,17.2949624 Z" id="Fill-16" fill="#FFFFFF"></path>
                        <path d="M68.1106161,18.2212582 L70.1126045,18.2240751 L70.2318573,17.4388638 C70.2318573,17.4388638 70.4459829,16.022338 70.9228547,15.7486761 C71.0755892,15.6610235 71.3205497,15.5775493 71.6039607,15.527784 C72.1269919,15.4360939 72.7945845,15.4253897 73.3347048,15.445108 C74.1679417,15.4754836 74.4794478,15.4829484 75.3264304,15.5802723 C76.173738,15.677784 75.9575692,16.5044977 75.9575692,16.5044977 L75.7918784,17.7373146 C75.7918784,17.7373146 75.7194816,18.2895681 75.5240241,18.6345915 C75.3511818,18.9397089 74.879604,19.1448732 74.6066415,19.235061 C73.947222,19.4525258 71.690614,20.032385 71.690614,20.032385 L69.9150109,20.5499437 C69.9150109,20.5499437 68.8253433,20.8693333 68.213337,21.5522441 C67.6016093,22.2353897 67.3609676,23.0121972 67.2773792,23.417831 C67.1937444,23.8231831 66.7249993,26.6155775 66.7249993,26.6155775 L76.3004209,26.6197089 L76.6195428,24.6844038 L69.0461096,24.6931831 L69.1824515,23.9046385 C69.1824515,23.9046385 69.2704051,23.0915869 69.595889,22.8264225 C69.6986098,22.7424319 69.7498774,22.6313521 70.3544536,22.4134648 C70.7151375,22.2833239 71.9506204,21.9506479 71.9506204,21.9506479 L74.8082753,21.1626197 C74.8082753,21.1626197 76.3671987,20.7567512 76.9812483,19.8970798 C77.5952515,19.0376432 77.8315745,17.3899437 77.8315745,17.3899437 C77.8315745,17.3899437 77.9967544,15.7904131 77.8708146,15.2889108 C77.7451534,14.7874554 77.2758974,14.1852019 76.7067069,13.9285352 C76.1372842,13.6718685 75.540556,13.5216338 73.8162204,13.5454836 C72.0920705,13.5695681 71.2407227,13.6509765 70.3679671,13.9754366 C69.4952114,14.299615 68.9910341,14.8915399 68.6698689,15.7257183 C68.315547,16.5135117 68.1106161,18.2212582 68.1106161,18.2212582" id="Fill-18" fill="#FFFFFF"></path>
                        <g transform="translate(77.319261, 13.661972)">
                            <mask fill="white">
                                <use xlink:href="#path-1"></use>
                            </mask>
                            <path d="M6.83929963,8.15802347 L2.6531466,8.15159155 L7.74850913,2.66393897 L6.83929963,8.15802347 Z M8.81755821,8.15647418 L10.1585482,0.0268028169 L7.78268749,0.0253474178 L0.379263747,8.06356338 L0.0430062269,10.0991033 L6.51762364,10.0983521 L6.04381678,12.9546432 L8.02992338,12.9572254 L8.49894712,10.0985869 L10.333155,10.1024366 L10.6645366,8.15389202 L8.81755821,8.15647418 Z" id="Fill-20" fill="#FFFFFF" mask="url(#mask-2)"></path>
                        </g>
                        <path d="M14.6861134,14.7542066 L20.7822147,14.7542066 C20.7822147,14.7542066 22.1496743,13.6370704 23.1187888,12.9206854 C24.0879033,12.2041596 25.8520363,11.0727512 25.8520363,11.0727512 L22.408659,9.44387793 C22.408659,9.44387793 19.4988078,11.2659906 18.263325,12.1257089 C17.061974,12.9178685 14.6861134,14.7542066 14.6861134,14.7542066" id="Fill-23" fill="#FFFFFF"></path>
                        <path d="M27.7912963,9.92084507 L24.963501,7.99610329 C24.963501,7.99610329 27.5228846,6.52647887 30.9244678,5.15497653 C34.3260509,3.78328638 36.1401511,3.21276995 36.1401511,3.21276995 L36.7144034,5.93915493 C36.7144034,5.93915493 33.4395031,7.04624413 31.5627116,7.94276995 C29.6244825,8.77849765 27.7912963,9.92084507 27.7912963,9.92084507" id="Fill-25" fill="#FFFFFF"></path>
                        <path d="M38.8060821,5.34078873 L38.3156969,2.54689202 C38.3156969,2.54689202 41.8062088,1.60858216 45.0046256,1.00684507 C48.2027639,0.405107981 52.4452927,0.120788732 52.4452927,0.120788732 L51.041565,4.43656338 C51.041565,4.43656338 47.3104114,3.92168075 43.8099154,4.40229108 C41.0807544,4.73083568 38.8060821,5.34078873 38.8060821,5.34078873" id="Fill-27" fill="#FFFFFF"></path>
                        <path d="M53.2563508,4.80092019 L55.6176764,0.00570892019 C55.6176764,0.00570892019 60.7869682,-0.0958403756 65.244087,0.599699531 C69.7014379,1.29547418 73.7784616,2.36725822 73.6897651,2.41415962 L62.3851783,8.39143662 C62.3851783,8.39143662 59.7449461,6.70040376 56.4644732,5.66289202 C54.6067677,5.11505164 53.2563508,4.80092019 53.2563508,4.80092019" id="Fill-29" fill="#FFFFFF"></path>
                        <path d="M64.4116023,9.69562441 L66.8973353,11.5998967 L87.3151928,11.5998967 C87.3151928,11.5998967 87.2736308,10.9315399 86.7297026,9.98501408 C86.3891728,9.39177465 85.7730799,8.76482629 85.126663,8.1130892 C84.8919189,7.87628169 83.9498313,7.13435681 83.2473174,6.67374648 C81.4444551,5.49257277 80.4378651,5.03581221 78.5684572,4.1744507 L64.4116023,9.69562441 Z" id="Fill-31" fill="#FFFFFF"></path>
                        <path d="M16.007474,17.2860657 C15.2410613,17.2860657 14.5171859,17.5916995 13.8985853,17.9341878 L14.0070645,17.2860657 L11.9760988,17.2860657 L10.3497938,26.5689296 L12.3822455,26.5689296 L13.2832819,21.4261596 C13.4709843,20.3825446 14.2391151,19.0943286 15.7464925,19.0943286 L16.797245,19.0901033 L17.1132555,17.2860657 L16.007474,17.2860657 Z" id="Fill-33" fill="#FFFFFF"></path>
                    </g>
            </g>
        </g>
</svg>
