<svg width="100" height="32" viewBox="0 0 100 32" xmlns="http://www.w3.org/2000/svg" preserveAspectRatio="xMinYMin meet">
    <path fill="#ffffff" d="M 12 5.315 L 4.2 5.315 C 3.7 5.315 3.2 5.715 3.1 6.215 L 0 26.215 C -0.1 26.615 0.2 26.915 0.6 26.915 L 4.3 26.915 C 4.8 26.915 5.3 26.515 5.4 26.015 L 6.2 20.615 C 6.3 20.115 6.7 19.715 7.3 19.715 L 9.8 19.715 C 14.9 19.715 17.9 17.215 18.7 12.315 C 19 10.215 18.7 8.515 17.7 7.315 C 16.6 6.015 14.6 5.315 12 5.315 Z M 12.9 12.615 C 12.5 15.415 10.3 15.415 8.3 15.415 L 7.1 15.415 L 7.9 10.215 C 7.9 9.915 8.2 9.715 8.5 9.715 L 9 9.715 C 10.4 9.715 11.7 9.715 12.4 10.515 C 12.9 10.915 13.1 11.615 12.9 12.615 Z"></path>
    <path fill="#ffffff" d="M 35.2 12.515 L 31.5 12.515 C 31.2 12.515 30.9 12.715 30.9 13.015 L 30.7 14.015 L 30.4 13.615 C 29.6 12.415 27.8 12.015 26 12.015 C 21.9 12.015 18.4 15.115 17.7 19.515 C 17.3 21.715 17.8 23.815 19.1 25.215 C 20.2 26.515 21.9 27.115 23.8 27.115 C 27.1 27.115 29 25.015 29 25.015 L 28.8 26.015 C 28.7 26.415 29 26.815 29.4 26.815 L 32.8 26.815 C 33.3 26.815 33.8 26.415 33.9 25.915 L 35.9 13.115 C 36 12.915 35.6 12.515 35.2 12.515 Z M 30.1 19.815 C 29.7 21.915 28.1 23.415 25.9 23.415 C 24.8 23.415 24 23.115 23.4 22.415 C 22.8 21.715 22.6 20.815 22.8 19.815 C 23.1 17.715 24.9 16.215 27 16.215 C 28.1 16.215 28.9 16.615 29.5 17.215 C 30 17.815 30.2 18.715 30.1 19.815 Z"></path>
    <path fill="#ffffff" d="M 55.1 12.515 L 51.4 12.515 C 51 12.515 50.7 12.715 50.5 13.015 L 45.3 20.615 L 43.1 13.315 C 43 12.815 42.5 12.515 42.1 12.515 L 38.4 12.515 C 38 12.515 37.6 12.915 37.8 13.415 L 41.9 25.515 L 38 30.915 C 37.7 31.315 38 31.915 38.5 31.915 L 42.2 31.915 C 42.6 31.915 42.9 31.715 43.1 31.415 L 55.6 13.415 C 55.9 13.115 55.6 12.515 55.1 12.515 Z"></path>
    <path fill="#ffffff" d="M 67.5 5.315 L 59.7 5.315 C 59.2 5.315 58.7 5.715 58.6 6.215 L 55.5 26.115 C 55.4 26.515 55.7 26.815 56.1 26.815 L 60.1 26.815 C 60.5 26.815 60.8 26.515 60.8 26.215 L 61.7 20.515 C 61.8 20.015 62.2 19.615 62.8 19.615 L 65.3 19.615 C 70.4 19.615 73.4 17.115 74.2 12.215 C 74.5 10.115 74.2 8.415 73.2 7.215 C 72 6.015 70.1 5.315 67.5 5.315 Z M 68.4 12.615 C 68 15.415 65.8 15.415 63.8 15.415 L 62.6 15.415 L 63.4 10.215 C 63.4 9.915 63.7 9.715 64 9.715 L 64.5 9.715 C 65.9 9.715 67.2 9.715 67.9 10.515 C 68.4 10.915 68.5 11.615 68.4 12.615 Z"></path>
    <path fill="#ffffff" d="M 90.7 12.515 L 87 12.515 C 86.7 12.515 86.4 12.715 86.4 13.015 L 86.2 14.015 L 85.9 13.615 C 85.1 12.415 83.3 12.015 81.5 12.015 C 77.4 12.015 73.9 15.115 73.2 19.515 C 72.8 21.715 73.3 23.815 74.6 25.215 C 75.7 26.515 77.4 27.115 79.3 27.115 C 82.6 27.115 84.5 25.015 84.5 25.015 L 84.3 26.015 C 84.2 26.415 84.5 26.815 84.9 26.815 L 88.3 26.815 C 88.8 26.815 89.3 26.415 89.4 25.915 L 91.4 13.115 C 91.4 12.915 91.1 12.515 90.7 12.515 Z M 85.5 19.815 C 85.1 21.915 83.5 23.415 81.3 23.415 C 80.2 23.415 79.4 23.115 78.8 22.415 C 78.2 21.715 78 20.815 78.2 19.815 C 78.5 17.715 80.3 16.215 82.4 16.215 C 83.5 16.215 84.3 16.615 84.9 17.215 C 85.5 17.815 85.7 18.715 85.5 19.815 Z"></path>
    <path fill="#ffffff" d="M 95.1 5.915 L 91.9 26.215 C 91.8 26.615 92.1 26.915 92.5 26.915 L 95.7 26.915 C 96.2 26.915 96.7 26.515 96.8 26.015 L 100 6.115 C 100.1 5.715 99.8 5.415 99.4 5.415 L 95.8 5.415 C 95.4 5.315 95.2 5.515 95.1 5.915 Z"></path>
</svg>
