<?xml version="1.0" encoding="UTF-8"?>
<svg width="64px" height="32px" viewBox="0 0 64 32" version="1.1" xmlns="http://www.w3.org/2000/svg" xmlns:xlink="http://www.w3.org/1999/xlink">
    <!-- Generator: Sketch 55.1 (78136) - https://sketchapp.com -->
    <title>Group 14 Copy</title>
    <desc>Created with Sketch.</desc>
    <defs>
        <path d="M3.16476404,0.248177778 C0.975820225,0.248177778 0,1.21315556 0,3.37777778 L0,3.37777778 L0,17.2807111 C0,18.1166222 0.271101124,18.3850667 1.1171236,18.3850667 L1.1171236,18.3850667 L1.39361798,18.3850667 C2.2392809,18.3850667 2.51074157,18.1166222 2.51074157,17.2807111 L2.51074157,17.2807111 L2.51074157,11.8716444 L7.26076404,11.8716444 C11.4782921,11.8716444 13.4421573,10.0248889 13.4421573,6.06008889 L13.4421573,6.06008889 C13.4421573,2.09493333 11.4782921,0.248177778 7.26076404,0.248177778 L7.26076404,0.248177778 L3.16476404,0.248177778 Z M2.51074157,3.70631111 C2.51074157,2.89564444 2.81564045,2.59413333 3.63541573,2.59413333 L3.63541573,2.59413333 L7.26076404,2.59413333 C9.58561798,2.59413333 10.9317753,3.16124444 10.9317753,6.06008889 L10.9317753,6.06008889 C10.9317753,8.32568889 10.3467865,9.55271111 7.26076404,9.55271111 L7.26076404,9.55271111 L2.51074157,9.55271111 L2.51074157,3.70631111 Z M54.168809,0.251733333 C52.4566292,0.251733333 51.8195056,0.530844444 51.8195056,2.07324444 L51.8195056,2.07324444 L51.8195056,5.68213333 C51.8191461,5.68995556 51.8187865,5.69742222 51.8187865,5.70524444 L51.8187865,5.70524444 L51.8187865,6.496 C51.8180674,6.52373333 51.8162697,6.54897778 51.8162697,6.57706667 L51.8162697,6.57706667 L51.8162697,11.6199111 C51.8162697,12.2360889 51.6961798,12.7264 51.448809,13.1072 L51.448809,13.1072 C50.9817528,13.8183111 50.0577079,14.1418667 48.5788764,14.1436444 L48.5788764,14.1436444 C47.100764,14.1418667 46.1763596,13.8190222 45.7096629,13.1079111 L45.7096629,13.1079111 C45.4612135,12.7267556 45.340764,12.2364444 45.340764,11.6199111 L45.340764,11.6199111 L45.340764,6.57706667 C45.340764,6.54897778 45.3393258,6.52373333 45.3389663,6.496 L45.3389663,6.496 L45.3389663,5.70524444 C45.3389663,5.69742222 45.3378876,5.68995556 45.3375281,5.68213333 L45.3375281,5.68213333 L45.3375281,2.07324444 C45.3375281,0.530844444 44.700764,0.251733333 42.9885843,0.251733333 L42.9885843,0.251733333 L42.449618,0.251733333 C40.7370787,0.251733333 40.1006742,0.530844444 40.1006742,2.07324444 L40.1006742,2.07324444 L40.1006742,5.70524444 L40.1006742,9.52604444 L40.1006742,11.6199111 C40.1006742,13.1555556 40.4508764,14.4561778 41.127191,15.504 L41.127191,15.504 C42.4345169,17.5352889 44.9661124,18.6172444 48.565573,18.6172444 L48.565573,18.6172444 C48.5698876,18.6172444 48.5742022,18.6168889 48.5788764,18.6168889 L48.5788764,18.6168889 C48.5828315,18.6168889 48.5875056,18.6172444 48.5918202,18.6172444 L48.5918202,18.6172444 C52.1909213,18.6172444 54.7228764,17.5352889 56.0294831,15.504 L56.0294831,15.504 C56.7065169,14.4561778 57.0567191,13.1555556 57.0567191,11.6199111 L57.0567191,11.6199111 L57.0567191,9.52604444 L57.0567191,5.70524444 L57.0567191,2.07324444 C57.0567191,0.530844444 56.4203146,0.251733333 54.7077753,0.251733333 L54.7077753,0.251733333 L54.168809,0.251733333 Z M15.6911461,4.51235556 C15.008,4.6592 14.7225169,4.8448 14.7225169,5.6128 L14.7225169,5.6128 L14.7225169,5.83217778 C14.7225169,6.13297778 14.7674607,6.34168889 14.8641798,6.48853333 L14.8641798,6.48853333 C14.9770787,6.6592 15.1582921,6.74595556 15.4035056,6.74595556 L15.4035056,6.74595556 C15.5228764,6.74595556 15.6616629,6.72604444 15.8270562,6.68515556 L15.8270562,6.68515556 C16.2171685,6.5888 17.4640899,6.38933333 18.8285843,6.38933333 L18.8285843,6.38933333 C21.2782022,6.38933333 22.2777528,7.06026667 22.2777528,8.70577778 L22.2777528,8.70577778 L22.2777528,10.1731556 L19.1881348,10.1731556 C15.2165393,10.1731556 13.3662921,11.4983111 13.3662921,14.3431111 L13.3662921,14.3431111 C13.3662921,17.1029333 15.2765843,18.6222222 18.7451685,18.6222222 L18.7451685,18.6222222 C22.8670562,18.6222222 24.7054382,17.2352 24.7054382,14.1244444 L24.7054382,14.1244444 L24.7054382,8.70577778 C24.7054382,5.69742222 22.7469663,4.23466667 18.7178427,4.23466667 L18.7178427,4.23466667 C17.0941124,4.23466667 16.0773034,4.43626667 15.6911461,4.51235556 L15.6911461,4.51235556 Z M15.7939775,14.3431111 C15.7939775,12.7552 16.753618,12.1365333 19.2158202,12.1365333 L19.2158202,12.1365333 L22.2777528,12.1365333 L22.2777528,14.0419556 C22.2777528,15.5960889 21.6952809,16.4952889 18.7178427,16.4952889 L18.7178427,16.4952889 C16.750382,16.4952889 15.7939775,15.7916444 15.7939775,14.3431111 L15.7939775,14.3431111 Z M37.2037753,4.63573333 C36.3775281,4.63573333 36.0532135,4.88746667 35.8702022,5.67217778 L35.8702022,5.67217778 L33.5737528,15.1132444 C33.2868315,16.2734222 32.8841348,16.4856889 32.1948764,16.4856889 L32.1948764,16.4856889 C31.3510112,16.4856889 31.0130337,16.2862222 30.6764944,15.1089778 L30.6764944,15.1089778 L28.0751461,5.6672 C27.8601348,4.87644444 27.5422921,4.63573333 26.7149663,4.63573333 L26.7149663,4.63573333 L26.4938427,4.63573333 C26.1601798,4.63573333 25.8275955,4.6656 25.656809,4.88604444 L25.656809,4.88604444 C25.486382,5.10648889 25.5439101,5.43573333 25.632,5.75857778 L25.632,5.75857778 L28.2610337,15.2814222 C28.7539775,17.1036444 29.3404045,18.6126222 31.530427,18.6126222 L31.530427,18.6126222 C31.9395955,18.6126222 32.3178427,18.5564444 32.6320899,18.4515556 L32.6320899,18.4515556 C31.968,20.5176889 31.2920449,21.4289778 29.2994157,21.6316444 L29.2994157,21.6316444 C28.8949213,21.6647111 28.6320899,21.7216 28.4853933,21.9160889 L28.4853933,21.9160889 C28.3333034,22.1176889 28.3678202,22.4056889 28.4224719,22.6631111 L28.4224719,22.6631111 L28.4774831,22.9073778 C28.5961348,23.4723556 28.7985618,23.8222222 29.4396404,23.8222222 L29.4396404,23.8222222 C29.5068764,23.8222222 29.5795056,23.8190222 29.6575281,23.8122667 L29.6575281,23.8122667 C32.632809,23.6195556 34.2274157,22.0352 35.1604494,18.3438222 L35.1604494,18.3438222 L38.3442697,5.75182222 C38.4194157,5.42897778 38.4650787,5.09973333 38.2903371,4.88284444 L38.2903371,4.88284444 C38.1155955,4.6656 37.784809,4.63573333 37.4529438,4.63573333 L37.4529438,4.63573333 L37.2037753,4.63573333 Z" id="path-1"></path>
        <linearGradient x1="50.000037%" y1="21.1036869%" x2="50.000037%" y2="122.837593%" id="linearGradient-3">
            <stop stop-color="#B1D134" offset="0%"></stop>
            <stop stop-color="#3B9138" offset="100%"></stop>
        </linearGradient>
    </defs>
    <g id="Page-1" stroke="none" stroke-width="1" fill="none" fill-rule="evenodd">
        <g id="SPB_&amp;_AltPay_NewAssets" transform="translate(-228.000000, -536.000000)">
            <g id="Group-14-Copy" transform="translate(228.000000, 536.000000)">
                <g id="Group-5" transform="translate(56.808989, 0.124978)" fill="#B2D235">
                    <path d="M6.2990382,6.81365333 L3.48267865,6.81258667 C3.17562247,6.81258667 2.92681348,6.56618667 2.92681348,6.26218667 L2.92789213,3.44298667 C2.92789213,3.13898667 3.17706067,2.89294222 3.48411685,2.89329739 L6.3004764,2.89400889 C6.60753258,2.89436444 6.85670112,3.14040889 6.85634196,3.44405333 L6.85562247,6.26360889 C6.85526292,6.56760889 6.60609438,6.81365333 6.2990382,6.81365333" id="Fill-1"></path>
                    <path d="M2.54622921,2.89315612 L0.633420225,2.8928 C0.424880899,2.89244444 0.255532584,2.72533333 0.255891563,2.51875556 L0.256251685,0.604088889 C0.256611236,0.397511111 0.4256,0.230755556 0.634498876,0.230755556 L2.54694831,0.231466667 C2.75584719,0.231466667 2.92483596,0.398577778 2.92483596,0.6048 L2.92411685,2.51982222 C2.92411685,2.72604444 2.75476854,2.89351111 2.54622921,2.89315612" id="Fill-3"></path>
                </g>
                <g id="Group-8" transform="translate(0.000000, 7.947200)">
                    <mask id="mask-2" fill="white">
                        <use xlink:href="#path-1"></use>
                    </mask>
                    <g id="Clip-7"></g>
                    <path d="M3.16476404,0.248177778 C0.975820225,0.248177778 0,1.21315556 0,3.37777778 L0,3.37777778 L0,17.2807111 C0,18.1166222 0.271101124,18.3850667 1.1171236,18.3850667 L1.1171236,18.3850667 L1.39361798,18.3850667 C2.2392809,18.3850667 2.51074157,18.1166222 2.51074157,17.2807111 L2.51074157,17.2807111 L2.51074157,11.8716444 L7.26076404,11.8716444 C11.4782921,11.8716444 13.4421573,10.0248889 13.4421573,6.06008889 L13.4421573,6.06008889 C13.4421573,2.09493333 11.4782921,0.248177778 7.26076404,0.248177778 L7.26076404,0.248177778 L3.16476404,0.248177778 Z M2.51074157,3.70631111 C2.51074157,2.89564444 2.81564045,2.59413333 3.63541573,2.59413333 L3.63541573,2.59413333 L7.26076404,2.59413333 C9.58561798,2.59413333 10.9317753,3.16124444 10.9317753,6.06008889 L10.9317753,6.06008889 C10.9317753,8.32568889 10.3467865,9.55271111 7.26076404,9.55271111 L7.26076404,9.55271111 L2.51074157,9.55271111 L2.51074157,3.70631111 Z M54.168809,0.251733333 C52.4566292,0.251733333 51.8195056,0.530844444 51.8195056,2.07324444 L51.8195056,2.07324444 L51.8195056,5.68213333 C51.8191461,5.68995556 51.8187865,5.69742222 51.8187865,5.70524444 L51.8187865,5.70524444 L51.8187865,6.496 C51.8180674,6.52373333 51.8162697,6.54897778 51.8162697,6.57706667 L51.8162697,6.57706667 L51.8162697,11.6199111 C51.8162697,12.2360889 51.6961798,12.7264 51.448809,13.1072 L51.448809,13.1072 C50.9817528,13.8183111 50.0577079,14.1418667 48.5788764,14.1436444 L48.5788764,14.1436444 C47.100764,14.1418667 46.1763596,13.8190222 45.7096629,13.1079111 L45.7096629,13.1079111 C45.4612135,12.7267556 45.340764,12.2364444 45.340764,11.6199111 L45.340764,11.6199111 L45.340764,6.57706667 C45.340764,6.54897778 45.3393258,6.52373333 45.3389663,6.496 L45.3389663,6.496 L45.3389663,5.70524444 C45.3389663,5.69742222 45.3378876,5.68995556 45.3375281,5.68213333 L45.3375281,5.68213333 L45.3375281,2.07324444 C45.3375281,0.530844444 44.700764,0.251733333 42.9885843,0.251733333 L42.9885843,0.251733333 L42.449618,0.251733333 C40.7370787,0.251733333 40.1006742,0.530844444 40.1006742,2.07324444 L40.1006742,2.07324444 L40.1006742,5.70524444 L40.1006742,9.52604444 L40.1006742,11.6199111 C40.1006742,13.1555556 40.4508764,14.4561778 41.127191,15.504 L41.127191,15.504 C42.4345169,17.5352889 44.9661124,18.6172444 48.565573,18.6172444 L48.565573,18.6172444 C48.5698876,18.6172444 48.5742022,18.6168889 48.5788764,18.6168889 L48.5788764,18.6168889 C48.5828315,18.6168889 48.5875056,18.6172444 48.5918202,18.6172444 L48.5918202,18.6172444 C52.1909213,18.6172444 54.7228764,17.5352889 56.0294831,15.504 L56.0294831,15.504 C56.7065169,14.4561778 57.0567191,13.1555556 57.0567191,11.6199111 L57.0567191,11.6199111 L57.0567191,9.52604444 L57.0567191,5.70524444 L57.0567191,2.07324444 C57.0567191,0.530844444 56.4203146,0.251733333 54.7077753,0.251733333 L54.7077753,0.251733333 L54.168809,0.251733333 Z M15.6911461,4.51235556 C15.008,4.6592 14.7225169,4.8448 14.7225169,5.6128 L14.7225169,5.6128 L14.7225169,5.83217778 C14.7225169,6.13297778 14.7674607,6.34168889 14.8641798,6.48853333 L14.8641798,6.48853333 C14.9770787,6.6592 15.1582921,6.74595556 15.4035056,6.74595556 L15.4035056,6.74595556 C15.5228764,6.74595556 15.6616629,6.72604444 15.8270562,6.68515556 L15.8270562,6.68515556 C16.2171685,6.5888 17.4640899,6.38933333 18.8285843,6.38933333 L18.8285843,6.38933333 C21.2782022,6.38933333 22.2777528,7.06026667 22.2777528,8.70577778 L22.2777528,8.70577778 L22.2777528,10.1731556 L19.1881348,10.1731556 C15.2165393,10.1731556 13.3662921,11.4983111 13.3662921,14.3431111 L13.3662921,14.3431111 C13.3662921,17.1029333 15.2765843,18.6222222 18.7451685,18.6222222 L18.7451685,18.6222222 C22.8670562,18.6222222 24.7054382,17.2352 24.7054382,14.1244444 L24.7054382,14.1244444 L24.7054382,8.70577778 C24.7054382,5.69742222 22.7469663,4.23466667 18.7178427,4.23466667 L18.7178427,4.23466667 C17.0941124,4.23466667 16.0773034,4.43626667 15.6911461,4.51235556 L15.6911461,4.51235556 Z M15.7939775,14.3431111 C15.7939775,12.7552 16.753618,12.1365333 19.2158202,12.1365333 L19.2158202,12.1365333 L22.2777528,12.1365333 L22.2777528,14.0419556 C22.2777528,15.5960889 21.6952809,16.4952889 18.7178427,16.4952889 L18.7178427,16.4952889 C16.750382,16.4952889 15.7939775,15.7916444 15.7939775,14.3431111 L15.7939775,14.3431111 Z M37.2037753,4.63573333 C36.3775281,4.63573333 36.0532135,4.88746667 35.8702022,5.67217778 L35.8702022,5.67217778 L33.5737528,15.1132444 C33.2868315,16.2734222 32.8841348,16.4856889 32.1948764,16.4856889 L32.1948764,16.4856889 C31.3510112,16.4856889 31.0130337,16.2862222 30.6764944,15.1089778 L30.6764944,15.1089778 L28.0751461,5.6672 C27.8601348,4.87644444 27.5422921,4.63573333 26.7149663,4.63573333 L26.7149663,4.63573333 L26.4938427,4.63573333 C26.1601798,4.63573333 25.8275955,4.6656 25.656809,4.88604444 L25.656809,4.88604444 C25.486382,5.10648889 25.5439101,5.43573333 25.632,5.75857778 L25.632,5.75857778 L28.2610337,15.2814222 C28.7539775,17.1036444 29.3404045,18.6126222 31.530427,18.6126222 L31.530427,18.6126222 C31.9395955,18.6126222 32.3178427,18.5564444 32.6320899,18.4515556 L32.6320899,18.4515556 C31.968,20.5176889 31.2920449,21.4289778 29.2994157,21.6316444 L29.2994157,21.6316444 C28.8949213,21.6647111 28.6320899,21.7216 28.4853933,21.9160889 L28.4853933,21.9160889 C28.3333034,22.1176889 28.3678202,22.4056889 28.4224719,22.6631111 L28.4224719,22.6631111 L28.4774831,22.9073778 C28.5961348,23.4723556 28.7985618,23.8222222 29.4396404,23.8222222 L29.4396404,23.8222222 C29.5068764,23.8222222 29.5795056,23.8190222 29.6575281,23.8122667 L29.6575281,23.8122667 C32.632809,23.6195556 34.2274157,22.0352 35.1604494,18.3438222 L35.1604494,18.3438222 L38.3442697,5.75182222 C38.4194157,5.42897778 38.4650787,5.09973333 38.2903371,4.88284444 L38.2903371,4.88284444 C38.1155955,4.6656 37.784809,4.63573333 37.4529438,4.63573333 L37.4529438,4.63573333 L37.2037753,4.63573333 Z" id="Fill-6" fill="url(#linearGradient-3)" mask="url(#mask-2)"></path>
                </g>
                <g id="Group-13" transform="translate(54.292135, 6.880533)">
                    <path d="M4.69195506,5.33308444 L0.900134831,5.33166222 C0.486651685,5.33166222 0.151191011,4.99992889 0.151550273,4.59104 L0.152629213,0.794773333 C0.152988764,0.385884444 0.488449438,0.0541511111 0.901932584,0.0545063811 L4.69375281,0.0559288889 C5.10723596,0.0559288889 5.44233708,0.387662222 5.44233708,0.796551111 L5.44089888,4.59281778 C5.44089888,5.00170667 5.1054382,5.33308444 4.69195506,5.33308444" id="Fill-9" fill="#B2D235"></path>
                    <path d="M0.415640449,1.31818667 L0.152808989,1.31818667 L0.151370787,4.59107556 C0.151370787,4.99996444 0.48647191,5.33169778 0.899955056,5.33169778 L2.76458427,5.33240889 L2.76458427,3.13969778 C2.76458427,1.59729778 2.12782022,1.31818667 0.415640449,1.31818667" id="Fill-11" fill="#7CAD0B"></path>
                </g>
            </g>
        </g>
    </g>
</svg>