<svg width="24" height="32" viewBox="0 0 24 32" xmlns="http://www.w3.org/2000/svg" preserveAspectRatio="xMinYMin meet">
    <path fill="#ffffff" opacity="0.7" d="M 20.702 9.446 C 20.982 7.347 20.702 5.947 19.578 4.548 C 18.361 3.148 16.208 2.548 13.493 2.548 L 5.536 2.548 C 4.974 2.548 4.506 2.948 4.412 3.548 L 1.136 25.74 C 1.042 26.239 1.323 26.639 1.791 26.639 L 6.753 26.639 L 6.378 28.938 C 6.285 29.238 6.659 29.638 6.94 29.638 L 11.153 29.638 C 11.621 29.638 11.995 29.238 12.089 28.739 L 12.182 28.539 L 12.931 23.341 L 13.025 23.041 C 13.119 22.441 13.493 22.141 13.961 22.141 L 14.616 22.141 C 18.642 22.141 21.731 20.342 22.668 15.443 C 23.042 13.344 22.855 11.545 21.825 10.345 C 21.451 10.046 21.076 9.646 20.702 9.446 L 20.702 9.446"></path>
    <path fill="#ffffff" opacity="0.7" d="M 20.702 9.446 C 20.982 7.347 20.702 5.947 19.578 4.548 C 18.361 3.148 16.208 2.548 13.493 2.548 L 5.536 2.548 C 4.974 2.548 4.506 2.948 4.412 3.548 L 1.136 25.74 C 1.042 26.239 1.323 26.639 1.791 26.639 L 6.753 26.639 L 7.97 18.342 L 7.876 18.642 C 8.063 18.043 8.438 17.643 9.093 17.643 L 11.433 17.643 C 16.021 17.643 19.578 15.643 20.608 9.946 C 20.608 9.746 20.608 9.546 20.702 9.446"></path>
    <path fill="#ffffff" d="M 9.28 9.446 C 9.28 9.146 9.468 8.846 9.842 8.646 C 9.936 8.646 10.123 8.546 10.216 8.546 L 16.489 8.546 C 17.238 8.546 17.893 8.646 18.548 8.746 C 18.736 8.746 18.829 8.746 19.11 8.846 C 19.204 8.946 19.391 8.946 19.578 9.046 C 19.672 9.046 19.672 9.046 19.859 9.146 C 20.14 9.246 20.421 9.346 20.702 9.446 C 20.982 7.347 20.702 5.947 19.578 4.648 C 18.361 3.248 16.208 2.548 13.493 2.548 L 5.536 2.548 C 4.974 2.548 4.506 3.048 4.412 3.548 L 1.136 25.74 C 1.042 26.239 1.323 26.639 1.791 26.639 L 6.753 26.639 L 7.97 18.342 L 9.28 9.446 Z"></path>
    <g transform="matrix(0.497737, 0, 0, 0.52612, 1.10144, 0.638654)" opacity="0.2">
        <path fill="#231f20" d="M39.3 16.7c0.9 0.5 1.7 1.1 2.3 1.8 1 1.1 1.6 2.5 1.9 4.1 0.3-3.2-0.2-5.8-1.9-7.8-0.6-0.7-1.3-1.2-2.1-1.7C39.5 14.2 39.5 15.4 39.3 16.7z"></path>
        <path fill="#231f20" d="M0.4 45.2L6.7 5.6C6.8 4.5 7.8 3.7 8.9 3.7h16c5.5 0 9.8 1.2 12.2 3.9 1.2 1.4 1.9 3 2.2 4.8 0.4-3.6-0.2-6.1-2.2-8.4C34.7 1.2 30.4 0 24.9 0H8.9c-1.1 0-2.1 0.8-2.3 1.9L0 44.1C0 44.5 0.1 44.9 0.4 45.2z"></path>
        <path fill="#231f20" d="M10.7 49.4l-0.1 0.6c-0.1 0.4 0.1 0.8 0.4 1.1l0.3-1.7H10.7z"></path>
    </g>
</svg>
