<?xml version="1.0" encoding="UTF-8"?>
<svg width="33px" height="30px" viewBox="0 0 33 30" version="1.1" xmlns="http://www.w3.org/2000/svg" xmlns:xlink="http://www.w3.org/1999/xlink">
    <!-- Generator: Sketch 50.2 (55047) - http://www.bohemiancoding.com/sketch -->
    <title>logo klarna</title>
    <desc>Created with Sketch.</desc>
    <defs></defs>
    <g id="Page-1" stroke="none" stroke-width="1" fill="none" fill-rule="evenodd">
        <g id="SPB_&amp;_AltPay_Sofort_German" transform="translate(-244.000000, -614.000000)" fill="#FFFFFF">
            <g id="Group-4-Copy" transform="translate(100.000000, 606.000000)">
                <g id="SPBbutton-iDEAL-Copy-7">
                    <g id="logo-klarna" transform="translate(133.000000, 6.000000)">
                        <g id="Group" transform="translate(11.250000, 2.250000)">
                            <path d="M5.739975,22.5 L4.1340375,22.5 C4.1340375,23.81175 3.5287875,25.0093125 2.477475,25.7979375 L1.8435375,26.271 L4.306725,29.6116875 L6.3306,29.6116875 L4.0620375,26.5359375 C5.134725,25.4750625 5.739975,24.04125 5.739975,22.5" id="Fill-3"></path>
                            <polygon id="Fill-5" points="0 29.6116875 1.6419375 29.6116875 1.6419375 22.5 0 22.5"></polygon>
                            <polygon id="Fill-7" points="6.8056875 29.6116875 8.35425 29.6116875 8.35425 22.5 6.8056875 22.5"></polygon>
                            <path d="M21.937275,24.5575125 C21.34665,24.5575125 20.7847125,24.73695 20.41065,25.2460125 L20.41065,24.6936375 L18.9414,24.6936375 L18.9414,29.611575 L20.432025,29.611575 L20.432025,27.030825 C20.432025,26.2855125 20.936025,25.9198875 21.541275,25.9198875 C22.189275,25.9198875 22.5639,26.3068875 22.5639,27.0235125 L22.5639,29.6188875 L24.0404625,29.6188875 L24.0404625,26.4857625 C24.0404625,25.338825 23.1258375,24.5575125 21.937275,24.5575125" id="Fill-8"></path>
                            <path d="M11.6888063,28.4145187 C10.9468687,28.4145187 10.3494938,27.8480812 10.3494938,27.1528312 C10.3494938,26.4575812 10.9468687,25.8911437 11.6888063,25.8911437 C12.4307438,25.8911437 13.0281188,26.4575812 13.0281188,27.1528312 C13.0281188,27.8480812 12.4307438,28.4145187 11.6888063,28.4145187 Z M13.0354312,24.6935812 L13.0354312,25.0091437 C12.6180563,24.7222687 12.1134938,24.5574562 11.5661812,24.5574562 C10.1261813,24.5574562 8.95899375,25.7190187 8.95899375,27.1528312 C8.95899375,28.5866437 10.1261813,29.7482062 11.5661812,29.7482062 C12.1134938,29.7482062 12.6180563,29.5828312 13.0354312,29.2965187 L13.0354312,29.6115187 L14.5119937,29.6115187 L14.5119937,24.6935812 L13.0354312,24.6935812 Z" id="Fill-9"></path>
                            <path d="M16.8022125,25.3317937 L16.8022125,24.6939188 L15.28965,24.6939188 L15.28965,29.6118563 L16.809525,29.6118563 L16.809525,27.3174188 C16.809525,26.5434188 17.65215,26.1277313 18.2354625,26.1277313 L18.2500875,26.1277313 L18.2500875,24.6939188 C17.65215,24.6939188 17.097525,24.9521062 16.8022125,25.3317937" id="Fill-10"></path>
                            <path d="M27.2883375,28.4145187 C26.5464,28.4145187 25.949025,27.8480812 25.949025,27.1528312 C25.949025,26.4575812 26.5464,25.8911437 27.2883375,25.8911437 C28.030275,25.8911437 28.62765,26.4575812 28.62765,27.1528312 C28.6349625,27.8480812 28.030275,28.4145187 27.2883375,28.4145187 Z M28.6349625,24.6935812 L28.6349625,25.0091437 C28.2175875,24.7222687 27.713025,24.5574562 27.1657125,24.5574562 C25.7257125,24.5574562 24.558525,25.7190187 24.558525,27.1528312 C24.558525,28.5866437 25.7257125,29.7482062 27.1657125,29.7482062 C27.713025,29.7482062 28.2175875,29.5828312 28.6349625,29.2965187 L28.6349625,29.6115187 L30.111525,29.6115187 L30.111525,24.6935812 L28.6349625,24.6935812 Z" id="Fill-11"></path>
                            <path d="M31.6887187,27.8696812 C31.1774062,27.8696812 30.7594687,28.2853687 30.7594687,28.7944312 C30.7594687,29.3034937 31.1774062,29.7191812 31.6887187,29.7191812 C32.2000313,29.7191812 32.6179688,29.3034937 32.6179688,28.7944312 C32.6179688,28.2780562 32.2000313,27.8696812 31.6887187,27.8696812" id="Fill-12"></path>
                            <path d="M13.8099938,14.4819 C14.1913688,14.8570875 14.1992438,15.468525 13.8279938,15.853275 L13.7537438,15.9314625 C13.3824938,16.3117125 12.7682438,16.3207125 12.3818063,15.9489 L10.2223688,13.80915 C9.62780625,13.2123375 9.54230625,12.4765875 9.92086875,12.0879 L9.99680625,12.0085875 C10.3084313,11.6874 10.8169313,11.65365 11.1713063,11.93265 C11.3400563,12.0654 11.5841813,12.03615 11.7169313,11.8679625 C11.8496813,11.6992125 11.8209938,11.4550875 11.6522438,11.3223375 C10.9845563,10.797525 10.0283063,10.8610875 9.43655625,11.470275 L9.36061875,11.5495875 C8.65974375,12.2695875 8.80093125,13.4829 9.67336875,14.3587125 L11.8384313,16.5040875 C12.5364938,17.176275 13.6401188,17.1594 14.3128688,16.4709 L14.3893688,16.3904625 C15.0548063,15.7008375 15.0401813,14.6017125 14.3550563,13.9284 C14.2020563,13.7782125 13.9562438,13.7799 13.8054938,13.9329 C13.6553063,14.0859 13.6569938,14.3317125 13.8099938,14.4819" id="Fill-13"></path>
                            <path d="M12.517425,2.88135 L13.4011125,10.1505375 C13.4269875,10.3631625 13.62105,10.5150375 13.833675,10.4891625 C14.0468625,10.4632875 14.1987375,10.2697875 14.1728625,10.0566 L13.2863625,2.7649125 L13.2773625,2.7176625 C13.12605,2.1135375 13.5023625,1.4351625 14.0029875,1.32885 C14.283675,1.2686625 14.5767375,1.3237875 14.8163625,1.48185 C15.0559875,1.6399125 15.221925,1.8874125 15.2776125,2.1686625 L16.8166125,8.74485 C16.86555,8.9535375 17.0742375,9.0829125 17.2834875,9.0345375 C17.492175,8.9856 17.6221125,8.77635 17.573175,8.5676625 L16.0369875,2.0055375 C15.9447375,1.5330375 15.6578625,1.1061 15.244425,0.83385 C14.8309875,0.5610375 14.3253,0.465975 13.8409875,0.569475 C12.8988,0.769725 12.28005,1.8739125 12.517425,2.88135" id="Fill-14"></path>
                            <path d="M20.6407125,11.4231938 L22.3884,2.70950625 C22.5914625,1.77181875 22.0334625,0.83019375 21.1075875,0.55513125 C20.0703375,0.29300625 19.0314,0.90331875 18.760275,1.92088125 L16.825275,8.55106875 C16.76565,8.75694375 16.883775,8.97238125 17.08965,9.03256875 C17.295525,9.09275625 17.511525,8.97463125 17.5717125,8.76875625 L19.5089625,2.12956875 C19.67265,1.51419375 20.292525,1.14969375 20.9017125,1.30381875 C21.4225875,1.45850625 21.746025,2.00413125 21.6279,2.55144375 L19.878525,11.2707563 C19.8363375,11.4811313 19.973025,11.6853188 20.1834,11.7275063 C20.393775,11.7696938 20.598525,11.6335688 20.6407125,11.4231938" id="Fill-15"></path>
                            <path d="M16.238925,19.8179437 C13.4686125,19.8179437 11.1544875,17.7856313 11.1544875,14.8977562 C11.1544875,14.6834437 10.980675,14.5096312 10.7658,14.5096312 C10.5514875,14.5096312 10.3771125,14.6834437 10.3771125,14.8977562 C10.3771125,18.2384438 13.0602375,20.5947562 16.238925,20.5947562 C16.4538,20.5947562 16.6276125,20.4209437 16.6276125,20.2060688 C16.6276125,19.9917563 16.4538,19.8179437 16.238925,19.8179437" id="Fill-16"></path>
                            <path d="M14.8683938,13.0258125 C14.8082063,13.2435 14.6726438,13.4330625 14.4864562,13.56075 L14.4032063,13.615875 C13.9565812,13.91625 13.3524562,13.7998125 13.0503938,13.356 L11.3510813,10.8275625 C10.8875813,10.1244375 10.9483312,9.3841875 11.3943937,9.0781875 L11.4776438,9.0230625 C12.0497062,8.69175 12.5362687,8.9431875 13.0363313,9.6705 L14.4566438,11.7855 C14.5764563,11.9638125 14.8177687,12.0110625 14.9960812,11.8918125 C15.1743937,11.772 15.2216438,11.5306875 15.1018313,11.3529375 L13.6792688,9.2345625 C12.9761438,8.211375 12.1053938,7.761375 11.0670187,8.364375 L10.9590187,8.43525 C10.1237062,9.007875 10.0241437,10.22625 10.7042063,11.257875 L12.4063312,13.7908125 C12.9502687,14.590125 14.0353312,14.799375 14.8357688,14.2610625 L14.9218313,14.2036875 C15.2632687,13.9696875 15.5079563,13.627125 15.6170813,13.233375 C15.6744563,13.0269375 15.5535187,12.812625 15.3465188,12.75525 C15.1400812,12.6984375 14.9257687,12.819375 14.8683938,13.0258125" id="Fill-17"></path>
                            <path d="M17.4414938,14.3119688 C16.6343063,14.7625313 16.1319938,15.6113438 16.0695563,16.8949688 C16.0594313,17.1092813 16.2248063,17.2915313 16.4391188,17.3016563 C16.6534313,17.3123438 16.8356813,17.1469688 16.8458063,16.9326563 C16.9026188,15.7699688 17.3543063,15.1427813 18.0855563,14.8677188 C18.4770563,14.7203438 18.9028688,14.6910938 19.2774938,14.7310313 C19.3281188,14.7360938 19.3613063,14.7411563 19.3748063,14.7434063 C19.8754313,14.8367813 20.0273063,14.0937188 19.5306188,13.9829063 L16.5426188,13.3157813 C15.1436813,12.9332813 14.9327438,12.4157813 15.1920563,11.5534688 C15.3034313,11.1771563 15.5334938,10.9842188 15.8799938,10.9077188 C16.1083688,10.8565313 16.3654313,10.8632813 16.6095563,10.9060313 C16.6804313,10.9184063 16.7299313,10.9296563 16.7518688,10.9364063 L21.2878688,11.9950313 C21.3176813,12.0006563 21.3390563,12.0062813 21.3761813,12.0231563 C21.4509938,12.0569063 21.5291813,12.1114688 21.6056813,12.1930313 C21.9094313,12.5175938 22.0770563,13.1301563 21.9921188,14.1359063 C21.6962438,17.6627813 20.0520563,19.8520313 16.1544938,19.8177188 C15.9401813,19.8160313 15.7646813,19.9881563 15.7629938,20.2030313 C15.7607438,20.4173438 15.9334313,20.5928438 16.1477438,20.5945313 C20.5279313,20.6327813 22.4409938,18.0857813 22.7666813,14.2011563 C22.8690563,12.9917813 22.6418063,12.1632188 22.1726813,11.6625938 C21.9144938,11.3864063 21.6416813,11.2626563 21.4318688,11.2322813 L16.9476188,10.1849063 C16.9194938,10.1764688 16.8429938,10.1584688 16.7439938,10.1410313 C16.4076188,10.0819688 16.0538063,10.0735313 15.7112438,10.1494688 C15.1026188,10.2844688 14.6436188,10.6703438 14.4473063,11.3312813 C14.0732438,12.5760938 14.4726188,13.5548438 16.3553063,14.0695313 L17.4414938,14.3119688 Z" id="Fill-18"></path>
                        </g>
                    </g>
                </g>
            </g>
        </g>
    </g>
</svg>