<?xml version="1.0" encoding="UTF-8"?>
<svg width="100" height="32" viewBox="0 0 42 28" version="1.1" xmlns="http://www.w3.org/2000/svg" xmlns:xlink="http://www.w3.org/1999/xlink">
    <!-- Generator: Sketch 50.2 (55047) - http://www.bohemiancoding.com/sketch -->
    <title>logo klarna</title>
    <desc>Created with Sketch.</desc>
    <defs>
        <path d="M2.625,28 L39.375,28 C40.8247475,28 42,26.8247475 42,25.375 L42,2.625 C42,1.17525253 40.8247475,-2.66314289e-16 39.375,0 L2.625,0 C1.17525253,2.66314289e-16 -1.7754286e-16,1.17525253 0,2.625 L0,25.375 C1.7754286e-16,26.8247475 1.17525253,28 2.625,28 Z" id="path-1"></path>
    </defs>
    <g id="Page-1" stroke="none" stroke-width="1" fill="none" fill-rule="evenodd">
        <g id="SPB_&amp;_AltPay_Sofort_German" transform="translate(-100.000000, -159.000000)">
            <g id="logo-klarna" transform="translate(100.000000, 159.000000)">
                <mask id="mask-2" fill="white">
                    <use xlink:href="#path-1"></use>
                </mask>
                <use id="Clip-6" fill="#EB6F93" xlink:href="#path-1"></use>
                <g id="Group" mask="url(#mask-2)" fill="#FFFFFF">
                    <g transform="translate(8.750000, 1.750000)">
                        <path d="M4.464425,17.5 L3.2153625,17.5 C3.2153625,18.52025 2.7446125,19.4516875 1.926925,20.0650625 L1.4338625,20.433 L3.349675,23.0313125 L4.9238,23.0313125 L3.1593625,20.6390625 C3.993675,19.8139375 4.464425,18.69875 4.464425,17.5" id="Fill-3"></path>
                        <polygon id="Fill-5" points="0 23.0313125 1.2770625 23.0313125 1.2770625 17.5 0 17.5"></polygon>
                        <polygon id="Fill-7" points="5.2933125 23.0313125 6.49775 23.0313125 6.49775 17.5 5.2933125 17.5"></polygon>
                        <path d="M17.062325,19.1002875 C16.60295,19.1002875 16.1658875,19.23985 15.87495,19.6357875 L15.87495,19.2061625 L14.7322,19.2061625 L14.7322,23.031225 L15.891575,23.031225 L15.891575,21.023975 C15.891575,20.4442875 16.283575,20.1599125 16.754325,20.1599125 C17.258325,20.1599125 17.5497,20.4609125 17.5497,21.0182875 L17.5497,23.0369125 L18.6981375,23.0369125 L18.6981375,20.6000375 C18.6981375,19.707975 17.9867625,19.1002875 17.062325,19.1002875" id="Fill-8"></path>
                        <path d="M9.09129375,22.1001812 C8.51423125,22.1001812 8.04960625,21.6596187 8.04960625,21.1188687 C8.04960625,20.5781187 8.51423125,20.1375562 9.09129375,20.1375562 C9.66835625,20.1375562 10.1329812,20.5781187 10.1329812,21.1188687 C10.1329812,21.6596187 9.66835625,22.1001812 9.09129375,22.1001812 Z M10.1386687,19.2061187 L10.1386687,19.4515562 C9.81404375,19.2284312 9.42160625,19.1002437 8.99591875,19.1002437 C7.87591875,19.1002437 6.96810625,20.0036812 6.96810625,21.1188687 C6.96810625,22.2340562 7.87591875,23.1374937 8.99591875,23.1374937 C9.42160625,23.1374937 9.81404375,23.0088687 10.1386687,22.7861812 L10.1386687,23.0311812 L11.2871062,23.0311812 L11.2871062,19.2061187 L10.1386687,19.2061187 Z" id="Fill-9"></path>
                        <path d="M13.0683875,19.7025062 L13.0683875,19.2063812 L11.89195,19.2063812 L11.89195,23.0314438 L13.074075,23.0314438 L13.074075,21.2468813 C13.074075,20.6448813 13.72945,20.3215688 14.1831375,20.3215688 L14.1945125,20.3215688 L14.1945125,19.2063812 C13.72945,19.2063812 13.298075,19.4071937 13.0683875,19.7025062" id="Fill-10"></path>
                        <path d="M21.2242625,22.1001812 C20.6472,22.1001812 20.182575,21.6596187 20.182575,21.1188687 C20.182575,20.5781187 20.6472,20.1375562 21.2242625,20.1375562 C21.801325,20.1375562 22.26595,20.5781187 22.26595,21.1188687 C22.2716375,21.6596187 21.801325,22.1001812 21.2242625,22.1001812 Z M22.2716375,19.2061187 L22.2716375,19.4515562 C21.9470125,19.2284312 21.554575,19.1002437 21.1288875,19.1002437 C20.0088875,19.1002437 19.101075,20.0036812 19.101075,21.1188687 C19.101075,22.2340562 20.0088875,23.1374937 21.1288875,23.1374937 C21.554575,23.1374937 21.9470125,23.0088687 22.2716375,22.7861812 L22.2716375,23.0311812 L23.420075,23.0311812 L23.420075,19.2061187 L22.2716375,19.2061187 Z" id="Fill-11"></path>
                        <path d="M24.6467813,21.6764187 C24.2490938,21.6764187 23.9240313,21.9997312 23.9240313,22.3956687 C23.9240313,22.7916062 24.2490938,23.1149187 24.6467813,23.1149187 C25.0444688,23.1149187 25.3695313,22.7916062 25.3695313,22.3956687 C25.3695313,21.9940437 25.0444688,21.6764187 24.6467813,21.6764187" id="Fill-12"></path>
                        <path d="M10.7411063,11.2637 C11.0377313,11.5555125 11.0438563,12.031075 10.7551063,12.330325 L10.6973563,12.3911375 C10.4086063,12.6868875 9.93085625,12.6938875 9.63029375,12.4047 L7.95073125,10.74045 C7.48829375,10.2762625 7.42179375,9.7040125 7.71623125,9.4017 L7.77529375,9.3400125 C8.01766875,9.0902 8.41316875,9.06395 8.68879375,9.28095 C8.82004375,9.3842 9.00991875,9.36145 9.11316875,9.2306375 C9.21641875,9.0993875 9.19410625,8.9095125 9.06285625,8.8062625 C8.54354375,8.398075 7.79979375,8.4475125 7.33954375,8.921325 L7.28048125,8.9830125 C6.73535625,9.5430125 6.84516875,10.4867 7.52373125,11.1678875 L9.20766875,12.8365125 C9.75060625,13.359325 10.6089813,13.3462 11.1322313,12.8107 L11.1917313,12.7481375 C11.7092938,12.2117625 11.6979188,11.3568875 11.1650438,10.8332 C11.0460438,10.7163875 10.8548563,10.7177 10.7376063,10.8367 C10.6207938,10.9557 10.6221063,11.1468875 10.7411063,11.2637" id="Fill-13"></path>
                        <path d="M9.735775,2.24105 L10.4230875,7.8948625 C10.4432125,8.0602375 10.59415,8.1783625 10.759525,8.1582375 C10.9253375,8.1381125 11.0434625,7.9876125 11.0233375,7.8218 L10.3338375,2.1504875 L10.3268375,2.1137375 C10.20915,1.6438625 10.5018375,1.1162375 10.8912125,1.03355 C11.109525,0.9867375 11.3374625,1.0296125 11.5238375,1.15255 C11.7102125,1.2754875 11.839275,1.4679875 11.8825875,1.6867375 L13.0795875,6.80155 C13.11765,6.9638625 13.2799625,7.0644875 13.4427125,7.0268625 C13.605025,6.9888 13.7060875,6.82605 13.668025,6.6637375 L12.4732125,1.5598625 C12.4014625,1.1923625 12.1783375,0.8603 11.856775,0.64855 C11.5352125,0.4363625 11.1419,0.362425 10.7652125,0.442925 C10.0324,0.598675 9.55115,1.4574875 9.735775,2.24105" id="Fill-14"></path>
                        <path d="M16.0538875,8.88470625 L17.4132,2.10739375 C17.5711375,1.37808125 17.1371375,0.64570625 16.4170125,0.43176875 C15.6102625,0.22789375 14.8022,0.70258125 14.591325,1.49401875 L13.086325,6.65083125 C13.03995,6.81095625 13.131825,6.97851875 13.29195,7.02533125 C13.452075,7.07214375 13.620075,6.98026875 13.6668875,6.82014375 L15.1736375,1.65633125 C15.30095,1.17770625 15.783075,0.89420625 16.2568875,1.01408125 C16.6620125,1.13439375 16.913575,1.55876875 16.8217,1.98445625 L15.461075,8.76614375 C15.4282625,8.92976875 15.534575,9.08858125 15.6982,9.12139375 C15.861825,9.15420625 16.021075,9.04833125 16.0538875,8.88470625" id="Fill-15"></path>
                        <path d="M12.630275,15.4139563 C10.4755875,15.4139563 8.6757125,13.8332688 8.6757125,11.5871437 C8.6757125,11.4204562 8.540525,11.2852688 8.3734,11.2852688 C8.2067125,11.2852688 8.0710875,11.4204562 8.0710875,11.5871437 C8.0710875,14.1854563 10.1579625,16.0181438 12.630275,16.0181438 C12.7974,16.0181438 12.9325875,15.8829562 12.9325875,15.7158313 C12.9325875,15.5491438 12.7974,15.4139563 12.630275,15.4139563" id="Fill-16"></path>
                        <path d="M11.5643063,10.1311875 C11.5174937,10.3005 11.4120563,10.4479375 11.2672437,10.54725 L11.2024938,10.590125 C10.8551187,10.82375 10.3852438,10.7331875 10.1503062,10.388 L8.82861875,8.4214375 C8.46811875,7.8745625 8.51536875,7.2988125 8.86230625,7.0608125 L8.92705625,7.0179375 C9.37199375,6.76025 9.75043125,6.9558125 10.1393688,7.5215 L11.2440562,9.1665 C11.3372438,9.3051875 11.5249312,9.3419375 11.6636187,9.2491875 C11.8023062,9.156 11.8390563,8.9683125 11.7458687,8.8300625 L10.6394313,7.1824375 C10.0925563,6.386625 9.41530625,6.036625 8.60768125,6.505625 L8.52368125,6.56075 C7.87399375,7.006125 7.79655625,7.95375 8.32549375,8.756125 L9.64936875,10.7261875 C10.0724312,11.347875 10.9163688,11.510625 11.5389313,11.0919375 L11.6058687,11.0473125 C11.8714312,10.8653125 12.0617438,10.598875 12.1466188,10.292625 C12.1912438,10.1320625 12.0971812,9.965375 11.9361813,9.92075 C11.7756187,9.8765625 11.6089312,9.970625 11.5643063,10.1311875" id="Fill-17"></path>
                        <path d="M13.5656063,11.1315313 C12.9377938,11.4819688 12.5471063,12.1421563 12.4985438,13.1405313 C12.4906688,13.3072188 12.6192938,13.4489688 12.7859813,13.4568438 C12.9526688,13.4651563 13.0944188,13.3365313 13.1022938,13.1698438 C13.1464813,12.2655313 13.4977938,11.7777188 14.0665438,11.5637813 C14.3710438,11.4491563 14.7022313,11.4264063 14.9936063,11.4574688 C15.0329813,11.4614063 15.0587938,11.4653438 15.0692938,11.4670938 C15.4586688,11.5397188 15.5767938,10.9617813 15.1904813,10.8755938 L12.8664813,10.3567188 C11.7784188,10.0592188 11.6143563,9.65671875 11.8160438,8.98603125 C11.9026688,8.69334375 12.0816063,8.54328125 12.3511063,8.48378125 C12.5287313,8.44396875 12.7286688,8.44921875 12.9185438,8.48246875 C12.9736688,8.49209375 13.0121688,8.50084375 13.0292313,8.50609375 L16.5572313,9.32946875 C16.5804188,9.33384375 16.5970438,9.33821875 16.6259188,9.35134375 C16.6841063,9.37759375 16.7449188,9.42003125 16.8044188,9.48346875 C17.0406688,9.73590625 17.1710438,10.2123438 17.1049813,10.9945938 C16.8748563,13.7377188 15.5960438,15.4404688 12.5646063,15.4137813 C12.3979188,15.4124688 12.2614188,15.5463438 12.2601063,15.7134688 C12.2583563,15.8801563 12.3926688,16.0166563 12.5593563,16.0179688 C15.9661688,16.0477188 17.4541063,14.0667188 17.7074188,11.0453438 C17.7870438,10.1047188 17.6102938,9.46028125 17.2454188,9.07090625 C17.0446063,8.85609375 16.8324188,8.75984375 16.6692313,8.73621875 L13.1814813,7.92159375 C13.1596063,7.91503125 13.1001063,7.90103125 13.0231063,7.88746875 C12.7614813,7.84153125 12.4862938,7.83496875 12.2198563,7.89403125 C11.7464813,7.99903125 11.3894813,8.29915625 11.2367938,8.81321875 C10.9458563,9.78140625 11.2564813,10.5426563 12.7207938,10.9429688 L13.5656063,11.1315313 Z" id="Fill-18"></path>
                    </g>
                </g>
            </g>
        </g>
    </g>
</svg>
