<?xml version="1.0" encoding="UTF-8"?>
<svg width="76px" height="24px" viewBox="0 0 76 24" version="1.1" xmlns="http://www.w3.org/2000/svg" xmlns:xlink="http://www.w3.org/1999/xlink">
    <!-- Generator: Sketch 55.2 (78181) - https://sketchapp.com -->
    <title>Group 23 Copy 3</title>
    <desc>Created with Sketch.</desc>
    <defs>
        <polygon id="path-1" points="0.011198256 0.0410285016 9.14933679 0.0410285016 9.14933679 11.3835224 0.011198256 11.3835224"></polygon>
        <polygon id="path-3" points="0.0177293399 0.157890684 4.59311983 0.157890684 4.59311983 4.8 0.0177293399 4.8"></polygon>
    </defs>
    <g id="Page-1" stroke="none" stroke-width="1" fill="none" fill-rule="evenodd">
        <g id="SPB_&amp;_AltPay_NewAssets" transform="translate(-222.000000, -618.000000)">
            <g id="Group-4-Copy" transform="translate(100.000000, 606.000000)">
                <g id="SPBbutton-iDEAL-Copy-7">
                    <g id="Group-23-Copy-3" transform="translate(122.000000, 12.000000)">
                        <path d="M62.9204197,7.38952 C62.9968135,7.36952 63.0769482,7.37052 63.1564922,7.36952 C63.866285,7.37092 64.5752902,7.36912 65.2850829,7.37052 C65.4656321,7.37352 65.661342,7.37472 65.8172798,7.48212 C65.9265544,7.56272 65.9486062,7.71112 65.9493938,7.83932 C65.9493938,11.30472 65.949,14.76992 65.9493938,18.23492 C65.9486062,18.38112 65.9373834,18.54392 65.8334249,18.65652 C65.7229689,18.76272 65.5636839,18.78112 65.418772,18.78172 C64.6499119,18.78112 63.880658,18.78292 63.1119948,18.78092 C62.9767306,18.77572 62.8233523,18.77912 62.7168342,18.68172 C62.6221295,18.55272 62.6353212,18.38172 62.6302021,18.22972 C62.6298083,14.76692 62.6302021,11.30392 62.6302021,7.84052 C62.6148446,7.64572 62.7286477,7.44232 62.9204197,7.38952" id="Fill-1" fill="#FFFFFF"></path>
                        <path d="M22.1114518,7.57526 C22.3926124,7.51766 22.6820425,7.53366 22.9677316,7.53146 C23.6068404,7.54326 24.2447679,7.52895977 24.8844674,7.53106 C25.382799,7.54706 25.8813275,7.51986 26.3800528,7.53546 C26.6208508,7.55846 26.8620425,7.51506 27.1034311,7.54106 C27.5720321,7.54586 28.0400425,7.53926 28.5084466,7.53066 C28.9768508,7.53706 29.4452549,7.52066 29.9132653,7.54106 C30.2942497,7.53366 30.6785813,7.50766 31.0570062,7.56666 C31.2117627,7.59046 31.3606124,7.71646 31.3545088,7.88606 C31.359628,8.54926 31.354115,9.21206 31.3574622,9.87526 C31.3525399,9.96966 31.3677005,10.08186 31.2974104,10.15666 C31.2157005,10.24066 31.0920528,10.25406 30.9819907,10.25586 C30.2135244,10.25886 29.4448611,10.25366 28.6767886,10.25806 C28.5425088,10.25146 28.3749544,10.31986 28.3905088,10.48306 C28.384799,13.06626 28.3895244,15.64966 28.3877523,18.23286 C28.3814518,18.38206 28.366685,18.55606 28.2379181,18.65266 C28.0711513,18.77386 27.8555554,18.77686 27.6586642,18.78126 C26.9037834,18.78206 26.1490995,18.78126 25.3942187,18.78166 C25.2093378,18.77686 25.0154,18.78806 24.8425295,18.71026 C24.6928922,18.64826 24.6556798,18.46606 24.6566642,18.31926 C24.6556798,15.72126 24.6588301,13.12386 24.655286,10.52586 C24.6702497,10.38086 24.5572342,10.25586 24.4127161,10.26286 C23.6609855,10.24506 22.9074829,10.26666 22.1553585,10.25246 C21.9950891,10.25926 21.8293067,10.13806 21.843286,9.96286 C21.8361979,9.28386 21.8395451,8.60506 21.8421047,7.92626 C21.8326539,7.76006 21.9511824,7.60726 22.1114518,7.57526" id="Fill-3" fill="#FFFFFF"></path>
                        <path d="M58.0829409,8.73932 C58.5661119,8.66352 59.0465264,8.56792 59.5312725,8.50332 C59.711428,8.47012 59.9597078,8.52412 59.9740808,8.74932 C60.0091275,9.34292 59.9793969,9.93932 59.990029,10.53432 C60.3223813,10.53632 60.6551275,10.53112 60.9876767,10.53632 C61.1382984,10.53512 61.269428,10.64332 61.3334176,10.77672 C61.4104021,10.93972 61.428713,11.12472 61.4265472,11.30392 C61.4251689,11.65032 61.4265472,11.99652 61.4261534,12.34292 C61.4224124,12.46712 61.4174902,12.60492 61.3379461,12.70692 C61.2609617,12.79352 61.1386922,12.80652 61.0307959,12.80572 C60.7201016,12.80572 60.4088166,12.80532 60.0981223,12.80532 C60.0973347,13.92172 60.096744,15.03832 60.098713,16.15472 C60.0880808,16.30112 60.187314,16.43492 60.3170653,16.49032 C60.5013554,16.57252 60.7069098,16.55352 60.9028166,16.53992 C60.9931896,16.61852 61.0146508,16.74652 61.048713,16.85652 C61.1514902,17.29152 61.2058321,17.73832 61.2268995,18.18552 C61.2292622,18.34872 61.242257,18.51532 61.2089824,18.67652 C60.9904332,18.81772 60.7153762,18.83012 60.4680808,18.89032 C59.5830549,19.03232 58.6092311,19.10412 57.7964642,18.64792 C57.1431793,18.29032 56.7612104,17.54312 56.7472311,16.80192 C56.7338425,15.45472 56.741915,14.10752 56.7472311,12.76012 C56.522972,12.75112 56.2959565,12.78092 56.0746508,12.74172 C55.8328684,12.67592 55.7911275,12.38752 55.7964435,12.17232 C55.7997907,11.77632 55.7895523,11.37972 55.8013658,10.98392 C55.8013658,10.78452 55.9289513,10.58312 56.132143,10.55112 C56.3904642,10.51652 56.6529202,10.54252 56.9130135,10.53472 C56.9163606,10.17012 56.9112415,9.80572 56.9149824,9.44112 C56.9122259,9.23232 57.0579254,9.05532 57.2300083,8.95832 C57.4887233,8.80552 57.7956767,8.79512 58.0829409,8.73932" id="Fill-5" fill="#FFFFFF"></path>
                        <path d="M49.7112062,10.71042 C50.6897554,10.25942 51.7858487,10.17882 52.8466984,10.21302 C53.4050819,10.24642 53.9774446,10.25322 54.5118073,10.43982 C54.6183254,10.46142 54.6791648,10.55942 54.6868435,10.66462 C54.733113,11.10962 54.6512062,11.55982 54.5263772,11.98542 C54.4588435,12.17202 54.3958383,12.39322 54.2135171,12.49582 C53.8685637,12.49042 53.5287295,12.41082 53.185942,12.37502 C52.7834964,12.33302 52.3676622,12.26722 51.9701389,12.37102 C51.8055378,12.40302 51.6488124,12.61082 51.7710819,12.76542 C51.9238694,12.92722 52.1323772,13.01782 52.326315,13.11902 C52.9699523,13.41902 53.6257969,13.72382 54.164885,14.20062 C54.512201,14.50702 54.8100974,14.88362 54.9750922,15.32402 C55.0896829,15.61222 55.1357554,15.92282 55.151113,16.23182 C55.1552477,16.80422 55.042429,17.40122 54.7006259,17.86902 C54.2700249,18.47222 53.5476311,18.76782 52.8476829,18.89502 C51.8874446,19.06042 50.9049575,19.00282 49.9417658,18.89342 C49.3477451,18.80762 48.7442736,18.72462 48.1815585,18.50242 C48.0961078,18.26442 48.084885,18.00942 48.0636207,17.75962 C48.0474756,17.40882 48.0449161,17.05482 48.1087088,16.70882 C48.1378487,16.58122 48.1693513,16.43442 48.2835482,16.35602 C48.3670301,16.33602 48.450315,16.37462 48.5324187,16.39102 C49.1439627,16.56122 49.780315,16.62622 50.4135171,16.62302 C50.7405534,16.61762 51.0890508,16.64662 51.390885,16.49402 C51.5584394,16.41622 51.6236104,16.15782 51.4645223,16.03742 C51.2217554,15.82742 50.9075171,15.73362 50.6224187,15.59802 C50.1571648,15.39682 49.6907295,15.18462 49.2815896,14.87902 C48.8673306,14.57022 48.5170611,14.15242 48.3567917,13.65042 C48.1634446,13.03962 48.1689575,12.33642 48.4881181,11.76922 C48.7582528,11.28322 49.2199627,10.93982 49.7112062,10.71042" id="Fill-7" fill="#FFFFFF"></path>
                        <path d="M33.8464819,10.52642 C34.5667098,10.49742 35.2883161,10.51902 36.0093316,10.50782 C36.5348342,10.51202 37.0607306,10.49822 37.5862332,10.50602 C37.7171658,10.49702 37.8547927,10.59442 37.8522332,10.73642 C37.8559741,11.34602 37.8540052,11.95622 37.8530207,12.56622 C37.8573523,12.72122 37.7490622,12.88142 37.5887927,12.89142 C37.1144819,12.91482 36.6289482,12.89702 36.1674352,13.02962 C35.8776114,13.13122 35.5818808,13.27982 35.4019223,13.54162 C35.2554352,13.76022 35.2188135,14.03222 35.219601,14.29102 C35.2192073,15.57462 35.219601,16.85822 35.2192073,18.14182 C35.2170415,18.30942 35.2008964,18.49202 35.0937876,18.62842 C34.9945544,18.74482 34.836057,18.78342 34.6899637,18.78122 C33.9931658,18.78162 33.2957772,18.78262 32.5985855,18.78082 C32.4013005,18.77902 32.188658,18.72362 32.054772,18.56742 C31.9265959,18.41582 31.8988342,18.20582 31.901,18.01282 C31.9021813,16.10802 31.9004093,14.20362 31.9017876,12.29882 C31.9013938,11.84902 32.0100777,11.36542 32.3442021,11.04722 C32.7472383,10.66842 33.3162539,10.55982 33.8464819,10.52642" id="Fill-9" fill="#FFFFFF"></path>
                        <path d="M39.2292508,10.55456 C39.3434477,10.50736 39.4686705,10.51216 39.5901523,10.51296 C40.2595824,10.51596 40.9298,10.51076 41.5996238,10.51556 C41.9307948,10.52596 42.290515,10.77356 42.2999658,11.13516 C42.3015409,12.47536 42.299572,13.81616 42.3007534,15.15636 C42.3019347,15.39496 42.3517482,15.66776 42.5496238,15.82056 C42.8142456,16.00156 43.2346083,15.94296 43.4062974,15.65696 C43.4889917,15.52096 43.5212819,15.35816 43.5238415,15.19976 C43.5238415,13.87116 43.5230539,12.54236 43.5242352,11.21376 C43.5289606,11.02956 43.5271886,10.82116 43.6518207,10.67236 C43.7506601,10.54896 43.9156549,10.51556 44.0652922,10.51336 C44.7473233,10.51336 45.4297482,10.51376 46.1121731,10.51336 C46.3051264,10.51736 46.5130435,10.55676 46.6583492,10.69616 C46.8054269,10.84116 46.8426394,11.06016 46.8434269,11.25976 C46.8426394,12.96316 46.8430332,14.66636 46.8434269,16.36996 C46.8318104,16.89076 46.756401,17.42756 46.5004425,17.88736 C46.2816964,18.28476 45.9101627,18.59556 45.4770021,18.71936 C45.1438622,18.82676 44.7908363,18.79996 44.4470642,18.80256 L41.8904321,18.80256 C41.2548674,18.79116 40.5848466,18.86996 39.9902352,18.58936 C39.5190746,18.38336 39.1678207,17.95256 39.0107016,17.46176 C38.8043596,16.87476 38.8537793,16.24476 38.8490539,15.63356 C38.8498415,14.17676 38.8478725,12.71956 38.8502352,11.26276 C38.8618518,10.99056 38.957344,10.66576 39.2292508,10.55456" id="Fill-11" fill="#FFFFFF"></path>
                        <g id="Group-15" transform="translate(66.746114, 10.471200)">
                            <mask id="mask-2" fill="white">
                                <use xlink:href="#path-1"></use>
                            </mask>
                            <g id="Clip-14"></g>
                            <path d="M0.071373057,0.1812 C0.17926943,0.0622 0.351549223,0.0504 0.501186528,0.0426 C1.2550829,0.0418 2.00897927,0.0432 2.76287565,0.0422 C2.91704145,0.0438 3.08026425,0.0248 3.22478238,0.0958 C3.45790155,0.2098 3.63392228,0.4288 3.71956995,0.6752 C4.08184974,1.711 4.43684456,2.75 4.80325907,3.7848 C5.1444715,2.9124 5.49257513,2.0436 5.83555959,1.1722 C5.9336114,0.9432 6.00488601,0.7016 6.12676166,0.4842 C6.26517617,0.2574 6.48943523,0.0436 6.76764249,0.0426 C7.4065544,0.0426 8.0458601,0.0414 8.6851658,0.0432 C8.83598446,0.0562 9.02401554,0.0604 9.1232487,0.1976 C9.17345596,0.3076 9.14313472,0.438 9.10139378,0.5466 C7.69637824,3.9012 6.28998446,7.255 4.8851658,10.6096 C4.75817098,10.9548 4.51697927,11.343 4.12181865,11.3812 C3.50180829,11.3824 2.88160104,11.3868 2.26198446,11.379 C2.1068342,11.3694 1.89084456,11.3352 1.85560104,11.1494 C1.84181865,11.0288 1.89517617,10.9156 1.93770466,10.807 C2.29998446,9.9378 2.6589171,9.0672 3.02139378,8.1984 C3.04246114,8.149 3.06037824,8.0948 3.03163212,8.0446 C2.04579793,5.568 1.06016062,3.0912 0.0741295337,0.6146 C0.0223471503,0.48 -0.0355388601,0.3042 0.071373057,0.1812" id="Fill-13" fill="#FFFFFF" mask="url(#mask-2)"></path>
                        </g>
                        <path d="M6.12768705,7.52458 C6.14855751,6.83618 6.12256788,6.14838 6.14698238,5.46038 C6.19069223,4.61058 6.53899275,3.78318 7.10446425,3.15698 C7.66166632,2.53138 8.43072332,2.10398 9.25156269,1.97198 C10.1832518,1.81398 11.1712518,2.03618 11.9481845,2.58318 C12.9176767,3.24738 13.5368995,4.40098 13.561314,5.58898 C13.5634798,6.23498 13.561314,6.88078 13.5621016,7.52678 C11.0838321,7.52538 8.60595648,7.53058 6.12768705,7.52458 M12.3325161,11.21178 C12.3411793,11.31298 12.2322984,11.35638 12.1496041,11.35638 C11.6997078,11.36978 11.2488269,11.34578 10.7991275,11.36898 C10.7816041,11.44678 10.7658528,11.52558 10.7664435,11.60618 C10.7684124,12.83218 10.7658528,14.05858 10.7676249,15.28458 C10.7640808,15.42038 10.7794383,15.55958 10.7504953,15.69378 C10.7028477,15.81878 10.5561637,15.83738 10.4415731,15.83998 C10.0993762,15.84658 9.75757306,15.83998 9.41537617,15.84258 C9.22301347,15.83998 9.02100311,15.86298 8.84163523,15.77678 C8.82332435,15.67238 8.80717927,15.56718 8.80717927,15.46118 C8.80934508,14.23378 8.8065886,13.00618 8.80836062,11.77878 C8.8065886,11.65638 8.8178114,11.53158 8.79615337,11.41038 C8.69967668,11.32158 8.5518114,11.37278 8.43367668,11.35838 C8.07316891,11.34338 7.70537617,11.39998 7.35038135,11.31818 C7.31927254,10.92378 7.33896166,10.52638 7.33679585,10.13118 C7.31887876,9.97018 7.50375959,9.92718 7.62622591,9.93198 C9.0905057,9.93078 10.5549824,9.93198 12.0192622,9.93158 C12.1360187,9.92978 12.3120394,9.94678 12.3299565,10.09478 C12.3411793,10.46658 12.3364539,10.83978 12.3325161,11.21178 M19.4284746,7.96958 C19.1071482,7.64358 18.6350031,7.54098 18.195542,7.52758 C17.3351275,7.52578 16.4743192,7.52798 15.613314,7.52678 C15.6158736,6.98258 15.6070135,6.43798 15.620599,5.89378 C15.6363503,4.64878 15.2378425,3.40498 14.5117078,2.40238 C13.7406819,1.32898 12.602257,0.53298 11.335656,0.19658 C10.418143,-0.05182 9.4413658,-0.06442 8.51696166,0.15718 C7.28599793,0.44898 6.16056788,1.16978 5.3665057,2.16758 C4.5460601,3.18498 4.08631917,4.49038 4.07608083,5.80418 L4.07608083,7.52718 C3.2138943,7.52798 2.35170777,7.52538 1.48952124,7.52798 C1.02367668,7.54398 0.508806218,7.66398 0.202837306,8.05058 C-0.00941139896,8.30938 -0.0314632124,8.67018 0.0297699482,8.98818 C0.657065285,11.83638 1.28239171,14.68538 1.90968705,17.53358 C1.99671295,17.94018 2.22333472,18.33018 2.58010155,18.54698 C2.87583212,18.73538 3.23299275,18.79118 3.57696166,18.77938 C7.79673368,18.77818 12.0163088,18.77898 16.2358839,18.77878 C16.6379358,18.78338 17.057314,18.65878 17.3479254,18.36618 C17.5879358,18.13738 17.7302881,17.82318 17.7978218,17.50018 C18.4217699,14.65738 19.0484746,11.81518 19.6732104,8.97218 C19.7523606,8.62418 19.6842363,8.22818 19.4284746,7.96958" id="Fill-16" fill="#FFFFFF"></path>
                        <path d="M5.60009741,19.2566 C6.12638756,19.1682 6.6822114,19.2714 7.1403772,19.55 C7.80134093,19.9448 8.24808705,20.6942 8.25655337,21.477 C8.2782114,21.9932 8.11754819,22.5124 7.81413886,22.927 C7.46761036,23.4082 6.9302943,23.7434 6.35064663,23.838 C5.7568228,23.944 5.12480207,23.7914 4.63651192,23.433 C4.16042902,23.085 3.82118549,22.5476 3.72116477,21.9594 C3.61110259,21.352 3.75345492,20.7018 4.10923731,20.2008 C4.45655337,19.7012 5.00548601,19.3536 5.60009741,19.2566" id="Fill-18" fill="#FFFFFF"></path>
                        <g id="Group-22" transform="translate(11.419689, 19.071200)">
                            <mask id="mask-4" fill="white">
                                <use xlink:href="#path-3"></use>
                            </mask>
                            <g id="Clip-21"></g>
                            <path d="M1.93443627,0.18492 C2.40697513,0.11612 2.90314093,0.17552 3.33019793,0.39932 C3.89783523,0.68632 4.3388715,1.22212 4.50819793,1.84372 C4.68500622,2.48112 4.58400104,3.19532 4.22132746,3.74792 C3.88641554,4.27252 3.33354508,4.64832 2.72712021,4.75932 C2.13172124,4.87772 1.49280933,4.73412 0.996446632,4.38112 C0.505793782,4.03312 0.154736788,3.48592 0.0537316062,2.88532 C-0.0575119171,2.26832 0.0921253886,1.60852 0.459918135,1.10452 C0.8094,0.61872 1.34927565,0.28032 1.93443627,0.18492" id="Fill-20" fill="#FFFFFF" mask="url(#mask-4)"></path>
                        </g>
                    </g>
                </g>
            </g>
        </g>
    </g>
</svg>