<svg width="83px" height="32px" viewBox="0 0 83 32" version="1.1" xmlns="http://www.w3.org/2000/svg" xmlns:xlink="http://www.w3.org/1999/xlink">
    <defs>
        <polygon id="path-1" points="0 0.0329083333 82.7888111 0.0329083333 82.7888111 21.541575 0 21.541575"></polygon>
        <polygon id="path-3" points="0.0245725562 0.0710416667 3.74343763 0.0710416667 3.74343763 3.64397917 0.0245725562 3.64397917"></polygon>
    </defs>
    <g stroke="none" stroke-width="1" fill="none" fill-rule="evenodd">
        <g transform="translate(-215.000000, -619.000000)">
            <g transform="translate(100.000000, 606.000000)">
                    <g transform="translate(115.000000, 13.000000)">
                        <mask id="mask-2" fill="white">
                            <use xlink:href="#path-1"></use>
                        </mask>
                        <path d="M65.7528767,9.75736667 C66.0765767,8.173825 67.3704544,6.81486667 68.8197267,6.81486667 C69.6354322,6.81486667 70.2265767,7.41711667 70.0153878,8.08995 L65.5278544,11.1584917 C65.6122378,10.373825 65.7528767,9.75736667 65.7528767,9.75736667 Z M44.9323267,13.4987417 L45.6359822,9.477325 C45.9453878,8.52445 47.07096,7.24936667 48.2384933,7.17924167 C48.6885378,7.15128333 49.2234267,7.16503333 49.7297267,7.571575 C50.1659378,8.06199167 50.39096,8.79074167 50.39096,9.70145 C50.39096,12.573825 48.98411,14.56345 47.00041,14.56345 C46.0159378,14.5497 45.2421933,14.045075 44.9323267,13.4987417 Z M82.7890878,4.208325 C81.10096,4.12445 78.8922378,6.1842 78.8922378,6.1842 L78.1885822,4.43290833 L76.2615989,4.43290833 L75.3329211,9.67349167 C75.2628322,10.0374083 75.0797711,10.360075 74.7841989,10.5842 L72.2379433,12.573825 C72.2379433,12.573825 71.1972156,13.3727 69.7479433,14.2971583 C69.0871711,14.619825 68.5522822,14.7596167 68.00356,14.7596167 C66.8360267,14.7596167 66.1047044,14.3113667 65.7671711,13.54045 C65.7104544,13.4006583 65.6684933,13.2462 65.6260711,13.1064083 L72.15356,8.70640833 C73.0960711,8.04778333 73.0822378,7.15128333 72.9554322,6.702575 C72.5335156,5.30145 71.2673044,4.25049167 69.1715544,4.25049167 C65.26041,4.25049167 62.5735156,7.571575 62.5735156,12.2937833 C62.5735156,12.6159917 62.58781,12.9239917 62.6297711,13.2182417 L60.7728767,14.5217417 C60.4072156,14.7458667 59.8866211,14.9420333 59.5629211,14.9420333 C59.0003656,14.9420333 58.7610489,14.5075333 58.94411,13.5688667 L61.36356,0.0608666667 L58.3391322,0.0329083333 L57.1291767,6.75895 C57.0729211,7.03899167 56.9465767,7.30528333 56.7496822,7.5152 L53.4153878,11.0182417 C53.4997711,10.44395 53.5421933,9.82749167 53.5421933,9.183075 C53.5421933,6.3382 52.2197267,4.23674167 49.9971711,4.23674167 C47.8447044,4.23674167 46.24096,6.04395 46.24096,6.04395 L45.3966656,4.43290833 L43.49781,4.43290833 L42.4566211,10.360075 C42.4141989,10.6259083 42.3016878,10.8642417 42.1190878,11.0604083 L40.17781,13.3442833 C39.6429211,13.9190333 39.0803656,14.633575 38.7990878,14.6477833 C38.2923267,14.7316583 38.0673044,14.5497 38.2360711,13.610575 L39.0098156,9.32286667 C39.6147933,5.93211667 38.5740656,4.22253333 35.6478544,4.22253333 C33.9034711,4.22253333 31.8496822,6.17045 31.8496822,6.17045 C31.4134711,4.89490833 30.3441544,4.22253333 28.7265767,4.22253333 C26.9540656,4.22253333 25.0404544,6.28228333 25.0404544,6.28228333 L24.2528767,4.44665833 L22.3254322,4.44665833 L21.34096,10.0516167 C21.2985378,10.3179083 21.1860267,10.5562417 21.0034267,10.7524083 L18.7947044,13.3584917 C18.2598156,13.9332417 17.69726,14.6477833 17.4159822,14.6615333 C16.9096822,14.7458667 16.6841989,14.56345 16.8534267,13.6247833 L18.52726,4.44665833 L15.4747044,4.44665833 L14.9822378,7.15128333 C14.9116878,7.50145 14.7572156,7.83786667 14.5178989,8.1037 L10.0584933,13.23245 C8.90479333,14.4653667 7.45598222,14.6477833 7.16041,14.6615333 L4.00917667,14.6615333 L11.1697711,6.59074167 L11.5354322,4.40449167 L2.33534333,4.40449167 L1.89913222,6.85703333 L7.24479333,6.85703333 L0.33781,14.927825 L-0.000184444444,17.2117 C-0.000184444444,17.2117 6.47104889,17.2401167 6.58356,17.2117 C8.48287667,17.2117 10.1710044,15.5442833 10.8460711,14.8577 L14.2928767,10.808325 L13.6740656,14.2132833 C13.2798156,16.4270333 14.1379433,17.4779917 15.9671711,17.4362833 C17.0922822,17.4078667 17.8660267,16.6653667 18.6397711,15.8949083 L20.7216878,13.4707833 L20.0323267,17.3799083 L23.0853433,17.3799083 L24.4216433,9.7152 C24.59041,8.762325 25.8141989,7.15128333 27.0947044,7.15128333 C28.4452989,7.15128333 29.0922378,7.80945 28.7828322,9.61711667 L27.4179433,17.3661583 L30.4428322,17.3661583 L31.9059378,9.1267 C31.9903211,8.58036667 32.9747933,7.03899167 34.3396822,7.03899167 C35.7603656,7.03899167 36.2247044,7.80945 35.9152989,9.61711667 L35.0710044,14.199075 C34.6772156,16.4132833 35.5353433,17.4642417 37.36411,17.422075 C38.4896822,17.3941167 39.2634267,16.6516167 40.0371711,15.8807 L41.83781,13.7787833 L41.2047044,17.3799083 L40.4729211,21.541575 L43.5259378,21.541575 L44.51041,15.8807 C44.9323267,16.4132833 45.5234711,16.8477833 46.2547933,17.0719083 C46.42356,17.127825 46.5923267,17.1699917 46.7753878,17.19795 C48.7447933,17.2960333 50.5034711,16.3431583 52.0647933,14.7179083 L52.0790878,14.7037 L56.5103656,10.1354917 L55.7928767,14.1294083 C55.3990878,16.3431583 56.2429211,17.35195 58.0859822,17.3661583 C59.2816433,17.3661583 60.3929211,16.7776583 61.5604544,15.9929917 L63.1079433,14.8856583 C63.1360711,14.9420333 63.1641989,15.0121583 63.1923267,15.068075 C63.8959822,16.4270333 65.1903211,17.3239917 67.1034711,17.3382 L67.1173044,17.3382 C69.1291322,17.3382 71.0985378,15.4462 72.2379433,14.6477833 C72.5335156,14.4374083 73.63096,13.5546583 74.8123267,12.6017833 L73.9684933,17.35195 L77.0210489,17.35195 L78.35781,9.68724167 C78.5265767,8.73436667 79.7503656,7.12286667 81.03041,7.12286667 C81.5228767,7.12286667 81.9166656,7.2072 82.2122378,7.40336667 L82.7890878,4.208325 Z" id="Fill-4" fill="#FFFFFF" mask="url(#mask-2)"></path>
                        <g mask="url(#mask-2)">
                            <g transform="translate(15.677778, -0.458333)">
                                <mask id="mask-4" fill="white">
                                    <use xlink:href="#path-3"></use>
                                </mask>
                                <g stroke="none" fill="none"></g>
                                <path d="M1.59747333,3.64397917 C2.61053444,3.64397917 3.56687889,2.84510417 3.72181222,1.86427083 C3.87628444,0.8834375 3.18692333,0.0850208333 2.17432333,0.0708125 C1.16126222,0.0708125 0.204917778,0.8696875 0.0499844444,1.85052083 C-0.118782222,2.84510417 0.570578889,3.64397917 1.59747333,3.64397917" id="Fill-1" stroke="none" fill="#FFFFFF" fill-rule="evenodd" mask="url(#mask-4)"></path>
                            </g>
                        </g>
                    </g>
            </g>
        </g>
    </g>
</svg>
