<?xml version="1.0" encoding="UTF-8"?>
<svg width="40px" height="24px" viewBox="0 0 40 24" version="1.1" xmlns="http://www.w3.org/2000/svg" xmlns:xlink="http://www.w3.org/1999/xlink">
    <!-- Generator: Sketch 51.2 (57519) - http://www.bohemiancoding.com/sketch -->
    <title>amex</title>
    <desc>Created with Sketch.</desc>
    <defs></defs>
    <g id="Page-1" stroke="none" stroke-width="1" fill="none" fill-rule="evenodd">
        <g id="amex">
            <g>
                <path d="M38,24 L2,24 C0.896,24 0,23.104 0,22 L0,2 C0,0.896 0.896,0 2,0 L38,0 C39.104,0 40,0.896 40,2 L40,22 C40,23.104 39.104,24 38,24" id="Fill-1" fill="#1477BE"></path>
                <path d="M26.917,10.1104 L23.451,10.1104 L23.451,11.2354 L26.917,11.2354 L26.917,12.5464 L23.451,12.5464 L23.451,13.8584 L27.011,13.8584 L27.011,14.7954 C27.573,14.0454 28.229,13.3894 28.884,12.7344 L29.54,11.9844 C28.697,11.0474 27.76,10.0164 26.917,9.0804 L26.917,10.1104 Z M7.149,12.2654 L9.304,12.2654 L8.18,9.8294 L7.149,12.2654 Z" id="Fill-3" fill="#FFFFFF"></path>
                <path d="M34.3179,14.8882 L32.4439,14.8882 L30.5699,12.7342 L28.6969,14.8882 L21.9519,14.8882 L21.9519,8.5182 L28.9779,8.5182 L30.6639,10.5792 L32.5379,8.5182 L34.4119,8.5182 L31.5069,11.7032 L34.3179,14.8882 Z M20.5469,14.8882 L19.0469,14.8882 L19.0469,10.0162 L16.8929,14.8882 L15.6749,14.8882 L13.4259,10.0162 L13.3329,14.8882 L10.3349,14.8882 L9.7729,13.3892 L6.6809,13.3892 L6.0259,14.8882 L4.4329,14.8882 L7.1499,8.5182 L9.3979,8.5182 L11.8339,14.3262 L11.8339,8.5182 L14.3629,8.5182 L16.3309,12.7342 L18.1099,8.5182 L20.5469,8.5182 L20.5469,14.8882 Z M37.0349,7.3002 L31.7889,7.3002 L30.5699,8.6122 L29.4459,7.3002 L17.1739,7.3002 L16.2369,9.5482 L15.2069,7.3002 L6.2129,7.3002 L2.4649,16.2002 L6.9619,16.2002 L7.5249,14.7012 L8.8359,14.7012 L9.3979,16.2002 L29.3529,16.2002 L30.5699,14.7952 L31.7889,16.2002 L37.0349,16.2002 L32.9129,11.7972 L37.0349,7.3002 Z" id="Fill-5" fill="#FFFFFF"></path>
            </g>
        </g>
    </g>
</svg>