<?xml version="1.0" encoding="UTF-8"?>
<svg width="40px" height="24px" viewBox="0 0 40 24" version="1.1" xmlns="http://www.w3.org/2000/svg" xmlns:xlink="http://www.w3.org/1999/xlink">
    <!-- Generator: Sketch 51.2 (57519) - http://www.bohemiancoding.com/sketch -->
    <title>discover</title>
    <desc>Created with Sketch.</desc>
    <defs>
        <polygon id="path-1" points="0 24 40 24 40 0 0 0"></polygon>
    </defs>
    <g id="Page-1" stroke="none" stroke-width="1" fill="none" fill-rule="evenodd">
        <g id="discover">
            <g>
                <path d="M38,24 L2,24 C0.9,24 0,23.1 0,22 L0,2 C0,0.9 0.9,0 2,0 L38,0 C39.1,0 40,0.9 40,2 L40,22 C40,23.1 39.1,24 38,24" id="Fill-1" fill="#FFFFFF"></path>
                <path d="M39.5117,15 C39.5117,15 30.7767,21.176 14.8057,24 L38.4527,24 L39.5997,22.765 L39.5117,15 Z" id="Fill-3" fill="#F4811F"></path>
                <path d="M38,0 L2,0 C0.9,0 0,0.9 0,2 L0,22 C0,23.1 0.9,24 2,24 L38,24 C39.1,24 40,23.1 40,22 L40,2 C40,0.9 39.1,0 38,0 M38,1 C38.551,1 39,1.449 39,2 L39,22 C39,22.551 38.551,23 38,23 L2,23 C1.449,23 1,22.551 1,22 L1,2 C1,1.449 1.449,1 2,1 L38,1" id="Fill-5" fill="#C8C8C8"></path>
                <path d="M21.2002,9.2998 C19.6002,9.2998 18.4002,10.4998 18.4002,11.9998 C18.4002,13.5998 19.6002,14.7998 21.2002,14.7998 C22.8002,14.7998 24.0002,13.5998 24.0002,11.9998 C24.0002,10.4998 22.8002,9.2998 21.2002,9.2998" id="Fill-7" fill="#F58220"></path>
                <path d="M6.3999,13.2998 C6.0999,13.5998 5.6999,13.6998 4.9999,13.6998 L4.6999,13.6998 L4.6999,10.1998 L4.9999,10.1998 C5.6999,10.1998 6.0999,10.2998 6.3999,10.5998 C6.6999,10.9998 6.9999,11.4998 6.9999,11.9998 C6.9999,12.4998 6.6999,12.9998 6.3999,13.2998 M5.1999,9.2998 L3.6999,9.2998 L3.6999,14.5998 L5.1999,14.5998 C5.9999,14.5998 6.5999,14.3998 7.0999,13.9998 C7.6999,13.4998 8.0999,12.6998 8.0999,11.9998 C7.9999,10.3998 6.8999,9.2998 5.1999,9.2998" id="Fill-9" fill="#001722"></path>
                <mask id="mask-2" fill="white">
                    <use xlink:href="#path-1"></use>
                </mask>
                <g id="Clip-12"></g>
                <polygon id="Fill-11" fill="#001722" mask="url(#mask-2)" points="8.5 14.6 9.5 14.6 9.5 9.3 8.5 9.3"></polygon>
                <path d="M12.1001,11.3999 C11.5001,11.1999 11.3001,10.9999 11.3001,10.6999 C11.3001,10.3999 11.6001,10.0999 12.1001,10.0999 C12.4001,10.0999 12.7001,10.1999 12.9001,10.4999 L13.4001,9.7999 C13.0001,9.3999 12.4001,9.1999 11.8001,9.1999 C10.9001,9.1999 10.2001,9.8999 10.2001,10.6999 C10.2001,11.3999 10.5001,11.7999 11.5001,12.1999 C11.9001,12.2999 12.1001,12.3999 12.2001,12.4999 C12.4001,12.5999 12.5001,12.7999 12.5001,12.9999 C12.5001,13.3999 12.2001,13.6999 11.7001,13.6999 C11.2001,13.6999 10.8001,13.4999 10.6001,12.9999 L9.9001,13.5999 C10.4001,14.2999 10.9001,14.5999 11.7001,14.5999 C12.8001,14.5999 13.5001,13.8999 13.5001,12.8999 C13.6001,12.1999 13.2001,11.7999 12.1001,11.3999" id="Fill-13" fill="#001722" mask="url(#mask-2)"></path>
                <path d="M13.8999,12 C13.8999,13.6 15.0999,14.8 16.6999,14.8 C17.0999,14.8 17.4999,14.7 17.9999,14.5 L17.9999,13.3 C17.5999,13.7 17.1999,13.9 16.7999,13.9 C15.7999,13.9 14.9999,13.1 14.9999,12.1 C14.9999,11.1 15.7999,10.3 16.6999,10.3 C17.1999,10.3 17.5999,10.5 17.9999,10.9 L17.9999,9.6 C17.4999,9.4 17.1999,9.3 16.6999,9.3 C15.1999,9.2 13.8999,10.5 13.8999,12" id="Fill-14" fill="#001722" mask="url(#mask-2)"></path>
                <polygon id="Fill-15" fill="#001722" mask="url(#mask-2)" points="26.2998 12.8999 24.8998 9.2999 23.7998 9.2999 25.9998 14.7999 26.5998 14.7999 28.8998 9.2999 27.7998 9.2999"></polygon>
                <polygon id="Fill-16" fill="#001722" mask="url(#mask-2)" points="29.2998 14.6001 32.2998 14.6001 32.2998 13.7001 30.3998 13.7001 30.3998 12.3001 32.1998 12.3001 32.1998 11.4001 30.3998 11.4001 30.3998 10.2001 32.2998 10.2001 32.2998 9.3001 29.2998 9.3001"></polygon>
                <path d="M34.2998,11.7998 L33.9998,11.7998 L33.9998,10.1998 L34.2998,10.1998 C34.8998,10.1998 35.2998,10.4998 35.2998,10.9998 C35.2998,11.4998 34.8998,11.7998 34.2998,11.7998 M36.3998,10.8998 C36.3998,9.8998 35.6998,9.2998 34.4998,9.2998 L32.9998,9.2998 L32.9998,14.5998 L33.9998,14.5998 L33.9998,12.4998 L34.0998,12.4998 L35.4998,14.5998 L36.7998,14.5998 L35.0998,12.3998 C35.8998,12.1998 36.3998,11.6998 36.3998,10.8998" id="Fill-17" fill="#001722" mask="url(#mask-2)"></path>
                <path d="M36.8618,9.7749 L36.8408,9.7749 L36.8408,9.6549 L36.8628,9.6549 C36.9168,9.6549 36.9448,9.6749 36.9448,9.7139 C36.9448,9.7539 36.9158,9.7749 36.8618,9.7749 M37.0538,9.7129 C37.0538,9.6209 36.9928,9.5709 36.8808,9.5709 L36.7318,9.5709 L36.7318,10.0319 L36.8408,10.0319 L36.8408,9.8529 L36.9698,10.0319 L37.1068,10.0319 L36.9538,9.8409 C37.0188,9.8239 37.0538,9.7759 37.0538,9.7129" id="Fill-18" fill="#231F20" mask="url(#mask-2)"></path>
                <path d="M36.9019,10.1304 C36.7229,10.1304 36.5789,9.9834 36.5789,9.8014 C36.5789,9.6164 36.7219,9.4704 36.9019,9.4704 C37.0759,9.4704 37.2189,9.6194 37.2189,9.8014 C37.2189,9.9824 37.0759,10.1304 36.9019,10.1304 M36.9019,9.3974 C36.6789,9.3974 36.4999,9.5764 36.4999,9.7994 C36.4999,10.0234 36.6799,10.2024 36.9019,10.2024 C37.1219,10.2024 37.2999,10.0214 37.2999,9.7994 C37.2999,9.5794 37.1219,9.3974 36.9019,9.3974" id="Fill-19" fill="#231F20" mask="url(#mask-2)"></path>
            </g>
        </g>
    </g>
</svg>