<?xml version="1.0" encoding="UTF-8"?>
<svg width="40px" height="24px" viewBox="0 0 40 24" version="1.1" xmlns="http://www.w3.org/2000/svg" xmlns:xlink="http://www.w3.org/1999/xlink">
    <!-- Generator: Sketch 51.2 (57519) - http://www.bohemiancoding.com/sketch -->
    <title>elo</title>
    <desc>Created with Sketch.</desc>
    <defs></defs>
    <g id="elo" stroke="none" stroke-width="1" fill="none" fill-rule="evenodd">
        <g>
            <path d="M38,24 L2,24 C0.9,24 0,23.1 0,22 L0,2 C0,0.9 0.9,0 2,0 L38,0 C39.1,0 40,0.9 40,2 L40,22 C40,23.1 39.1,24 38,24" id="Fill-1" fill="#151515"></path>
            <path d="M8.9883,8.5718 C9.3483,8.4538 9.7313,8.3878 10.1343,8.3878 C11.8813,8.3878 13.3343,9.6278 13.6693,11.2728 L16.1403,10.7698 C15.5723,7.9718 13.0973,5.8628 10.1313,5.8628 C9.4493,5.8628 8.7983,5.9728 8.1843,6.1788 L8.9883,8.5718 Z" id="Fill-3" fill="#FFCD05"></path>
            <path d="M6.0703,16.5869 L7.7403,14.6989 C6.9933,14.0389 6.5243,13.0729 6.5243,11.9989 C6.5243,10.9239 6.9933,9.9579 7.7403,9.2959 L6.0703,7.4089 C4.8003,8.5319 4.0003,10.1709 4.0003,11.9989 C4.0003,13.8239 4.8043,15.4659 6.0703,16.5869" id="Fill-5" fill="#00A4E0"></path>
            <path d="M13.6689,12.7183 C13.3339,14.3643 11.8769,15.6033 10.1339,15.6033 C9.7309,15.6033 9.3489,15.5393 8.9879,15.4203 L8.1869,17.8123 C8.7999,18.0163 9.4539,18.1283 10.1339,18.1283 C13.0979,18.1283 15.5719,16.0243 16.1409,13.2273 L13.6689,12.7183 Z" id="Fill-7" fill="#EF4223"></path>
            <path d="M23.2461,14.0313 L23.1771,13.9853 C22.9731,14.3163 22.6571,14.5783 22.2591,14.7503 C21.5001,15.0803 20.7971,14.9953 20.2891,14.5523 L20.2471,14.6263 L19.3811,15.9113 C19.5971,16.0623 19.8241,16.1863 20.0641,16.2873 C21.0161,16.6823 21.9871,16.6633 22.9491,16.2463 C23.6431,15.9463 24.1891,15.4873 24.5601,14.9053 L23.2461,14.0313 Z M20.5561,10.8523 C19.7571,11.1993 19.3441,11.9493 19.4271,12.8283 L22.8221,11.3673 C22.2401,10.6833 21.4811,10.4533 20.5561,10.8523 Z M18.3031,14.7763 C18.2221,14.6463 18.1131,14.4373 18.0451,14.2813 C17.6521,13.3723 17.6371,12.4313 17.9661,11.5293 C18.3311,10.5363 19.0251,9.7793 19.9231,9.3943 C21.0491,8.9083 22.3011,9.0053 23.3811,9.6473 C24.0691,10.0403 24.5581,10.6493 24.9271,11.5093 C24.9761,11.6173 25.0161,11.7393 25.0551,11.8363 L18.3031,14.7763 Z" id="Fill-9" fill="#FFFFFF"></path>
            <path d="M27.4121,7.4946 L27.4121,14.6566 L28.5261,15.1106 L27.8921,16.5846 L26.6651,16.0746 C26.3911,15.9536 26.2021,15.7726 26.0591,15.5656 C25.9241,15.3556 25.8231,15.0656 25.8231,14.6816 L25.8231,7.4946 L27.4121,7.4946 Z" id="Fill-11" fill="#FFFFFF"></path>
            <path d="M30.3018,12.8311 C30.3018,12.2231 30.5728,11.6741 30.9968,11.3021 L29.8548,10.0291 C29.0808,10.7121 28.5928,11.7151 28.5928,12.8311 C28.5928,13.9471 29.0768,14.9501 29.8548,15.6371 L30.9968,14.3601 C30.5688,13.9841 30.2978,13.4391 30.3018,12.8311" id="Fill-13" fill="#FFFFFF"></path>
            <path d="M32.3301,14.8667 C32.1041,14.8667 31.8871,14.8287 31.6871,14.7617 L31.1401,16.3807 C31.5121,16.5047 31.9131,16.5727 32.3261,16.5757 C34.1371,16.5757 35.6461,15.2947 35.9961,13.5857 L34.3171,13.2437 C34.1301,14.1717 33.3101,14.8667 32.3301,14.8667" id="Fill-15" fill="#FFFFFF"></path>
            <path d="M32.334,9.0898 C31.921,9.0898 31.519,9.1568 31.147,9.2808 L31.688,10.9038 C31.891,10.8368 32.108,10.7988 32.33,10.7988 C33.314,10.7988 34.133,11.4978 34.321,12.4248 L36,12.0838 C35.654,10.3818 34.145,9.0938 32.334,9.0898" id="Fill-17" fill="#FFFFFF"></path>
        </g>
    </g>
</svg>