<?xml version="1.0" encoding="UTF-8"?>
<svg width="40px" height="24px" viewBox="0 0 40 24" version="1.1" xmlns="http://www.w3.org/2000/svg" xmlns:xlink="http://www.w3.org/1999/xlink">
    <!-- Generator: Sketch 51.2 (57519) - http://www.bohemiancoding.com/sketch -->
    <title>hiper</title>
    <desc>Created with Sketch.</desc>
    <defs></defs>
    <g id="hiper" stroke="none" stroke-width="1" fill="none" fill-rule="evenodd">
        <g>
            <path d="M38,24 L2,24 C0.9,24 0,23.1 0,22 L0,2 C0,0.9 0.9,0 2,0 L38,0 C39.1,0 40,0.9 40,2 L40,22 C40,23.1 39.1,24 38,24" id="Fill-1" fill="#F36118"></path>
            <polygon id="Fill-3" fill="#FFFFFF" points="4.75 6.3057 4.75 15.8417 6.916 15.8417 6.916 11.8527 10.468 11.8527 10.468 15.8417 12.619 15.8417 12.619 6.3057 10.468 6.3057 10.468 9.9707 6.916 9.9707 6.916 6.3057"></polygon>
            <path d="M26.7734,11.5977 C26.8304,11.0177 27.1984,10.1957 28.1044,10.1957 C29.0934,10.1957 29.3204,11.0737 29.3204,11.5977 L26.7734,11.5977 Z M31.2454,13.0687 C31.2734,12.9127 31.3154,12.5877 31.3154,12.2197 C31.3154,10.5087 30.4664,8.7667 28.2314,8.7667 C25.8254,8.7667 24.7364,10.7057 24.7364,12.4607 C24.7364,14.6257 26.0804,15.9837 28.4284,15.9837 C29.3624,15.9837 30.2264,15.8417 30.9334,15.5587 L30.6504,14.1017 C30.0704,14.2857 29.4764,14.3847 28.7404,14.3847 C27.7354,14.3847 26.8584,13.9597 26.7884,13.0687 L31.2454,13.0687 Z" id="Fill-5" fill="#FFFFFF"></path>
            <path d="M32.0059,15.8418 L34.1569,15.8418 L34.1569,12.3328 C34.1569,12.1638 34.1699,11.9928 34.1979,11.8528 C34.3399,11.1868 34.8769,10.7628 35.6699,10.7628 C35.9099,10.7628 36.0949,10.7898 36.2499,10.8198 L36.2499,8.7958 C36.0949,8.7668 35.9949,8.7668 35.7969,8.7668 C35.1329,8.7668 34.2829,9.1918 33.9299,10.1958 L33.8729,10.1958 L33.8019,8.9228 L31.9479,8.9228 C31.9769,9.5168 32.0059,10.1818 32.0059,11.2008 L32.0059,15.8418" id="Fill-7" fill="#FFFFFF"></path>
            <path d="M14.8066,5.9214 C15.4166,5.9214 15.9126,6.4164 15.9126,7.0274 C15.9126,7.6374 15.4166,8.1324 14.8066,8.1324 C14.1956,8.1324 13.7006,7.6374 13.7006,7.0274 C13.7006,6.4164 14.1956,5.9214 14.8066,5.9214" id="Fill-9" fill="#FEEA01"></path>
            <path d="M13.7002,8.9126 L15.9132,8.9126 L15.9132,12.8126 C15.9132,13.5366 16.3132,14.2296 17.2002,14.2316 C17.2072,12.4746 17.1992,10.6676 17.1412,8.9126 L18.9892,8.9126 C19.0292,9.2516 19.0652,9.5896 19.0982,9.9296 C19.9712,8.1836 22.7212,8.5686 23.6472,10.0416 C24.6032,11.5636 24.9292,15.9216 20.4282,15.9216 L19.3802,15.9216 C19.3902,16.8056 19.3912,17.6926 19.3912,18.5786 L17.1802,18.5786 C17.1802,17.7276 17.1852,16.8366 17.1922,15.9216 C14.8032,15.9126 13.7002,14.3946 13.7002,12.8126 L13.7002,8.9126 M19.3482,14.2316 L20.4282,14.2316 C21.5122,14.2316 22.0022,13.5366 22.0022,12.8126 C22.0022,12.0886 21.9502,10.4516 20.6092,10.4516 C19.0712,10.4516 19.3222,12.4826 19.3272,13.5476 C19.3292,13.7756 19.3422,14.0026 19.3482,14.2316" id="Fill-11" fill="#FFFFFF"></path>
        </g>
    </g>
</svg>