<?xml version="1.0" encoding="UTF-8"?>
<svg width="40px" height="24px" viewBox="0 0 40 24" version="1.1" xmlns="http://www.w3.org/2000/svg" xmlns:xlink="http://www.w3.org/1999/xlink">
    <!-- Generator: Sketch 51.2 (57519) - http://www.bohemiancoding.com/sketch -->
    <title>jcb</title>
    <desc>Created with Sketch.</desc>
    <defs>
        <linearGradient x1="-1.11022302e-14%" y1="50%" x2="100%" y2="50%" id="linearGradient-1">
            <stop stop-color="#007940" offset="0%"></stop>
            <stop stop-color="#5CB531" offset="100%"></stop>
        </linearGradient>
        <linearGradient x1="0%" y1="34.4590598%" x2="100%" y2="34.4590598%" id="linearGradient-2">
            <stop stop-color="#6C2C2F" offset="0%"></stop>
            <stop stop-color="#E60039" offset="100%"></stop>
        </linearGradient>
        <linearGradient x1="0%" y1="29.1551427%" x2="100%" y2="29.1551427%" id="linearGradient-3">
            <stop stop-color="#1F286F" offset="0%"></stop>
            <stop stop-color="#006FBC" offset="100%"></stop>
        </linearGradient>
    </defs>
    <g id="jcb" stroke="none" stroke-width="1" fill="none" fill-rule="evenodd">
        <g>
            <path d="M38,24 L2,24 C0.9,24 0,23.1 0,22 L0,2 C0,0.9 0.9,0 2,0 L38,0 C39.1,0 40,0.9 40,2 L40,22 C40,23.1 39.1,24 38,24" id="Fill-1" fill="#FFFFFF"></path>
            <path d="M38,0 L2,0 C0.9,0 0,0.9 0,2 L0,22 C0,23.1 0.9,24 2,24 L38,24 C39.1,24 40,23.1 40,22 L40,2 C40,0.9 39.1,0 38,0 M38,1 C38.552,1 39,1.449 39,2 L39,22 C39,22.551 38.552,23 38,23 L2,23 C1.448,23 1,22.551 1,22 L1,2 C1,1.449 1.448,1 2,1 L38,1" id="Fill-3" fill="#C8C8C8"></path>
            <path d="M33.4727,17.8662 C33.4727,20.0482 31.6957,21.8252 29.5137,21.8252 L7.9727,21.8252 L7.9727,6.1442 C7.9727,3.9622 9.7487,2.1852 11.9317,2.1852 L33.4727,2.1852 L33.4727,17.8662 Z" id="Fill-5" fill="#FFFFFF"></path>
            <path d="M27.9082,3.5107 C26.3492,3.5107 25.0712,4.7727 25.0712,6.3467 L25.0712,9.2937 L29.0772,9.2937 C29.1712,9.2937 29.2792,9.2937 29.3572,9.3087 C30.2622,9.3557 30.9312,9.8227 30.9312,10.6337 C30.9312,11.2727 30.4792,11.8187 29.6372,11.9277 L29.6372,11.9587 C30.5572,12.0207 31.2592,12.5347 31.2592,13.3297 C31.2592,14.1877 30.4792,14.7487 29.4512,14.7487 L25.0552,14.7487 L25.0552,20.5157 L29.2182,20.5157 C30.7762,20.5157 32.0542,19.2537 32.0542,17.6787 L32.0542,3.5107 L27.9082,3.5107 Z" id="Fill-9" fill="url(#linearGradient-1)"></path>
            <path d="M26.458,13.8447 L28.095,13.8447 C28.142,13.8447 28.251,13.8287 28.298,13.8287 C28.609,13.7667 28.874,13.4867 28.874,13.0957 C28.874,12.7217 28.609,12.4417 28.298,12.3637 C28.251,12.3477 28.157,12.3477 28.095,12.3477 L26.458,12.3477 L26.458,13.8447 Z" id="Fill-7" fill="url(#linearGradient-1)"></path>
            <path d="M28.6719,10.8208 C28.6719,10.4468 28.4069,10.1968 28.0949,10.1508 C28.0639,10.1508 27.9859,10.1348 27.9399,10.1348 L26.4579,10.1348 L26.4579,11.5068 L27.9399,11.5068 C27.9859,11.5068 28.0789,11.5068 28.0949,11.4908 C28.4069,11.4448 28.6719,11.1948 28.6719,10.8208" id="Fill-11" fill="url(#linearGradient-1)"></path>
            <path d="M20.0684,3.5107 C18.5084,3.5107 17.2314,4.7727 17.2314,6.3467 L17.2314,10.0567 C17.9484,9.4487 19.1954,9.0597 21.2064,9.1527 C22.2814,9.1997 23.4344,9.4957 23.4344,9.4957 L23.4344,10.6967 C22.8584,10.3997 22.1724,10.1347 21.2834,10.0727 C19.7564,9.9637 18.8374,10.7117 18.8374,12.0207 C18.8374,13.3457 19.7564,14.0937 21.2834,13.9687 C22.1724,13.9067 22.8584,13.6267 23.4344,13.3457 L23.4344,14.5457 C23.4344,14.5457 22.2974,14.8427 21.2064,14.8887 C19.1954,14.9827 17.9484,14.5927 17.2314,13.9847 L17.2314,20.5317 L21.3924,20.5317 C22.9514,20.5317 24.2294,19.2687 24.2294,17.6947 L24.2294,3.5107 L20.0684,3.5107 Z" id="Fill-15" fill="url(#linearGradient-2)"></path>
            <path d="M12.2275,3.5107 C10.6685,3.5107 9.3905,4.7727 9.3905,6.3467 L9.3905,13.3457 C10.1855,13.7357 11.0115,13.9847 11.8375,13.9847 C12.8205,13.9847 13.3495,13.3927 13.3495,12.5817 L13.3495,9.2777 L15.7815,9.2777 L15.7815,12.5667 C15.7815,13.8447 14.9865,14.8887 12.2895,14.8887 C10.6535,14.8887 9.3745,14.5307 9.3745,14.5307 L9.3745,20.4997 L13.5375,20.4997 C15.0955,20.4997 16.3735,19.2377 16.3735,17.6637 L16.3735,3.5107 L12.2275,3.5107 Z" id="Fill-13" fill="url(#linearGradient-3)"></path>
        </g>
    </g>
</svg>