<?xml version="1.0" encoding="UTF-8"?>
<svg width="40px" height="24px" viewBox="0 0 40 24" version="1.1" xmlns="http://www.w3.org/2000/svg" xmlns:xlink="http://www.w3.org/1999/xlink">
    <!-- Generator: Sketch 51.2 (57519) - http://www.bohemiancoding.com/sketch -->
    <title>maestro</title>
    <desc>Created with Sketch.</desc>
    <defs>
        <polygon id="path-1" points="0 24 40 24 40 0 0 0"></polygon>
    </defs>
    <g id="maestro" stroke="none" stroke-width="1" fill="none" fill-rule="evenodd">
        <g>
            <path d="M38,24 L2,24 C0.896,24 0,23.15 0,22.103 L0,1.897 C0,0.85 0.896,0 2,0 L38,0 C39.104,0 40,0.85 40,1.897 L40,22.103 C40,23.15 39.104,24 38,24" id="Fill-1" fill="#000000"></path>
            <g id="Group-10">
                <path d="M31.3027,21.0752 L31.3667,21.0922 C31.3787,21.0892 31.3907,21.0892 31.4027,21.0922 C31.4067,21.1002 31.4067,21.1112 31.4027,21.1192 C31.4067,21.1272 31.4067,21.1372 31.4027,21.1452 C31.3907,21.1492 31.3787,21.1492 31.3667,21.1452 L31.3027,21.1452 L31.3027,21.0752 Z M31.3667,21.0252 L31.2437,21.0282 L31.2437,21.2852 L31.2997,21.2852 L31.2997,21.1892 L31.3257,21.1892 L31.4047,21.2852 L31.4727,21.2852 L31.3867,21.1892 C31.4097,21.1872 31.4317,21.1782 31.4487,21.1622 C31.4627,21.1492 31.4697,21.1292 31.4697,21.1102 C31.4707,21.0862 31.4617,21.0642 31.4437,21.0492 C31.4217,21.0322 31.3937,21.0242 31.3667,21.0252 Z M31.3497,20.9402 C31.3787,20.9402 31.4067,20.9462 31.4337,20.9582 C31.5437,21.0052 31.5947,21.1332 31.5467,21.2432 C31.5357,21.2672 31.5207,21.2902 31.5017,21.3092 C31.4827,21.3282 31.4597,21.3452 31.4337,21.3562 C31.4077,21.3672 31.3787,21.3742 31.3497,21.3732 L31.3497,21.3622 C31.2907,21.3622 31.2347,21.3392 31.1937,21.2972 C31.1177,21.2152 31.1177,21.0872 31.1937,21.0042 C31.2137,20.9842 31.2377,20.9692 31.2637,20.9572 C31.2907,20.9462 31.3207,20.9402 31.3497,20.9402 Z M31.3497,20.8792 L31.3347,20.8822 C31.3017,20.8822 31.2687,20.8882 31.2377,20.8992 C31.2037,20.9132 31.1737,20.9322 31.1467,20.9572 C31.1207,20.9832 31.1007,21.0132 31.0857,21.0462 C31.0557,21.1152 31.0557,21.1932 31.0857,21.2622 C31.1337,21.3652 31.2367,21.4312 31.3497,21.4322 C31.3877,21.4322 31.4257,21.4242 31.4607,21.4082 C31.4937,21.3952 31.5247,21.3752 31.5517,21.3502 C31.5767,21.3252 31.5977,21.2952 31.6137,21.2622 C31.6427,21.1932 31.6427,21.1152 31.6137,21.0462 C31.5977,21.0132 31.5767,20.9832 31.5517,20.9572 C31.5247,20.9322 31.4937,20.9132 31.4607,20.8992 C31.4257,20.8852 31.3877,20.8782 31.3497,20.8792 Z M14.7997,19.0952 C15.2667,19.0852 15.6547,19.4552 15.6647,19.9232 C15.6747,20.3902 15.3037,20.7772 14.8367,20.7872 C14.8287,20.7872 14.8217,20.7882 14.8137,20.7882 C14.3517,20.7992 13.9677,20.4322 13.9567,19.9702 C13.9567,19.9442 13.9567,19.9172 13.9587,19.8912 L13.9657,19.8912 C13.9917,19.4482 14.3557,19.1002 14.7997,19.0952 Z M29.2397,18.9952 C29.3617,18.9992 29.4817,19.0272 29.5917,19.0772 C29.7007,19.1172 29.8017,19.1802 29.8847,19.2622 C29.9657,19.3462 30.0287,19.4452 30.0697,19.5542 C30.1587,19.7882 30.1587,20.0472 30.0697,20.2812 C30.0287,20.3902 29.9657,20.4902 29.8847,20.5742 C29.8017,20.6552 29.7017,20.7182 29.5917,20.7592 C29.3687,20.8462 29.1207,20.8462 28.8977,20.7592 C28.7927,20.7172 28.6987,20.6542 28.6197,20.5742 C28.5387,20.4902 28.4757,20.3902 28.4347,20.2812 C28.3447,20.0472 28.3447,19.7882 28.4347,19.5542 C28.4757,19.4452 28.5387,19.3462 28.6197,19.2622 C28.6987,19.1812 28.7927,19.1192 28.8977,19.0772 C29.0087,19.0332 29.1267,19.0112 29.2467,19.0122 L29.2397,18.9952 Z M18.1657,18.9662 C18.1777,18.9652 18.1887,18.9652 18.1997,18.9662 C18.5837,18.9572 18.9007,19.2622 18.9087,19.6452 L17.4567,19.6452 C17.4777,19.2682 17.7877,18.9712 18.1657,18.9662 Z M18.2127,18.4272 C17.4037,18.4402 16.7587,19.1062 16.7717,19.9152 C16.7847,20.7212 17.4467,21.3652 18.2527,21.3562 C18.6697,21.3702 19.0777,21.2302 19.3987,20.9632 L19.1057,20.5132 C18.8737,20.6982 18.5877,20.8012 18.2917,20.8052 C17.8727,20.8422 17.5007,20.5382 17.4527,20.1202 L19.5307,20.1202 C19.5397,20.0502 19.5387,19.9732 19.5387,19.8912 C19.5387,19.0122 18.9947,18.4272 18.2127,18.4272 Z M14.7877,18.4232 C14.7707,18.4232 14.7527,18.4232 14.7357,18.4242 C13.9267,18.4242 13.2707,19.0802 13.2717,19.8892 C13.2717,20.6972 13.9277,21.3522 14.7357,21.3532 C15.0767,21.3662 15.4047,21.2132 15.6137,20.9432 L15.6137,21.2832 L16.2227,21.2832 L16.2287,19.8912 L16.2287,18.4942 L15.6137,18.4942 L15.6137,18.8342 C15.4157,18.5782 15.1117,18.4272 14.7877,18.4232 Z M29.2397,18.4212 C29.0337,18.4212 28.8297,18.4622 28.6397,18.5412 C28.4627,18.6122 28.3017,18.7182 28.1647,18.8512 C28.0307,18.9852 27.9247,19.1432 27.8517,19.3172 C27.6987,19.6932 27.6987,20.1132 27.8517,20.4892 C27.9247,20.6632 28.0307,20.8222 28.1647,20.9542 C28.3017,21.0892 28.4627,21.1942 28.6397,21.2652 C29.0267,21.4152 29.4547,21.4152 29.8407,21.2652 C30.0187,21.1942 30.1807,21.0892 30.3187,20.9542 C30.4537,20.8222 30.5617,20.6642 30.6347,20.4892 C30.7877,20.1142 30.7877,19.6932 30.6347,19.3172 C30.5607,19.1422 30.4537,18.9842 30.3187,18.8512 C30.1787,18.7162 30.0137,18.6092 29.8327,18.5382 C29.6457,18.4642 29.4477,18.4262 29.2467,18.4272 L29.2397,18.4212 Z M27.1367,18.4212 L27.1497,18.4322 C26.8457,18.4232 26.5627,18.5812 26.4107,18.8432 L26.4107,18.5032 L25.8077,18.5032 L25.8077,21.3002 L26.4167,21.3002 L26.4167,19.7332 C26.4167,19.2702 26.6047,19.0122 27.0027,19.0122 C27.1327,19.0112 27.2617,19.0342 27.3837,19.0832 L27.5707,18.4972 C27.4317,18.4472 27.2847,18.4212 27.1367,18.4212 Z M21.2347,18.4212 C20.5197,18.4212 20.0627,18.7612 20.0627,19.3172 C20.0627,19.7742 20.4037,20.0552 21.0297,20.1432 L21.3227,20.1842 C21.6567,20.2312 21.8147,20.3192 21.8147,20.4772 C21.8147,20.6942 21.5927,20.8172 21.1767,20.8172 C20.8417,20.8262 20.5137,20.7232 20.2447,20.5242 L19.9517,20.9992 C20.3057,21.2462 20.7297,21.3732 21.1617,21.3612 C21.9677,21.3612 22.4357,20.9402 22.4357,20.4482 C22.4357,19.9552 22.0677,19.6982 21.4577,19.6102 L21.1647,19.5692 C20.9017,19.5342 20.6907,19.4992 20.6907,19.2942 C20.6907,19.0892 20.8897,18.9652 21.2237,18.9652 C21.5317,18.9692 21.8347,19.0522 22.1017,19.2062 L22.3747,18.7142 C22.0307,18.5092 21.6347,18.4082 21.2347,18.4212 Z M11.5957,18.4192 C11.2397,18.4312 10.9117,18.6182 10.7197,18.9182 C10.5257,18.5962 10.1707,18.4052 9.7937,18.4212 C9.4667,18.4042 9.1537,18.5622 8.9737,18.8372 L8.9737,18.4912 L8.3647,18.4912 L8.3647,21.2882 L8.9797,21.2882 L8.9797,19.7302 C8.9277,19.3732 9.1767,19.0422 9.5337,18.9922 C9.5767,18.9852 9.6207,18.9832 9.6647,18.9862 C10.0687,18.9862 10.2737,19.2492 10.2737,19.7242 L10.2737,21.2802 L10.8897,21.2802 L10.8897,19.7302 C10.8427,19.3692 11.0957,19.0382 11.4567,18.9912 C11.4957,18.9862 11.5357,18.9842 11.5747,18.9862 C11.9907,18.9862 12.1897,19.2492 12.1897,19.7242 L12.1897,21.2802 L12.8027,21.2882 L12.8027,19.5312 C12.8417,18.9582 12.4097,18.4612 11.8367,18.4212 C11.7927,18.4182 11.7477,18.4182 11.7037,18.4212 C11.6677,18.4182 11.6317,18.4182 11.5957,18.4192 Z M23.4237,17.6472 L23.4237,18.4972 L22.8547,18.4972 L22.8547,19.0542 L23.4237,19.0542 L23.4237,20.3272 C23.4237,20.9782 23.6757,21.3652 24.3957,21.3652 C24.6647,21.3662 24.9287,21.2902 25.1567,21.1482 L24.9817,20.6262 C24.8187,20.7232 24.6327,20.7782 24.4427,20.7842 C24.1377,20.7842 24.0377,20.6092 24.0377,20.3162 L24.0377,19.0482 L25.0317,19.0482 L25.0317,18.4972 L24.0377,18.4972 L24.0377,17.6472 L23.4237,17.6472 Z" id="Fill-3" fill="#FFFFFF"></path>
                <mask id="mask-2" fill="white">
                    <use xlink:href="#path-1"></use>
                </mask>
                <g id="Clip-6"></g>
                <polygon id="Fill-5" fill="#7673C0" mask="url(#mask-2)" points="16.945 15.04 23.053 15.04 23.053 4.063 16.945 4.063"></polygon>
                <path d="M17.3335,9.5508 C17.3315,7.4088 18.3145,5.3848 19.9995,4.0628 C16.9685,1.6808 12.5805,2.2068 10.1975,5.2388 C7.8155,8.2698 8.3415,12.6578 11.3735,15.0398 C13.9045,17.0298 17.4685,17.0298 19.9995,15.0398 C18.3145,13.7178 17.3315,11.6928 17.3335,9.5508" id="Fill-7" fill="#EB001B" mask="url(#mask-2)"></path>
                <path d="M31.0752,13.8765 L31.0752,13.6055 L31.0052,13.6055 L30.9242,13.7985 L30.8432,13.6055 L30.7732,13.6055 L30.7732,13.8765 L30.8232,13.8765 L30.8232,13.6725 L30.8992,13.8495 L30.9512,13.8495 L31.0272,13.6725 L31.0272,13.8785 L31.0752,13.8765 Z M30.6272,13.8765 L30.6272,13.6515 L30.7182,13.6515 L30.7182,13.6055 L30.4882,13.6055 L30.4882,13.6515 L30.5792,13.6515 L30.5792,13.8765 L30.6272,13.8765 Z" id="Fill-8" fill="#00A1DF" mask="url(#mask-2)"></path>
                <path d="M31.2944,9.5508 C31.2944,13.4058 28.1694,16.5308 24.3134,16.5308 C22.7494,16.5308 21.2294,16.0058 19.9994,15.0378 C23.0304,12.6558 23.5564,8.2678 21.1744,5.2368 C20.8314,4.7998 20.4364,4.4048 19.9994,4.0608 C23.0304,1.6778 27.4194,2.2038 29.8014,5.2348 C30.7684,6.4648 31.2944,7.9838 31.2944,9.5488 L31.2944,9.5508 Z" id="Fill-9" fill="#00A1DF" mask="url(#mask-2)"></path>
            </g>
        </g>
    </g>
</svg>