<?xml version="1.0" encoding="utf-8"?>
<svg xmlns="http://www.w3.org/2000/svg" version="1.1" viewBox="0 0 168.32 106.44" preserveAspectRatio="xMinYMin meet">
    <path id="rect8" d="M 0 0 L 0 106.43945 L 168.32031 106.43945 L 168.32031 0 L 0 0 z " />
    <path fill="#ffffff" d="M 97.419922 85.109375 L 97.419922 88.009766 L 95.480469 88.009766 L 95.480469 89.910156 L 97.419922 89.910156 L 97.419922 94.259766 C 97.419922 96.479766 98.280234 97.800781 100.74023 97.800781 A 4.88 4.88 0 0 0 103.33984 97.060547 L 102.74023 95.279297 A 3.84 3.84 0 0 1 100.90039 95.820312 C 99.860391 95.820312 99.519531 95.220703 99.519531 94.220703 L 99.519531 89.890625 L 102.91016 89.890625 L 102.91016 88.009766 L 99.519531 88.009766 L 99.519531 85.109375 L 97.419922 85.109375 z M 57.041016 87.744141 A 3.7 3.7 0 0 0 54.050781 89.449219 A 3.51 3.51 0 0 0 50.890625 87.75 A 3.16 3.16 0 0 0 48.089844 89.169922 L 48.089844 87.990234 L 46.009766 87.990234 L 46.009766 97.539062 L 48.109375 97.539062 L 48.109375 92.220703 A 2.23 2.23 0 0 1 50.449219 89.679688 C 51.829219 89.679688 52.529297 90.579219 52.529297 92.199219 L 52.529297 97.509766 L 54.630859 97.509766 L 54.630859 92.220703 A 2.25 2.25 0 0 1 56.970703 89.679688 C 58.390703 89.679688 59.070312 90.579219 59.070312 92.199219 L 59.070312 97.509766 L 61.160156 97.539062 L 61.160156 91.539062 A 3.55 3.55 0 0 0 57.410156 87.75 A 3.7 3.7 0 0 0 57.041016 87.744141 z M 89.949219 87.75 C 87.509219 87.75 85.949219 88.910547 85.949219 90.810547 C 85.949219 92.370547 87.11 93.330859 89.25 93.630859 L 90.25 93.769531 C 91.39 93.929531 91.929688 94.229531 91.929688 94.769531 C 91.929688 95.509531 91.17 95.929688 89.75 95.929688 A 5.09 5.09 0 0 1 86.570312 94.929688 L 85.570312 96.550781 A 6.89 6.89 0 0 0 89.699219 97.789062 C 92.449219 97.789062 94.050781 96.349922 94.050781 94.669922 C 94.050781 92.989922 92.790937 92.110547 90.710938 91.810547 L 89.710938 91.669922 C 88.810938 91.549922 88.089844 91.430469 88.089844 90.730469 C 88.089844 90.030469 88.770156 89.609375 89.910156 89.609375 A 6.15 6.15 0 0 1 92.910156 90.429688 L 93.839844 88.75 A 7.14 7.14 0 0 0 89.949219 87.75 z M 110.09961 87.75 L 110.14062 87.789062 A 2.82 2.82 0 0 0 107.61914 89.189453 L 107.61914 88.029297 L 105.56055 88.029297 L 105.56055 97.580078 L 107.64062 97.580078 L 107.64062 92.230469 C 107.64062 90.650469 108.28062 89.769531 109.64062 89.769531 A 3.38 3.38 0 0 1 110.93945 90.009766 L 111.58008 88.009766 A 4.43 4.43 0 0 0 110.09961 87.75 z M 117.2793 87.75 A 5.38 5.38 0 0 0 115.23047 88.160156 A 4.94 4.94 0 0 0 113.60938 89.220703 A 4.88 4.88 0 0 0 112.53906 90.810547 A 5.31 5.31 0 0 0 112.53906 94.810547 A 4.88 4.88 0 0 0 113.60938 96.400391 A 4.94 4.94 0 0 0 115.23047 97.460938 A 5.66 5.66 0 0 0 119.33008 97.460938 A 5 5 0 0 0 120.96094 96.400391 A 4.83 4.83 0 0 0 122.03906 94.810547 A 5.3 5.3 0 0 0 122.03906 90.810547 A 4.84 4.84 0 0 0 120.96094 89.220703 A 5 5 0 0 0 119.30078 88.150391 A 5.38 5.38 0 0 0 117.30078 87.769531 L 117.2793 87.75 z M 67.939453 87.757812 A 3.62 3.62 0 0 0 67.759766 87.759766 A 5 5 0 0 0 67.759766 97.759766 A 3.62 3.62 0 0 0 70.759766 96.359375 L 70.759766 97.519531 L 72.839844 97.519531 L 72.859375 92.769531 L 72.859375 88 L 70.759766 88 L 70.759766 89.160156 A 3.62 3.62 0 0 0 67.939453 87.757812 z M 79.630859 87.769531 A 5.00049 5.00049 0 0 0 79.769531 97.769531 A 5.8 5.8 0 0 0 83.679688 96.429688 L 82.679688 94.890625 A 4.55 4.55 0 0 1 79.900391 95.890625 A 2.65 2.65 0 0 1 77.039062 93.550781 L 84.130859 93.550781 C 84.160859 93.310781 84.160156 93.049531 84.160156 92.769531 C 84.160156 89.769531 82.300859 87.769531 79.630859 87.769531 z M 79.470703 89.609375 A 2.46 2.46 0 0 1 79.589844 89.609375 A 2.37 2.37 0 0 1 82.009766 91.929688 L 77.050781 91.929688 A 2.46 2.46 0 0 1 79.470703 89.609375 z M 117.2793 89.710938 A 3.1 3.1 0 0 1 118.48047 89.990234 A 2.86 2.86 0 0 1 119.48047 90.619141 A 2.9 2.9 0 0 1 120.10938 91.619141 A 3.47 3.47 0 0 1 120.10938 94.099609 A 2.89 2.89 0 0 1 119.48047 95.099609 A 2.86 2.86 0 0 1 118.48047 95.730469 A 3.25 3.25 0 0 1 116.10938 95.730469 A 2.8 2.8 0 0 1 115.16016 95.099609 A 2.92 2.92 0 0 1 114.5293 94.099609 A 3.47 3.47 0 0 1 114.5293 91.619141 A 2.93 2.93 0 0 1 115.16016 90.619141 A 2.81 2.81 0 0 1 116.10938 89.990234 A 3.1 3.1 0 0 1 117.30078 89.769531 L 117.2793 89.710938 z M 67.980469 90.050781 A 2.89 2.89 0 1 1 68.029297 95.830078 A 2.86 2.86 0 0 1 65.109375 92.769531 L 65.130859 92.769531 A 2.89 2.89 0 0 1 67.980469 90.050781 z M 124.48047 96.140625 L 124.42969 96.150391 A 1 1 0 0 0 124.09961 96.210938 A 1 1 0 0 0 123.78906 96.410156 A 1 1 0 0 0 123.58008 96.710938 A 0.94 0.94 0 0 0 123.58008 97.449219 A 1 1 0 0 0 124.48047 98.029297 A 0.94 0.94 0 0 0 124.85938 97.949219 A 1 1 0 0 0 125.16992 97.75 A 1 1 0 0 0 125.38086 97.449219 A 0.93 0.93 0 0 0 125.38086 96.710938 A 1 1 0 0 0 125.16992 96.410156 A 1 1 0 0 0 124.85938 96.210938 A 1 1 0 0 0 124.48047 96.140625 z M 124.48047 96.349609 A 0.72 0.72 0 0 1 124.76953 96.410156 A 0.74 0.74 0 0 1 125 97.609375 A 0.75 0.75 0 0 1 124.76953 97.769531 A 0.71 0.71 0 0 1 124.48047 97.830078 L 124.48047 97.789062 A 0.74 0.74 0 0 1 123.94922 97.570312 A 0.74 0.74 0 0 1 123.94922 96.570312 A 0.73 0.73 0 0 1 124.18945 96.410156 A 0.75 0.75 0 0 1 124.48047 96.349609 z M 124.53906 96.640625 L 124.11914 96.650391 L 124.11914 97.529297 L 124.31055 97.529297 L 124.31055 97.199219 L 124.40039 97.199219 L 124.66992 97.529297 L 124.90039 97.529297 L 124.60938 97.199219 A 0.35 0.35 0 0 0 124.82031 97.109375 A 0.24 0.24 0 0 0 124.89062 96.929688 A 0.25 0.25 0 0 0 124.80078 96.720703 A 0.4 0.4 0 0 0 124.53906 96.640625 z M 124.32031 96.810547 L 124.53906 96.869141 A 0.21 0.21 0 0 1 124.66016 96.869141 A 0.1 0.1 0 0 1 124.66016 96.960938 A 0.1 0.1 0 0 1 124.66016 97.050781 A 0.21 0.21 0 0 1 124.53906 97.050781 L 124.32031 97.050781 L 124.32031 96.810547 z " />
    <rect height="56.61" width="31.5" y="15.14" x="68.41" fill="#7673c0" />
    <path transform="translate(-311.84 -252.78)" d="M382.25,296.22A35.94,35.94,0,0,1,396,267.92a36,36,0,1,0,0,56.61A35.94,35.94,0,0,1,382.25,296.22Z" fill="#eb001b"/>
    <path transform="translate(-311.84 -252.78)" d="M450.81,318.53v-1.16h.47v-.24h-1.19v.24h.47v1.16Zm2.31,0v-1.4h-.36l-.42,1-.42-1h-.36v1.4h.26v-1.05l.39.91h.27l.39-.91v1.06Z" fill="#00a1df" />
    <path transform="translate(-311.84 -252.78)" d="M454.25,296.22A36,36,0,0,1,396,324.52a36,36,0,0,0,0-56.61,36,36,0,0,1,58.25,28.3Z" fill="#00a1df" />
</svg>
