<?xml version="1.0" encoding="UTF-8" standalone="no"?>
<svg xmlns="http://www.w3.org/2000/svg" viewBox="0 0 40 23.999999" width="40" height="24" preserveAspectRatio="xMinYMin meet" version="1.1">
    <path d="M 0,1.927 C 0,0.86299997 0.892,0 1.992,0 H 38.008 C 39.108,0 40,0.86299997 40,1.927 V 22.073 C 40,23.137 39.108,24 38.008,24 H 1.992 C 0.892,24 0,23.137 0,22.073 Z" style="fill:#3e3939" />
    <path d="m 23.74623,18.221667 v 0.929759 h -0.621716 v 0.609196 h 0.621716 v 1.394324 c 0,0.71165 0.275786,1.135118 1.064369,1.135118 a 1.564348,1.564348 0 0 0 0.833339,-0.237293 l -0.192215,-0.571003 a 1.2309624,1.2309624 0 0 1 -0.589785,0.17343 c -0.333383,0 -0.442649,-0.192213 -0.442649,-0.512774 v -1.388065 h 1.086908 V 19.151426 H 24.419289 V 18.221667 Z M 10.802242,19.066278 A 1.1860835,1.1860835 0 0 0 9.8436827,19.612862 1.1251765,1.1251765 0 0 0 8.830654,19.068153 1.0129794,1.0129794 0 0 0 7.9328276,19.523328 V 19.145165 H 7.2660325 v 3.061001 H 7.939089 v -1.704869 a 0.71485573,0.71485573 0 0 1 0.7500683,-0.814556 c 0.4423764,0 0.6667964,0.288356 0.6667964,0.807671 v 1.702363 h 0.6736813 v -1.695478 a 0.72126699,0.72126699 0 0 1 0.750068,-0.814556 c 0.4552,0 0.673058,0.288356 0.673058,0.807671 v 1.702363 l 0.669926,0.0094 v -1.923369 a 1.1379991,1.1379991 0 0 0 -1.202112,-1.214633 1.1860835,1.1860835 0 0 0 -0.118329,-0.002 z m 10.549158,0.002 c -0.782176,0 -1.282253,0.372027 -1.282253,0.981097 0,0.50008 0.372102,0.80792 1.058106,0.904089 l 0.320567,0.04445 c 0.365439,0.05128 0.538444,0.147461 0.538444,0.320563 0,0.237218 -0.243528,0.371902 -0.69873,0.371902 a 1.6316662,1.6316662 0 0 1 -1.019289,-0.320606 l -0.320562,0.519663 a 2.2086798,2.2086798 0 0 0 1.323576,0.396946 c 0.881546,0 1.394948,-0.461335 1.394948,-0.999881 0,-0.538545 -0.403858,-0.820441 -1.07063,-0.916612 l -0.320563,-0.04509 c -0.288506,-0.03848 -0.519662,-0.07675 -0.519662,-0.301152 0,-0.224394 0.218082,-0.359382 0.583526,-0.359382 a 1.9714631,1.9714631 0 0 1 0.961688,0.262961 l 0.298023,-0.538445 A 2.2888207,2.2888207 0 0 0 21.3514,19.06818 Z m 6.45947,0 0.0132,0.01254 a 0.90398792,0.90398792 0 0 0 -0.80829,0.448915 v -0.371917 h -0.659908 v 3.061628 h 0.666794 v -1.714927 c 0,-0.506487 0.205162,-0.788884 0.641127,-0.788884 a 1.0835034,1.0835034 0 0 1 0.416355,0.07701 l 0.205363,-0.641127 a 1.4200945,1.4200945 0 0 0 -0.474583,-0.08326 z m 2.301544,0 a 1.7246296,1.7246296 0 0 0 -0.656779,0.13148 1.5835818,1.5835818 0 0 0 -0.519661,0.339973 1.564348,1.564348 0 0 0 -0.343103,0.509644 1.7021902,1.7021902 0 0 0 0,1.282252 1.564348,1.564348 0 0 0 0.343103,0.509647 1.5835818,1.5835818 0 0 0 0.519661,0.339972 1.8143872,1.8143872 0 0 0 1.314183,0 1.6028157,1.6028157 0 0 0 0.522793,-0.339972 1.5483199,1.5483199 0 0 0 0.345606,-0.509647 1.6989845,1.6989845 0 0 0 0,-1.282252 1.5515252,1.5515252 0 0 0 -0.345606,-0.509644 1.6028157,1.6028157 0 0 0 -0.532186,-0.343105 1.7246296,1.7246296 0 0 0 -0.641125,-0.122092 z m -15.816534,0.0025 a 1.1604384,1.1604384 0 0 0 -0.05759,6.27e-4 1.602816,1.602816 0 0 0 0,3.205632 1.1604384,1.1604384 0 0 0 0.961689,-0.448915 v 0.371903 h 0.666796 l 0.0062,-1.522675 v -1.528937 h -0.673017 v 0.371902 a 1.1604384,1.1604384 0 0 0 -0.904087,-0.449539 z m 3.747834,0.0039 a 1.6029727,1.6029727 0 0 0 0.04446,3.205629 1.859266,1.859266 0 0 0 1.253452,-0.429506 l -0.320573,-0.493394 a 1.458562,1.458562 0 0 1 -0.89094,0.320563 0.84949219,0.84949219 0 0 1 -0.917235,-0.750067 h 2.273368 c 0.0096,-0.07692 0.0094,-0.160682 0.0094,-0.250439 0,-0.961691 -0.596025,-1.602816 -1.451926,-1.602816 z m -0.05135,0.589784 a 0.78858528,0.78858528 0 0 1 0.03819,0 0.75973457,0.75973457 0 0 1 0.775738,0.743808 h -1.589666 a 0.78858528,0.78858528 0 0 1 0.775738,-0.743808 z m 12.120042,0.03256 a 0.99374563,0.99374563 0 0 1 0.385051,0.08952 0.91681058,0.91681058 0 0 1 0.320563,0.201604 0.92963292,0.92963292 0 0 1 0.201606,0.320564 1.1123539,1.1123539 0 0 1 0,0.795147 0.92642727,0.92642727 0 0 1 -0.201606,0.320562 0.91681058,0.91681058 0 0 1 -0.320563,0.202231 1.0418302,1.0418302 0 0 1 -0.760083,0 0.89757672,0.89757672 0 0 1 -0.304286,-0.202231 0.9360443,0.9360443 0 0 1 -0.202231,-0.320562 1.1123539,1.1123539 0 0 1 0,-0.795147 0.93924994,0.93924994 0 0 1 0.202231,-0.320564 0.90078228,0.90078228 0 0 1 0.304286,-0.201604 0.99374563,0.99374563 0 0 1 0.381918,-0.07073 z M 14.309018,19.80595 a 0.92642727,0.92642727 0 1 1 0.01565,1.852627 0.91681058,0.91681058 0 0 1 -0.936018,-0.981097 h 0.0069 a 0.92642727,0.92642727 0 0 1 0.913439,-0.871499 z m 18.111818,1.952179 -0.01629,0.0031 a 0.3205631,0.3205631 0 0 0 -0.10581,0.0194 0.3205631,0.3205631 0 0 0 -0.09955,0.06386 0.3205631,0.3205631 0 0 0 -0.067,0.09641 0.30132932,0.30132932 0 0 0 0,0.236665 0.3205631,0.3205631 0 0 0 0.288631,0.185952 0.30132932,0.30132932 0 0 0 0.12147,-0.02567 0.3205631,0.3205631 0 0 0 0.09956,-0.06384 0.3205631,0.3205631 0 0 0 0.06763,-0.09642 0.2981237,0.2981237 0 0 0 0,-0.236664 0.3205631,0.3205631 0 0 0 -0.06763,-0.09641 0.3205631,0.3205631 0 0 0 -0.09956,-0.06387 0.3205631,0.3205631 0 0 0 -0.12147,-0.02255 z m 0,0.067 a 0.23080544,0.23080544 0 0 1 0.09266,0.01941 0.2372167,0.2372167 0 0 1 0.07387,0.384424 0.24042232,0.24042232 0 0 1 -0.07387,0.05135 0.2275998,0.2275998 0 0 1 -0.09266,0.01941 v -0.01321 a 0.2372167,0.2372167 0 0 1 -0.170301,-0.07014 0.2372167,0.2372167 0 0 1 0,-0.320564 0.23401105,0.23401105 0 0 1 0.07701,-0.05134 0.24042232,0.24042232 0 0 1 0.09329,-0.0194 z m 0.01878,0.09329 -0.134612,0.0031 v 0.281748 h 0.06134 v -0.105802 h 0.0288 l 0.08639,0.105811 h 0.07388 l -0.09329,-0.105811 a 0.11219709,0.11219709 0 0 0 0.06761,-0.02879 0.07693513,0.07693513 0 0 0 0.02255,-0.05761 0.08014078,0.08014078 0 0 0 -0.0288,-0.067 0.12822525,0.12822525 0 0 0 -0.08391,-0.02567 z m -0.07014,0.05448 0.07014,0.01878 a 0.06731826,0.06731826 0 0 1 0.03881,0 0.03205633,0.03205633 0 0 1 0,0.02943 0.03205633,0.03205633 0 0 1 0,0.0288 0.06731826,0.06731826 0 0 1 -0.03881,0 h -0.07014 z" style="fill:#ffffff;stroke-width:0.77356213" />
    <g transform="matrix(0.21220782,0,0,0.21220782,2.1400282,0.14227739)">
        <rect x="68.410004" y="15.14" width="31.5" height="56.610001" style="fill:#7673c0" />
        <path d="m 382.25,296.22 a 35.94,35.94 0 0 1 13.75,-28.3 36,36 0 1 0 0,56.61 35.94,35.94 0 0 1 -13.75,-28.31 z" transform="translate(-311.84,-252.78)" id="path8" style="fill:#eb001b" />
        <path d="m 450.81,318.53 v -1.16 h 0.47 v -0.24 h -1.19 v 0.24 h 0.47 v 1.16 z m 2.31,0 v -1.4 h -0.36 l -0.42,1 -0.42,-1 h -0.36 v 1.4 h 0.26 v -1.05 l 0.39,0.91 h 0.27 l 0.39,-0.91 v 1.06 z" transform="translate(-311.84,-252.78)" style="fill:#00a1df" />
        <path d="m 454.25,296.22 a 36,36 0 0 1 -58.25,28.3 36,36 0 0 0 0,-56.61 36,36 0 0 1 58.25,28.3 z" transform="translate(-311.84,-252.78)" style="fill:#00a1df" />
    </g>
</svg>
