<?xml version="1.0" encoding="UTF-8"?>
<svg width="40px" height="24px" viewBox="0 0 40 24" version="1.1" xmlns="http://www.w3.org/2000/svg" xmlns:xlink="http://www.w3.org/1999/xlink">
    <!-- Generator: Sketch 51.2 (57519) - http://www.bohemiancoding.com/sketch -->
    <title>mastercard</title>
    <desc>Created with Sketch.</desc>
    <defs>
        <polygon id="path-1" points="0 24 40 24 40 0 0 0"></polygon>
    </defs>
    <g id="mastercard" stroke="none" stroke-width="1" fill="none" fill-rule="evenodd">
        <g>
            <path d="M38,24 L2,24 C0.896,24 0,23.15 0,22.103 L0,1.897 C0,0.85 0.896,0 2,0 L38,0 C39.104,0 40,0.85 40,1.897 L40,22.103 C40,23.15 39.104,24 38,24" id="Fill-1" fill="#000000"></path>
            <path d="M29.3428,20.3291 C29.3428,19.9541 29.5808,19.6541 29.9638,19.6541 C30.3308,19.6541 30.5728,19.9411 30.5728,20.3291 C30.5728,20.7171 30.3308,21.0041 29.9638,21.0041 C29.5808,21.0041 29.3428,20.7041 29.3428,20.3291 Z M30.9558,20.3291 L30.9558,18.5331 L30.5558,18.5331 L30.5558,19.5751 C30.4188,19.3951 30.1938,19.2831 29.9098,19.2831 C29.3508,19.2831 28.9258,19.7211 28.9258,20.3291 C28.9258,20.9371 29.3508,21.3751 29.9098,21.3751 C30.1938,21.3751 30.4188,21.2631 30.5558,21.0831 L30.5558,21.3251 L30.9558,21.3251 L30.9558,20.3291 Z M25.3208,20.3291 C25.3208,19.9541 25.5578,19.6541 25.9418,19.6541 C26.3078,19.6541 26.5498,19.9411 26.5498,20.3291 C26.5498,20.7171 26.3078,21.0041 25.9418,21.0041 C25.5578,21.0041 25.3208,20.7041 25.3208,20.3291 Z M26.9338,20.3291 L26.9338,19.3331 L26.5328,19.3331 L26.5328,19.5751 C26.3958,19.3951 26.1708,19.2831 25.8868,19.2831 C25.3288,19.2831 24.9038,19.7211 24.9038,20.3291 C24.9038,20.9371 25.3288,21.3751 25.8868,21.3751 C26.1708,21.3751 26.3958,21.2631 26.5328,21.0831 L26.5328,21.3251 L26.9338,21.3251 L26.9338,20.3291 Z M31.6438,21.1761 L31.6438,21.2251 L31.6898,21.2251 C31.6998,21.2251 31.7078,21.2231 31.7138,21.2191 C31.7198,21.2151 31.7228,21.2081 31.7228,21.2001 C31.7228,21.1921 31.7198,21.1861 31.7138,21.1821 C31.7078,21.1781 31.6998,21.1761 31.6898,21.1761 L31.6438,21.1761 Z M31.6898,21.1411 C31.7138,21.1411 31.7318,21.1471 31.7438,21.1571 C31.7568,21.1681 31.7638,21.1821 31.7638,21.2001 C31.7638,21.2151 31.7588,21.2281 31.7478,21.2381 C31.7378,21.2471 31.7238,21.2541 31.7048,21.2561 L31.7648,21.3251 L31.7178,21.3251 L31.6618,21.2561 L31.6438,21.2561 L31.6438,21.3251 L31.6048,21.3251 L31.6048,21.1411 L31.6898,21.1411 Z M31.6778,21.3881 C31.6998,21.3881 31.7188,21.3841 31.7378,21.3761 C31.7568,21.3681 31.7728,21.3571 31.7858,21.3431 C31.8008,21.3291 31.8108,21.3131 31.8188,21.2941 C31.8268,21.2751 31.8308,21.2551 31.8308,21.2341 C31.8308,21.2131 31.8268,21.1931 31.8188,21.1741 C31.8108,21.1551 31.8008,21.1391 31.7858,21.1251 C31.7728,21.1111 31.7568,21.1001 31.7378,21.0921 C31.7188,21.0841 31.6998,21.0801 31.6778,21.0801 C31.6558,21.0801 31.6358,21.0841 31.6168,21.0921 C31.5988,21.1001 31.5818,21.1111 31.5688,21.1251 C31.5538,21.1391 31.5438,21.1551 31.5348,21.1741 C31.5278,21.1931 31.5238,21.2131 31.5238,21.2341 C31.5238,21.2551 31.5278,21.2751 31.5348,21.2941 C31.5438,21.3131 31.5538,21.3291 31.5688,21.3431 C31.5818,21.3571 31.5988,21.3681 31.6168,21.3761 C31.6358,21.3841 31.6558,21.3881 31.6778,21.3881 Z M31.6778,21.0371 C31.7058,21.0371 31.7318,21.0411 31.7568,21.0521 C31.7808,21.0621 31.8018,21.0761 31.8208,21.0941 C31.8388,21.1121 31.8528,21.1331 31.8638,21.1571 C31.8738,21.1821 31.8798,21.2071 31.8798,21.2341 C31.8798,21.2611 31.8738,21.2871 31.8638,21.3111 C31.8528,21.3351 31.8388,21.3551 31.8208,21.3731 C31.8018,21.3911 31.7808,21.4061 31.7568,21.4161 C31.7318,21.4271 31.7058,21.4321 31.6778,21.4321 C31.6498,21.4321 31.6228,21.4271 31.5988,21.4161 C31.5738,21.4061 31.5518,21.3911 31.5338,21.3731 C31.5158,21.3551 31.5018,21.3351 31.4908,21.3111 C31.4808,21.2871 31.4758,21.2611 31.4758,21.2341 C31.4758,21.2071 31.4808,21.1821 31.4908,21.1571 C31.5018,21.1331 31.5158,21.1121 31.5338,21.0941 C31.5518,21.0761 31.5738,21.0621 31.5988,21.0521 C31.6228,21.0411 31.6498,21.0371 31.6778,21.0371 Z M28.4678,19.2831 C28.2178,19.2831 28.0378,19.3991 27.9258,19.5751 L27.9258,19.3331 L27.5298,19.3331 L27.5298,21.3251 L27.9298,21.3251 L27.9298,20.2041 C27.9298,19.8751 28.0878,19.6621 28.3718,19.6621 C28.4588,19.6621 28.5508,19.6751 28.6428,19.7121 L28.7758,19.3371 C28.6798,19.2991 28.5548,19.2831 28.4678,19.2831 Z M13.0858,20.3291 C13.0858,19.9541 13.3238,19.6541 13.7068,19.6541 C14.0738,19.6541 14.3158,19.9411 14.3158,20.3291 C14.3158,20.7171 14.0738,21.0041 13.7068,21.0041 C13.3238,21.0041 13.0858,20.7041 13.0858,20.3291 Z M14.6988,20.3291 L14.6988,19.3331 L14.2988,19.3331 L14.2988,19.5751 C14.1618,19.3951 13.9368,19.2831 13.6528,19.2831 C13.0938,19.2831 12.6688,19.7211 12.6688,20.3291 C12.6688,20.9371 13.0938,21.3751 13.6528,21.3751 C13.9368,21.3751 14.1618,21.2631 14.2988,21.0831 L14.2988,21.3251 L14.6988,21.3251 L14.6988,20.3291 Z M20.0928,19.6541 C20.3888,19.6541 20.5898,19.8461 20.6178,20.1581 L19.5428,20.1581 C19.5808,19.8661 19.7718,19.6541 20.0928,19.6541 Z M20.1018,19.2831 C19.5178,19.2831 19.1178,19.7041 19.1178,20.3251 C19.1178,20.9581 19.5348,21.3751 20.1308,21.3751 C20.4308,21.3751 20.7058,21.3001 20.9478,21.0961 L20.7348,20.8001 C20.5688,20.9331 20.3558,21.0091 20.1558,21.0091 C19.8768,21.0091 19.5928,20.8501 19.5428,20.4921 L21.0308,20.4921 C21.0348,20.4371 21.0398,20.3831 21.0398,20.3251 C21.0348,19.7041 20.6598,19.2831 20.1018,19.2831 Z M22.9028,20.3291 C22.9028,20.9331 23.3068,21.3751 23.9488,21.3751 C24.2488,21.3751 24.4488,21.3081 24.6658,21.1381 L24.4578,20.8251 C24.2948,20.9421 24.1238,21.0041 23.9368,21.0041 C23.5908,21.0001 23.3198,20.7291 23.3198,20.3291 C23.3198,19.9291 23.5908,19.6581 23.9368,19.6541 C24.1238,19.6541 24.2948,19.7161 24.4578,19.8331 L24.6658,19.5201 C24.4488,19.3501 24.2488,19.2831 23.9488,19.2831 C23.3068,19.2831 22.9028,19.7251 22.9028,20.3291 Z M16.8588,19.4911 C16.6498,19.3531 16.3628,19.2831 16.0458,19.2831 C15.5408,19.2831 15.2328,19.5201 15.2328,19.9161 C15.2328,20.2421 15.4578,20.4371 15.9038,20.5001 L16.1078,20.5291 C16.3458,20.5621 16.4748,20.6461 16.4748,20.7581 C16.4748,20.9121 16.2998,21.0131 16.0038,21.0131 C15.6918,21.0131 15.4868,20.9171 15.3418,20.8041 L15.1368,21.1171 C15.4328,21.3331 15.7868,21.3751 15.9998,21.3751 C16.5748,21.3751 16.8918,21.1081 16.8918,20.7291 C16.8918,20.3791 16.6498,20.2001 16.2128,20.1371 L16.0078,20.1081 C15.8208,20.0831 15.6538,20.0251 15.6538,19.8921 C15.6538,19.7461 15.8118,19.6451 16.0498,19.6451 C16.3038,19.6451 16.5498,19.7411 16.6708,19.8161 L16.8588,19.4911 Z M22.4478,19.2831 C22.1978,19.2831 22.0188,19.3991 21.9058,19.5751 L21.9058,19.3331 L21.5098,19.3331 L21.5098,21.3251 L21.9108,21.3251 L21.9108,20.2041 C21.9108,19.8751 22.0688,19.6621 22.3528,19.6621 C22.4398,19.6621 22.5318,19.6751 22.6238,19.7121 L22.7568,19.3371 C22.6608,19.2991 22.5358,19.2831 22.4478,19.2831 Z M18.7508,19.3331 L18.0258,19.3331 L18.0258,18.7281 L17.6208,18.7281 L17.6208,19.3331 L17.1998,19.3331 L17.1998,19.6951 L17.6208,19.6951 L17.6208,20.6381 C17.6208,21.1001 17.7838,21.3751 18.2968,21.3751 C18.4838,21.3751 18.7008,21.3171 18.8388,21.2211 L18.7138,20.8671 C18.5838,20.9421 18.4428,20.9791 18.3298,20.9791 C18.1138,20.9791 18.0258,20.8461 18.0258,20.6461 L18.0258,19.6951 L18.7508,19.6951 L18.7508,19.3331 Z M12.2568,21.3251 L12.2568,20.0711 C12.2568,19.6001 11.9728,19.2871 11.4888,19.2831 C11.2358,19.2791 10.9728,19.3581 10.7888,19.6371 C10.6518,19.4161 10.4348,19.2831 10.1308,19.2831 C9.9178,19.2831 9.6928,19.3411 9.5308,19.5751 L9.5308,19.3331 L9.1308,19.3331 L9.1308,21.3251 L9.5348,21.3251 L9.5348,20.1831 C9.5348,19.8371 9.7428,19.6541 10.0388,19.6541 C10.3268,19.6541 10.4888,19.8411 10.4888,20.1791 L10.4888,21.3251 L10.8938,21.3251 L10.8938,20.1831 C10.8938,19.8371 11.1108,19.6541 11.3978,19.6541 C11.6938,19.6541 11.8518,19.8411 11.8518,20.1791 L11.8518,21.3251 L12.2568,21.3251 Z" id="Fill-3" fill="#FFFFFF"></path>
            <mask id="mask-2" fill="white">
                <use xlink:href="#path-1"></use>
            </mask>
            <g id="Clip-6"></g>
            <polygon id="Fill-5" fill="#FF5F00" mask="url(#mask-2)" points="16.393 15.954 23.607 15.954 23.607 4.17 16.393 4.17"></polygon>
            <path d="M17.1377,10.062 C17.1377,7.671 18.2567,5.542 19.9997,4.17 C18.7247,3.166 17.1167,2.568 15.3687,2.568 C11.2297,2.568 7.8747,5.923 7.8747,10.062 C7.8747,14.201 11.2297,17.556 15.3687,17.556 C17.1167,17.556 18.7247,16.958 19.9997,15.954 C18.2567,14.582 17.1377,12.453 17.1377,10.062" id="Fill-7" fill="#EB001B" mask="url(#mask-2)"></path>
            <path d="M31.8911,14.7061 L31.8911,14.4151 L31.8151,14.4151 L31.7271,14.6151 L31.6401,14.4151 L31.5641,14.4151 L31.5641,14.7061 L31.6181,14.7061 L31.6181,14.4871 L31.7001,14.6761 L31.7551,14.6761 L31.8371,14.4861 L31.8371,14.7061 L31.8911,14.7061 Z M31.4101,14.7061 L31.4101,14.4651 L31.5071,14.4651 L31.5071,14.4151 L31.2601,14.4151 L31.2601,14.4651 L31.3571,14.4651 L31.3571,14.7061 L31.4101,14.7061 Z" id="Fill-8" fill="#F79E1B" mask="url(#mask-2)"></path>
            <path d="M32.125,10.062 C32.125,14.201 28.77,17.556 24.631,17.556 C22.883,17.556 21.275,16.958 20,15.954 C21.743,14.582 22.862,12.453 22.862,10.062 C22.862,7.671 21.743,5.542 20,4.17 C21.275,3.166 22.883,2.568 24.631,2.568 C28.77,2.568 32.125,5.923 32.125,10.062" id="Fill-9" fill="#F79E1B" mask="url(#mask-2)"></path>
        </g>
    </g>
</svg>