<?xml version="1.0" encoding="UTF-8"?>
<svg width="40px" height="24px" viewBox="0 0 40 24" version="1.1" xmlns="http://www.w3.org/2000/svg" xmlns:xlink="http://www.w3.org/1999/xlink">
    <!-- Generator: Sketch 51.2 (57519) - http://www.bohemiancoding.com/sketch -->
    <title>visa</title>
    <desc>Created with Sketch.</desc>
    <defs></defs>
    <g id="visa" stroke="none" stroke-width="1" fill="none" fill-rule="evenodd">
        <g>
            <path d="M38,24 L2,24 C0.9,24 0,23.1 0,22 L0,2 C0,0.9 0.9,0 2,0 L38,0 C39.1,0 40,0.9 40,2 L40,22 C40,23.1 39.1,24 38,24" id="Fill-1" fill="#132962"></path>
            <path d="M19.8486,7.1709 L17.7776,16.8539 L15.2726,16.8539 L17.3446,7.1709 L19.8486,7.1709 Z M30.3876,13.4229 L31.7066,9.7869 L32.4646,13.4229 L30.3876,13.4229 Z M33.1836,16.8539 L35.4996,16.8539 L33.4756,7.1709 L31.3396,7.1709 C30.8576,7.1709 30.4526,7.4509 30.2716,7.8809 L26.5136,16.8539 L29.1446,16.8539 L29.6666,15.4079 L32.8796,15.4079 L33.1836,16.8539 Z M26.6436,13.6919 C26.6556,11.1369 23.1116,10.9959 23.1356,9.8539 C23.1426,9.5069 23.4736,9.1369 24.1976,9.0429 C24.5566,8.9969 25.5456,8.9599 26.6676,9.4759 L27.1076,7.4219 C26.5036,7.2039 25.7286,6.9939 24.7646,6.9939 C22.2876,6.9939 20.5456,8.3099 20.5316,10.1949 C20.5156,11.5889 21.7756,12.3659 22.7236,12.8299 C23.7006,13.3049 24.0276,13.6089 24.0226,14.0329 C24.0156,14.6829 23.2436,14.9699 22.5246,14.9819 C21.2646,15.0009 20.5346,14.6409 19.9526,14.3689 L19.4976,16.4919 C20.0836,16.7599 21.1636,16.9939 22.2826,17.0059 C24.9156,17.0059 26.6366,15.7059 26.6436,13.6919 Z M16.2696,7.1709 L12.2106,16.8539 L9.5636,16.8539 L7.5656,9.1259 C7.4446,8.6509 7.3386,8.4769 6.9706,8.2759 C6.3686,7.9479 5.3736,7.6429 4.4996,7.4519 L4.5586,7.1709 L8.8216,7.1709 C9.3646,7.1709 9.8526,7.5329 9.9776,8.1579 L11.0326,13.7609 L13.6386,7.1709 L16.2696,7.1709 Z" id="Fill-3" fill="#FFFFFF"></path>
        </g>
    </g>
</svg>